<?xml version="1.0" encoding="UTF-8" standalone="no"?>
<!DOCTYPE svg PUBLIC "-//W3C//DTD SVG 1.1//EN"
 "http://www.w3.org/Graphics/SVG/1.1/DTD/svg11.dtd">
<!-- Generated by graphviz version 14.1.3 (20260303.0454)
 -->
<!-- Title: DocFinder Pages: 1 -->
<svg width="1748pt" height="872pt"
 viewBox="0.00 0.00 1748.00 872.00" xmlns="http://www.w3.org/2000/svg" xmlns:xlink="http://www.w3.org/1999/xlink">
<g id="graph0" class="graph" transform="scale(1 1) rotate(0) translate(50.4 821.15)">
<title>DocFinder</title>
<polygon fill="#ffffff" stroke="none" points="-50.4,50.4 -50.4,-821.15 1697.92,-821.15 1697.92,50.4 -50.4,50.4"/>
<text xml:space="preserve" text-anchor="middle" x="823.76" y="-749.65" font-family="Helvetica Neue,Helvetica,Arial,sans-serif" font-size="18.00" fill="#1a1a2e">Doc Finder — System Architecture</text>
<g id="clust1" class="cluster">
<title>cluster_ui</title>
<path fill="#eaf3fb" stroke="#3a7dc9" stroke-width="2.5" d="M20,-234C20,-234 427.8,-234 427.8,-234 433.8,-234 439.8,-240 439.8,-246 439.8,-246 439.8,-332 439.8,-332 439.8,-338 433.8,-344 427.8,-344 427.8,-344 20,-344 20,-344 14,-344 8,-338 8,-332 8,-332 8,-246 8,-246 8,-240 14,-234 20,-234"/>
<text xml:space="preserve" text-anchor="middle" x="223.9" y="-327.65" font-family="Helvetica Neue,Helvetica,Arial,sans-serif" font-size="13.00" fill="#1a3a5c">User Interface</text>
</g>
<g id="clust2" class="cluster">
<title>cluster_agent</title>
<path fill="#f3eef9" stroke="#7b5ea7" stroke-width="2.5" d="M601.51,-292C601.51,-292 773.51,-292 773.51,-292 779.51,-292 785.51,-298 785.51,-304 785.51,-304 785.51,-614 785.51,-614 785.51,-620 779.51,-626 773.51,-626 773.51,-626 601.51,-626 601.51,-626 595.51,-626 589.51,-620 589.51,-614 589.51,-614 589.51,-304 589.51,-304 589.51,-298 595.51,-292 601.51,-292"/>
<text xml:space="preserve" text-anchor="middle" x="687.51" y="-609.65" font-family="Helvetica Neue,Helvetica,Arial,sans-serif" font-size="13.00" fill="#3d1f6e">Search Agent &#160;(Databricks App)</text>
</g>
<g id="clust4" class="cluster">
<title>cluster_data</title>
<path fill="#fdf3eb" stroke="#d96a20" stroke-width="2.5" d="M948.32,-203C948.32,-203 1111.32,-203 1111.32,-203 1117.32,-203 1123.32,-209 1123.32,-215 1123.32,-215 1123.32,-515 1123.32,-515 1123.32,-521 1117.32,-527 1111.32,-527 1111.32,-527 948.32,-527 948.32,-527 942.32,-527 936.32,-521 936.32,-515 936.32,-515 936.32,-215 936.32,-215 936.32,-209 942.32,-203 948.32,-203"/>
<text xml:space="preserve" text-anchor="middle" x="1029.82" y="-510.65" font-family="Helvetica Neue,Helvetica,Arial,sans-serif" font-size="13.00" fill="#7a3a10">Data Sources &#160;(Unity Catalog)</text>
</g>
<g id="clust5" class="cluster">
<title>cluster_obs</title>
<path fill="#e8f5ee" stroke="#2a8050" stroke-width="2.5" d="M934.23,-628C934.23,-628 1124.41,-628 1124.41,-628 1130.41,-628 1136.41,-634 1136.41,-640 1136.41,-640 1136.41,-721 1136.41,-721 1136.41,-727 1130.41,-733 1124.41,-733 1124.41,-733 934.23,-733 934.23,-733 928.23,-733 922.23,-727 922.23,-721 922.23,-721 922.23,-640 922.23,-640 922.23,-634 928.23,-628 934.23,-628"/>
<text xml:space="preserve" text-anchor="middle" x="1029.32" y="-716.65" font-family="Helvetica Neue,Helvetica,Arial,sans-serif" font-size="13.00" fill="#1a5c35">Observability</text>
</g>
<g id="clust6" class="cluster">
<title>cluster_pipeline</title>
<path fill="#fdf7ed" stroke="#9a7030" stroke-width="2.5" d="M618.92,-8C618.92,-8 1627.52,-8 1627.52,-8 1633.52,-8 1639.52,-14 1639.52,-20 1639.52,-20 1639.52,-179 1639.52,-179 1639.52,-185 1633.52,-191 1627.52,-191 1627.52,-191 618.92,-191 618.92,-191 612.92,-191 606.92,-185 606.92,-179 606.92,-179 606.92,-20 606.92,-20 606.92,-14 612.92,-8 618.92,-8"/>
<text xml:space="preserve" text-anchor="middle" x="1123.22" y="-174.65" font-family="Helvetica Neue,Helvetica,Arial,sans-serif" font-size="13.00" fill="#6b4a10">Data Pipeline &#160;(DABs Job)</text>
</g>
<g id="clust7" class="cluster">
<title>cluster_legend</title>
<path fill="#f8f8f8" stroke="#aaaaaa" d="M77.57,-399C77.57,-399 386.17,-399 386.17,-399 392.17,-399 398.17,-405 398.17,-411 398.17,-411 398.17,-601 398.17,-601 398.17,-607 392.17,-613 386.17,-613 386.17,-613 77.57,-613 77.57,-613 71.57,-613 65.57,-607 65.57,-601 65.57,-601 65.57,-411 65.57,-411 65.57,-405 71.57,-399 77.57,-399"/>
<text xml:space="preserve" text-anchor="middle" x="231.87" y="-600.45" font-family="Helvetica Neue,Helvetica,Arial,sans-serif" font-size="9.00" fill="#555555">Legend</text>
</g>
<!-- USER -->
<g id="node1" class="node">
<title>USER</title>
<ellipse fill="#3a7dc9" stroke="#1e5b9a" cx="73.93" cy="-277" rx="57.93" ry="35.47"/>
<text xml:space="preserve" text-anchor="middle" x="73.93" y="-280.6" font-family="Helvetica Neue,Helvetica,Arial,sans-serif" font-size="12.00" fill="#ffffff">User</text>
<text xml:space="preserve" text-anchor="middle" x="73.93" y="-265.6" font-family="Helvetica Neue,Helvetica,Arial,sans-serif" font-size="12.00" fill="#ffffff">(Browser)</text>
</g>
<!-- FRONTEND -->
<g id="node2" class="node">
<title>FRONTEND</title>
<path fill="#ffffff" stroke="#3a7dc9" d="M419.8,-310.08C419.8,-310.08 276.37,-310.08 276.37,-310.08 270.37,-310.08 264.37,-304.08 264.37,-298.08 264.37,-298.08 264.37,-271.92 264.37,-271.92 264.37,-265.92 270.37,-259.92 276.37,-259.92 276.37,-259.92 419.8,-259.92 419.8,-259.92 425.8,-259.92 431.8,-265.92 431.8,-271.92 431.8,-271.92 431.8,-298.08 431.8,-298.08 431.8,-304.08 425.8,-310.08 419.8,-310.08"/>
<text xml:space="preserve" text-anchor="middle" x="348.08" y="-288.6" font-family="Helvetica Neue,Helvetica,Arial,sans-serif" font-size="12.00" fill="#1a3a5c">React Frontend</text>
<text xml:space="preserve" text-anchor="middle" x="348.08" y="-273.6" font-family="Helvetica Neue,Helvetica,Arial,sans-serif" font-size="12.00" fill="#1a3a5c">(CDN&#45;loaded, index.html)</text>
</g>
<!-- USER&#45;&gt;FRONTEND -->
<g id="edge6" class="edge">
<title>USER&#45;&gt;FRONTEND</title>
<path fill="none" stroke="#666688" stroke-width="1.6" d="M131.98,-278.68C167.11,-279.71 212.99,-281.06 253.35,-282.24"/>
<polygon fill="#666688" stroke="#666688" stroke-width="1.6" points="253.02,-285.21 261.6,-282.49 253.19,-279.26 253.02,-285.21"/>
<text xml:space="preserve" text-anchor="middle" x="198.12" y="-283.98" font-family="Helvetica Neue,Helvetica,Arial,sans-serif" font-size="10.00" fill="#333355">chat / view PDF</text>
</g>
<!-- FASTAPI -->
<g id="node4" class="node">
<title>FASTAPI</title>
<path fill="#ffffff" stroke="#7b5ea7" d="M757.98,-365.58C757.98,-365.58 616.05,-365.58 616.05,-365.58 610.05,-365.58 604.05,-359.58 604.05,-353.58 604.05,-353.58 604.05,-312.42 604.05,-312.42 604.05,-306.42 610.05,-300.42 616.05,-300.42 616.05,-300.42 757.98,-300.42 757.98,-300.42 763.98,-300.42 769.98,-306.42 769.98,-312.42 769.98,-312.42 769.98,-353.58 769.98,-353.58 769.98,-359.58 763.98,-365.58 757.98,-365.58"/>
<text xml:space="preserve" text-anchor="middle" x="687.01" y="-344.1" font-family="Helvetica Neue,Helvetica,Arial,sans-serif" font-size="12.00" fill="#3d1f6e">FastAPI Backend</text>
<text xml:space="preserve" text-anchor="middle" x="687.01" y="-329.1" font-family="Helvetica Neue,Helvetica,Arial,sans-serif" font-size="12.00" fill="#3d1f6e">POST /api/chat</text>
<text xml:space="preserve" text-anchor="middle" x="687.01" y="-314.1" font-family="Helvetica Neue,Helvetica,Arial,sans-serif" font-size="12.00" fill="#3d1f6e">GET /api/docs/{filename}</text>
</g>
<!-- FRONTEND&#45;&gt;FASTAPI -->
<g id="edge7" class="edge">
<title>FRONTEND&#45;&gt;FASTAPI</title>
<path fill="none" stroke="#666688" stroke-width="1.6" d="M431.94,-296.8C480.78,-303.76 542.7,-312.58 593.18,-319.77"/>
<polygon fill="#666688" stroke="#666688" stroke-width="1.6" points="592.54,-322.69 601.37,-320.94 593.38,-316.8 592.54,-322.69"/>
<text xml:space="preserve" text-anchor="middle" x="517.92" y="-330.6" font-family="Helvetica Neue,Helvetica,Arial,sans-serif" font-size="10.00" fill="#333355">POST /api/chat</text>
<text xml:space="preserve" text-anchor="middle" x="517.92" y="-318.6" font-family="Helvetica Neue,Helvetica,Arial,sans-serif" font-size="10.00" fill="#333355">GET /api/docs/{filename}</text>
</g>
<!-- HAIKU -->
<g id="node3" class="node">
<title>HAIKU</title>
<path fill="#ede0f8" stroke="#7b5ea7" d="M737.35,-594.08C737.35,-594.08 636.67,-594.08 636.67,-594.08 630.67,-594.08 624.67,-588.08 624.67,-582.08 624.67,-582.08 624.67,-555.92 624.67,-555.92 624.67,-549.92 630.67,-543.92 636.67,-543.92 636.67,-543.92 737.35,-543.92 737.35,-543.92 743.35,-543.92 749.35,-549.92 749.35,-555.92 749.35,-555.92 749.35,-582.08 749.35,-582.08 749.35,-588.08 743.35,-594.08 737.35,-594.08"/>
<text xml:space="preserve" text-anchor="middle" x="687.01" y="-572.6" font-family="Helvetica Neue,Helvetica,Arial,sans-serif" font-size="12.00" fill="#3d1f6e">Claude Haiku 4.5</text>
<text xml:space="preserve" text-anchor="middle" x="687.01" y="-557.6" font-family="Helvetica Neue,Helvetica,Arial,sans-serif" font-size="12.00" fill="#3d1f6e">(Query Classifier)</text>
</g>
<!-- HAIKU&#45;&gt;FASTAPI -->
<!-- VS -->
<g id="node6" class="node">
<title>VS</title>
<path fill="#ffffff" stroke="#d96a20" d="M1082.28,-495.58C1082.28,-495.58 976.35,-495.58 976.35,-495.58 970.35,-495.58 964.35,-489.58 964.35,-483.58 964.35,-483.58 964.35,-442.42 964.35,-442.42 964.35,-436.42 970.35,-430.42 976.35,-430.42 976.35,-430.42 1082.28,-430.42 1082.28,-430.42 1088.28,-430.42 1094.28,-436.42 1094.28,-442.42 1094.28,-442.42 1094.28,-483.58 1094.28,-483.58 1094.28,-489.58 1088.28,-495.58 1082.28,-495.58"/>
<text xml:space="preserve" text-anchor="middle" x="1029.32" y="-474.1" font-family="Helvetica Neue,Helvetica,Arial,sans-serif" font-size="12.00" fill="#7a3a10">Vector Search</text>
<text xml:space="preserve" text-anchor="middle" x="1029.32" y="-459.1" font-family="Helvetica Neue,Helvetica,Arial,sans-serif" font-size="12.00" fill="#7a3a10">Hybrid mode</text>
<text xml:space="preserve" text-anchor="middle" x="1029.32" y="-444.1" font-family="Helvetica Neue,Helvetica,Arial,sans-serif" font-size="12.00" fill="#7a3a10">(vector + keyword)</text>
</g>
<!-- HAIKU&#45;&gt;VS -->
<g id="edge9" class="edge">
<title>HAIKU&#45;&gt;VS</title>
<path fill="none" stroke="#666688" stroke-width="1.6" stroke-dasharray="5,2" d="M749.67,-554.7C812.01,-540.23 899.23,-520 899.23,-520 899.23,-520 925.48,-508.41 954.31,-495.68"/>
<polygon fill="#666688" stroke="#666688" stroke-width="1.6" points="955.36,-498.47 961.93,-492.31 952.96,-493.02 955.36,-498.47"/>
<text xml:space="preserve" text-anchor="middle" x="850.1" y="-556.07" font-family="Helvetica Neue,Helvetica,Arial,sans-serif" font-size="10.00" fill="#333355">semantic_query</text>
<text xml:space="preserve" text-anchor="middle" x="850.1" y="-544.07" font-family="Helvetica Neue,Helvetica,Arial,sans-serif" font-size="10.00" fill="#333355">+ keyword_terms</text>
</g>
<!-- SQLWH -->
<g id="node7" class="node">
<title>SQLWH</title>
<path fill="#ffffff" stroke="#d96a20" d="M1089.03,-387.58C1089.03,-387.58 969.6,-387.58 969.6,-387.58 963.6,-387.58 957.6,-381.58 957.6,-375.58 957.6,-375.58 957.6,-334.42 957.6,-334.42 957.6,-328.42 963.6,-322.42 969.6,-322.42 969.6,-322.42 1089.03,-322.42 1089.03,-322.42 1095.03,-322.42 1101.03,-328.42 1101.03,-334.42 1101.03,-334.42 1101.03,-375.58 1101.03,-375.58 1101.03,-381.58 1095.03,-387.58 1089.03,-387.58"/>
<text xml:space="preserve" text-anchor="middle" x="1029.32" y="-366.1" font-family="Helvetica Neue,Helvetica,Arial,sans-serif" font-size="12.00" fill="#7a3a10">SQL Warehouse</text>
<text xml:space="preserve" text-anchor="middle" x="1029.32" y="-351.1" font-family="Helvetica Neue,Helvetica,Arial,sans-serif" font-size="12.00" fill="#7a3a10">ILIKE full&#45;text search</text>
<text xml:space="preserve" text-anchor="middle" x="1029.32" y="-336.1" font-family="Helvetica Neue,Helvetica,Arial,sans-serif" font-size="12.00" fill="#7a3a10">(plain_text)</text>
</g>
<!-- HAIKU&#45;&gt;SQLWH -->
<g id="edge10" class="edge">
<title>HAIKU&#45;&gt;SQLWH</title>
<path fill="none" stroke="#666688" stroke-width="1.6" stroke-dasharray="5,2" d="M742.18,-543.44C764.62,-532.86 785.51,-523 785.51,-523 785.51,-523 800.98,-505 800.98,-505 800.98,-505 899.23,-460 899.23,-460 899.23,-460 922.23,-409 922.23,-409 922.23,-409 936.17,-401.9 953.95,-392.85"/>
<polygon fill="#666688" stroke="#666688" stroke-width="1.6" points="955.16,-395.57 961.39,-389.07 952.46,-390.27 955.16,-395.57"/>
<text xml:space="preserve" text-anchor="middle" x="850.1" y="-507.5" font-family="Helvetica Neue,Helvetica,Arial,sans-serif" font-size="10.00" fill="#333355">keyword_terms (ILIKE)</text>
</g>
<!-- MLFLOW -->
<g id="node9" class="node">
<title>MLFLOW</title>
<path fill="#ffffff" stroke="#2a8050" d="M1116.41,-701.58C1116.41,-701.58 942.23,-701.58 942.23,-701.58 936.23,-701.58 930.23,-695.58 930.23,-689.58 930.23,-689.58 930.23,-648.42 930.23,-648.42 930.23,-642.42 936.23,-636.42 942.23,-636.42 942.23,-636.42 1116.41,-636.42 1116.41,-636.42 1122.41,-636.42 1128.41,-642.42 1128.41,-648.42 1128.41,-648.42 1128.41,-689.58 1128.41,-689.58 1128.41,-695.58 1122.41,-701.58 1116.41,-701.58"/>
<text xml:space="preserve" text-anchor="middle" x="1029.32" y="-680.1" font-family="Helvetica Neue,Helvetica,Arial,sans-serif" font-size="12.00" fill="#1a5c35">MLflow Tracing</text>
<text xml:space="preserve" text-anchor="middle" x="1029.32" y="-665.1" font-family="Helvetica Neue,Helvetica,Arial,sans-serif" font-size="12.00" fill="#1a5c35">experiment: /Shared/doc&#45;finder</text>
<text xml:space="preserve" text-anchor="middle" x="1029.32" y="-650.1" font-family="Helvetica Neue,Helvetica,Arial,sans-serif" font-size="12.00" fill="#1a5c35">(all agent calls)</text>
</g>
<!-- HAIKU&#45;&gt;MLFLOW -->
<g id="edge16" class="edge">
<title>HAIKU&#45;&gt;MLFLOW</title>
<path fill="none" stroke="#2a8050" stroke-width="1.4" stroke-dasharray="1,5" d="M722.83,-594.58C756.02,-618.97 800.98,-652 800.98,-652 800.98,-652 861.05,-656.49 919.44,-660.86"/>
<polygon fill="#2a8050" stroke="#2a8050" stroke-width="1.4" points="919.11,-663.82 927.81,-661.48 919.56,-657.88 919.11,-663.82"/>
<text xml:space="preserve" text-anchor="middle" x="850.1" y="-661.48" font-family="Helvetica Neue,Helvetica,Arial,sans-serif" font-size="10.00" fill="#2a8050">trace</text>
</g>
<!-- FASTAPI&#45;&gt;HAIKU -->
<g id="edge8" class="edge">
<title>FASTAPI&#45;&gt;HAIKU</title>
<path fill="none" stroke="#666688" stroke-width="1.6" d="M624.67,-366.06C624.67,-410.03 624.67,-487.48 624.67,-532.92"/>
<polygon fill="#666688" stroke="#666688" stroke-width="1.6" points="621.7,-532.83 624.67,-541.33 627.65,-532.83 621.7,-532.83"/>
<text xml:space="preserve" text-anchor="middle" x="687.01" y="-565.5" font-family="Helvetica Neue,Helvetica,Arial,sans-serif" font-size="10.00" fill="#333355">user query</text>
</g>
<!-- SONNET -->
<g id="node5" class="node">
<title>SONNET</title>
<path fill="#ede0f8" stroke="#7b5ea7" d="M749.35,-501.08C749.35,-501.08 624.67,-501.08 624.67,-501.08 618.67,-501.08 612.67,-495.08 612.67,-489.08 612.67,-489.08 612.67,-462.92 612.67,-462.92 612.67,-456.92 618.67,-450.92 624.67,-450.92 624.67,-450.92 749.35,-450.92 749.35,-450.92 755.35,-450.92 761.35,-456.92 761.35,-462.92 761.35,-462.92 761.35,-489.08 761.35,-489.08 761.35,-495.08 755.35,-501.08 749.35,-501.08"/>
<text xml:space="preserve" text-anchor="middle" x="687.01" y="-479.6" font-family="Helvetica Neue,Helvetica,Arial,sans-serif" font-size="12.00" fill="#3d1f6e">Claude Sonnet 4.6</text>
<text xml:space="preserve" text-anchor="middle" x="687.01" y="-464.6" font-family="Helvetica Neue,Helvetica,Arial,sans-serif" font-size="12.00" fill="#3d1f6e">(Response Generator)</text>
</g>
<!-- FASTAPI&#45;&gt;SONNET -->
<!-- UCVOL -->
<g id="node8" class="node">
<title>UCVOL</title>
<path fill="#ffffff" stroke="#d96a20" d="M1075.91,-273.21C1075.91,-276.67 1055.02,-279.49 1029.32,-279.49 1003.61,-279.49 982.73,-276.67 982.73,-273.21 982.73,-273.21 982.73,-216.78 982.73,-216.78 982.73,-213.33 1003.61,-210.51 1029.32,-210.51 1055.02,-210.51 1075.91,-213.33 1075.91,-216.78 1075.91,-216.78 1075.91,-273.21 1075.91,-273.21"/>
<path fill="none" stroke="#d96a20" d="M1075.91,-273.21C1075.91,-269.76 1055.02,-266.94 1029.32,-266.94 1003.61,-266.94 982.73,-269.76 982.73,-273.21"/>
<text xml:space="preserve" text-anchor="middle" x="1029.32" y="-248.6" font-family="Helvetica Neue,Helvetica,Arial,sans-serif" font-size="12.00" fill="#7a3a10">UC Volume</text>
<text xml:space="preserve" text-anchor="middle" x="1029.32" y="-233.6" font-family="Helvetica Neue,Helvetica,Arial,sans-serif" font-size="12.00" fill="#7a3a10">(PDF files)</text>
</g>
<!-- FASTAPI&#45;&gt;UCVOL -->
<g id="edge14" class="edge">
<title>FASTAPI&#45;&gt;UCVOL</title>
<path fill="none" stroke="#666688" stroke-width="1.6" d="M770.39,-311.7C832.85,-295.55 917.04,-273.77 971.99,-259.57"/>
<polygon fill="#666688" stroke="#666688" stroke-width="1.6" points="972.4,-262.53 979.89,-257.52 970.91,-256.77 972.4,-262.53"/>
<text xml:space="preserve" text-anchor="middle" x="850.1" y="-304.52" font-family="Helvetica Neue,Helvetica,Arial,sans-serif" font-size="10.00" fill="#333355">serve PDF</text>
</g>
<!-- SONNET&#45;&gt;FASTAPI -->
<g id="edge13" class="edge">
<title>SONNET&#45;&gt;FASTAPI</title>
<path fill="none" stroke="#666688" stroke-width="1.6" d="M687.01,-450.47C687.01,-429.97 687.01,-400.7 687.01,-376.51"/>
<polygon fill="#666688" stroke="#666688" stroke-width="1.6" points="689.99,-376.73 687.01,-368.23 684.04,-376.73 689.99,-376.73"/>
<text xml:space="preserve" text-anchor="middle" x="678.01" y="-404.75" font-family="Helvetica Neue,Helvetica,Arial,sans-serif" font-size="10.00" fill="#333355">answer + doc list</text>
</g>
<!-- SONNET&#45;&gt;MLFLOW -->
<g id="edge17" class="edge">
<title>SONNET&#45;&gt;MLFLOW</title>
<path fill="none" stroke="#2a8050" stroke-width="1.4" stroke-dasharray="1,5" d="M742.18,-501.56C764.62,-512.14 785.51,-522 785.51,-522 785.51,-522 800.98,-576 800.98,-576 800.98,-576 874.44,-606.05 937.85,-631.99"/>
<polygon fill="#2a8050" stroke="#2a8050" stroke-width="1.4" points="936.57,-634.68 945.56,-635.15 938.82,-629.18 936.57,-634.68"/>
<text xml:space="preserve" text-anchor="middle" x="850.1" y="-616.67" font-family="Helvetica Neue,Helvetica,Arial,sans-serif" font-size="10.00" fill="#2a8050">trace</text>
</g>
<!-- VS&#45;&gt;SONNET -->
<g id="edge11" class="edge">
<title>VS&#45;&gt;SONNET</title>
<path fill="none" stroke="#666688" stroke-width="1.6" d="M964.15,-454.05C931.75,-449.54 899.23,-445 899.23,-445 899.23,-445 800.98,-445 800.98,-445 800.98,-445 788.57,-448.41 771.97,-452.96"/>
<polygon fill="#666688" stroke="#666688" stroke-width="1.6" points="771.53,-450 764.12,-455.11 773.1,-455.73 771.53,-450"/>
<text xml:space="preserve" text-anchor="middle" x="850.1" y="-447.5" font-family="Helvetica Neue,Helvetica,Arial,sans-serif" font-size="10.00" fill="#333355">results</text>
</g>
<!-- SQLWH&#45;&gt;SONNET -->
<g id="edge12" class="edge">
<title>SQLWH&#45;&gt;SONNET</title>
<path fill="none" stroke="#666688" stroke-width="1.6" d="M957.32,-376.24C890.62,-396.19 800.98,-423 800.98,-423 800.98,-423 777.72,-433.91 752.31,-445.83"/>
<polygon fill="#666688" stroke="#666688" stroke-width="1.6" points="751.13,-443.1 744.7,-449.4 753.66,-448.49 751.13,-443.1"/>
<text xml:space="preserve" text-anchor="middle" x="850.1" y="-425.5" font-family="Helvetica Neue,Helvetica,Arial,sans-serif" font-size="10.00" fill="#333355">results</text>
</g>
<!-- UCVOL&#45;&gt;FRONTEND -->
<g id="edge15" class="edge">
<title>UCVOL&#45;&gt;FRONTEND</title>
<path fill="none" stroke="#666688" stroke-width="1.6" d="M982.6,-247.6C870.21,-254.01 589.51,-270 589.51,-270 589.51,-270 510.35,-274.94 442.88,-279.15"/>
<polygon fill="#666688" stroke="#666688" stroke-width="1.6" points="442.88,-276.17 434.58,-279.67 443.25,-282.11 442.88,-276.17"/>
<text xml:space="preserve" text-anchor="middle" x="687.01" y="-272.5" font-family="Helvetica Neue,Helvetica,Arial,sans-serif" font-size="10.00" fill="#333355">PDF bytes</text>
</g>
<!-- AIPARSE -->
<g id="node11" class="node">
<title>AIPARSE</title>
<path fill="#ffffff" stroke="#9a7030" d="M747.1,-66.08C747.1,-66.08 626.92,-66.08 626.92,-66.08 620.92,-66.08 614.92,-60.08 614.92,-54.08 614.92,-54.08 614.92,-27.92 614.92,-27.92 614.92,-21.92 620.92,-15.92 626.92,-15.92 626.92,-15.92 747.1,-15.92 747.1,-15.92 753.1,-15.92 759.1,-21.92 759.1,-27.92 759.1,-27.92 759.1,-54.08 759.1,-54.08 759.1,-60.08 753.1,-66.08 747.1,-66.08"/>
<text xml:space="preserve" text-anchor="middle" x="687.01" y="-44.6" font-family="Helvetica Neue,Helvetica,Arial,sans-serif" font-size="12.00" fill="#6b4a10">ai_parse_document()</text>
<text xml:space="preserve" text-anchor="middle" x="687.01" y="-29.6" font-family="Helvetica Neue,Helvetica,Arial,sans-serif" font-size="12.00" fill="#6b4a10">(SQL Warehouse)</text>
</g>
<!-- UCVOL&#45;&gt;AIPARSE -->
<g id="edge19" class="edge">
<title>UCVOL&#45;&gt;AIPARSE</title>
<path fill="none" stroke="#666688" stroke-width="1.6" d="M982.4,-225.96C953.73,-214.07 922.23,-201 922.23,-201 922.23,-201 899.23,-150 899.23,-150 899.23,-150 785.51,-87 785.51,-87 785.51,-87 770.36,-79.85 752.01,-71.19"/>
<polygon fill="#666688" stroke="#666688" stroke-width="1.6" points="753.33,-68.53 744.37,-67.59 750.79,-73.91 753.33,-68.53"/>
<text xml:space="preserve" text-anchor="middle" x="850.1" y="-152.5" font-family="Helvetica Neue,Helvetica,Arial,sans-serif" font-size="10.00" fill="#333355">parse PDF</text>
</g>
<!-- RAWDOCS -->
<g id="node10" class="node">
<title>RAWDOCS</title>
<polygon fill="#ffffff" stroke="#9a7030" points="736.6,-159.08 733.6,-163.08 712.6,-163.08 709.6,-159.08 637.42,-159.08 637.42,-108.92 736.6,-108.92 736.6,-159.08"/>
<text xml:space="preserve" text-anchor="middle" x="687.01" y="-137.6" font-family="Helvetica Neue,Helvetica,Arial,sans-serif" font-size="12.00" fill="#6b4a10">raw_docs/</text>
<text xml:space="preserve" text-anchor="middle" x="687.01" y="-122.6" font-family="Helvetica Neue,Helvetica,Arial,sans-serif" font-size="12.00" fill="#6b4a10">(PDF source)</text>
</g>
<!-- RAWDOCS&#45;&gt;UCVOL -->
<g id="edge18" class="edge">
<title>RAWDOCS&#45;&gt;UCVOL</title>
<path fill="none" stroke="#666688" stroke-width="1.6" d="M737,-149.54C799.39,-169.33 899.23,-201 899.23,-201 899.23,-201 937.42,-214.02 972.26,-225.89"/>
<polygon fill="#666688" stroke="#666688" stroke-width="1.6" points="971.14,-228.66 980.15,-228.58 973.06,-223.02 971.14,-228.66"/>
<text xml:space="preserve" text-anchor="middle" x="850.1" y="-203.5" font-family="Helvetica Neue,Helvetica,Arial,sans-serif" font-size="10.00" fill="#333355">upload to volume</text>
</g>
<!-- GEMINI -->
<g id="node12" class="node">
<title>GEMINI</title>
<path fill="#fff3d6" stroke="#9a7030" d="M1085.66,-106.58C1085.66,-106.58 972.98,-106.58 972.98,-106.58 966.98,-106.58 960.98,-100.58 960.98,-94.58 960.98,-94.58 960.98,-53.42 960.98,-53.42 960.98,-47.42 966.98,-41.42 972.98,-41.42 972.98,-41.42 1085.66,-41.42 1085.66,-41.42 1091.66,-41.42 1097.66,-47.42 1097.66,-53.42 1097.66,-53.42 1097.66,-94.58 1097.66,-94.58 1097.66,-100.58 1091.66,-106.58 1085.66,-106.58"/>
<text xml:space="preserve" text-anchor="middle" x="1029.32" y="-85.1" font-family="Helvetica Neue,Helvetica,Arial,sans-serif" font-size="12.00" fill="#6b4a10">Gemini 2.5 Pro</text>
<text xml:space="preserve" text-anchor="middle" x="1029.32" y="-70.1" font-family="Helvetica Neue,Helvetica,Arial,sans-serif" font-size="12.00" fill="#6b4a10">(Summarization)</text>
<text xml:space="preserve" text-anchor="middle" x="1029.32" y="-55.1" font-family="Helvetica Neue,Helvetica,Arial,sans-serif" font-size="12.00" fill="#6b4a10">via SQL Warehouse</text>
</g>
<!-- AIPARSE&#45;&gt;GEMINI -->
<g id="edge20" class="edge">
<title>AIPARSE&#45;&gt;GEMINI</title>
<path fill="none" stroke="#666688" stroke-width="1.6" d="M759.35,-47.92C815.01,-53.32 892.26,-60.81 949.7,-66.38"/>
<polygon fill="#666688" stroke="#666688" stroke-width="1.6" points="949.39,-69.34 958.14,-67.19 949.97,-63.41 949.39,-69.34"/>
<text xml:space="preserve" text-anchor="middle" x="850.1" y="-63.93" font-family="Helvetica Neue,Helvetica,Arial,sans-serif" font-size="10.00" fill="#333355">raw text</text>
</g>
<!-- DELTATABLE -->
<g id="node13" class="node">
<title>DELTATABLE</title>
<path fill="#ffffff" stroke="#9a7030" d="M1356.34,-132.22C1356.34,-135.67 1329.91,-138.49 1297.37,-138.49 1264.84,-138.49 1238.41,-135.67 1238.41,-132.22 1238.41,-132.22 1238.41,-75.78 1238.41,-75.78 1238.41,-72.33 1264.84,-69.52 1297.37,-69.52 1329.91,-69.52 1356.34,-72.33 1356.34,-75.78 1356.34,-75.78 1356.34,-132.22 1356.34,-132.22"/>
<path fill="none" stroke="#9a7030" d="M1356.34,-132.22C1356.34,-128.76 1329.91,-125.94 1297.37,-125.94 1264.84,-125.94 1238.41,-128.76 1238.41,-132.22"/>
<text xml:space="preserve" text-anchor="middle" x="1297.37" y="-107.6" font-family="Helvetica Neue,Helvetica,Arial,sans-serif" font-size="12.00" fill="#6b4a10">doc_summaries</text>
<text xml:space="preserve" text-anchor="middle" x="1297.37" y="-92.6" font-family="Helvetica Neue,Helvetica,Arial,sans-serif" font-size="12.00" fill="#6b4a10">(Delta Table)</text>
</g>
<!-- GEMINI&#45;&gt;DELTATABLE -->
<g id="edge21" class="edge">
<title>GEMINI&#45;&gt;DELTATABLE</title>
<path fill="none" stroke="#666688" stroke-width="1.6" d="M1098.14,-81.65C1137.77,-86.12 1187.65,-91.74 1227.47,-96.23"/>
<polygon fill="#666688" stroke="#666688" stroke-width="1.6" points="1226.96,-99.17 1235.74,-97.16 1227.63,-93.25 1226.96,-99.17"/>
<text xml:space="preserve" text-anchor="middle" x="1183.41" y="-95.94" font-family="Helvetica Neue,Helvetica,Arial,sans-serif" font-size="10.00" fill="#333355">summaries</text>
</g>
<!-- VSINDEX -->
<g id="node14" class="node">
<title>VSINDEX</title>
<path fill="#fff3d6" stroke="#9a7030" d="M1619.52,-157.58C1619.52,-157.58 1478.34,-157.58 1478.34,-157.58 1472.34,-157.58 1466.34,-151.58 1466.34,-145.58 1466.34,-145.58 1466.34,-104.42 1466.34,-104.42 1466.34,-98.42 1472.34,-92.42 1478.34,-92.42 1478.34,-92.42 1619.52,-92.42 1619.52,-92.42 1625.52,-92.42 1631.52,-98.42 1631.52,-104.42 1631.52,-104.42 1631.52,-145.58 1631.52,-145.58 1631.52,-151.58 1625.52,-157.58 1619.52,-157.58"/>
<text xml:space="preserve" text-anchor="middle" x="1548.93" y="-136.1" font-family="Helvetica Neue,Helvetica,Arial,sans-serif" font-size="12.00" fill="#6b4a10">Vector Search Index</text>
<text xml:space="preserve" text-anchor="middle" x="1548.93" y="-121.1" font-family="Helvetica Neue,Helvetica,Arial,sans-serif" font-size="12.00" fill="#6b4a10">Delta Sync</text>
<text xml:space="preserve" text-anchor="middle" x="1548.93" y="-106.1" font-family="Helvetica Neue,Helvetica,Arial,sans-serif" font-size="12.00" fill="#6b4a10">(databricks&#45;gte&#45;large&#45;en)</text>
</g>
<!-- DELTATABLE&#45;&gt;VSINDEX -->
<g id="edge22" class="edge">
<title>DELTATABLE&#45;&gt;VSINDEX</title>
<path fill="none" stroke="#666688" stroke-width="1.6" d="M1356.57,-108.9C1385.94,-111.37 1422.27,-114.43 1455.36,-117.21"/>
<polygon fill="#666688" stroke="#666688" stroke-width="1.6" points="1454.84,-120.15 1463.56,-117.9 1455.34,-114.22 1454.84,-120.15"/>
<text xml:space="preserve" text-anchor="middle" x="1411.34" y="-117.63" font-family="Helvetica Neue,Helvetica,Arial,sans-serif" font-size="10.00" fill="#333355">Delta Sync</text>
</g>
<!-- VSINDEX&#45;&gt;VS -->
<g id="edge23" class="edge">
<title>VSINDEX&#45;&gt;VS</title>
<path fill="none" stroke="#666688" stroke-width="1.6" d="M1500.32,-157.86C1391.99,-232.61 1136.41,-409 1136.41,-409 1136.41,-409 1122.33,-416.16 1104.43,-425.27"/>
<polygon fill="#666688" stroke="#666688" stroke-width="1.6" points="1103.17,-422.58 1096.94,-429.09 1105.86,-427.88 1103.17,-422.58"/>
<text xml:space="preserve" text-anchor="middle" x="1297.37" y="-349.87" font-family="Helvetica Neue,Helvetica,Arial,sans-serif" font-size="10.00" fill="#333355">serves index</text>
<text xml:space="preserve" text-anchor="middle" x="1297.37" y="-337.87" font-family="Helvetica Neue,Helvetica,Arial,sans-serif" font-size="10.00" fill="#333355">(live queries)</text>
</g>
<!-- L1a -->
<g id="node15" class="node">
<title>L1a</title>
<ellipse fill="#f8f8f8" stroke="#f8f8f8" cx="73.93" cy="-422" rx="0.36" ry="0.36"/>
</g>
<!-- L1b -->
<g id="node16" class="node">
<title>L1b</title>
<path fill="#f8f8f8" stroke="none" d="M370.95,-437.33C370.95,-437.33 325.21,-437.33 325.21,-437.33 320.1,-437.33 314.99,-432.22 314.99,-427.11 314.99,-427.11 314.99,-416.89 314.99,-416.89 314.99,-411.78 320.1,-406.67 325.21,-406.67 325.21,-406.67 370.95,-406.67 370.95,-406.67 376.06,-406.67 381.17,-411.78 381.17,-416.89 381.17,-416.89 381.17,-427.11 381.17,-427.11 381.17,-432.22 376.06,-437.33 370.95,-437.33"/>
<text xml:space="preserve" text-anchor="middle" x="348.08" y="-419.65" font-family="Helvetica Neue,Helvetica,Arial,sans-serif" font-size="8.00" fill="#555555">Data flow</text>
</g>
<!-- L1a&#45;&gt;L1b -->
<g id="edge3" class="edge">
<title>L1a&#45;&gt;L1b</title>
<path fill="none" stroke="#666688" stroke-width="1.2" d="M74.98,-422C78.16,-422 233.3,-422 307.87,-422"/>
<polygon fill="#666688" stroke="#666688" stroke-width="1.2" points="307.44,-424.1 313.44,-422 307.44,-419.9 307.44,-424.1"/>
</g>
<!-- L2a -->
<g id="node17" class="node">
<title>L2a</title>
<ellipse fill="#f8f8f8" stroke="#f8f8f8" cx="73.93" cy="-496" rx="0.36" ry="0.36"/>
</g>
<!-- L2b -->
<g id="node18" class="node">
<title>L2b</title>
<path fill="#f8f8f8" stroke="none" d="M379.95,-511.33C379.95,-511.33 316.21,-511.33 316.21,-511.33 311.1,-511.33 305.99,-506.22 305.99,-501.11 305.99,-501.11 305.99,-490.89 305.99,-490.89 305.99,-485.78 311.1,-480.67 316.21,-480.67 316.21,-480.67 379.95,-480.67 379.95,-480.67 385.06,-480.67 390.17,-485.78 390.17,-490.89 390.17,-490.89 390.17,-501.11 390.17,-501.11 390.17,-506.22 385.06,-511.33 379.95,-511.33"/>
<text xml:space="preserve" text-anchor="middle" x="348.08" y="-493.65" font-family="Helvetica Neue,Helvetica,Arial,sans-serif" font-size="8.00" fill="#555555">Parallel search</text>
</g>
<!-- L2a&#45;&gt;L2b -->
<g id="edge4" class="edge">
<title>L2a&#45;&gt;L2b</title>
<path fill="none" stroke="#666688" stroke-width="1.2" stroke-dasharray="5,2" d="M74.98,-496C78.03,-496 220.82,-496 298.29,-496"/>
<polygon fill="#666688" stroke="#666688" stroke-width="1.2" points="298.22,-498.1 304.22,-496 298.22,-493.9 298.22,-498.1"/>
</g>
<!-- L3a -->
<g id="node19" class="node">
<title>L3a</title>
<ellipse fill="#f8f8f8" stroke="#f8f8f8" cx="73.93" cy="-570" rx="0.36" ry="0.36"/>
</g>
<!-- L3b -->
<g id="node20" class="node">
<title>L3b</title>
<path fill="#f8f8f8" stroke="none" d="M377.33,-585.33C377.33,-585.33 318.84,-585.33 318.84,-585.33 313.73,-585.33 308.62,-580.22 308.62,-575.11 308.62,-575.11 308.62,-564.89 308.62,-564.89 308.62,-559.78 313.73,-554.67 318.84,-554.67 318.84,-554.67 377.33,-554.67 377.33,-554.67 382.44,-554.67 387.55,-559.78 387.55,-564.89 387.55,-564.89 387.55,-575.11 387.55,-575.11 387.55,-580.22 382.44,-585.33 377.33,-585.33"/>
<text xml:space="preserve" text-anchor="middle" x="348.08" y="-567.65" font-family="Helvetica Neue,Helvetica,Arial,sans-serif" font-size="8.00" fill="#555555">MLflow trace</text>
</g>
<!-- L3a&#45;&gt;L3b -->
<g id="edge5" class="edge">
<title>L3a&#45;&gt;L3b</title>
<path fill="none" stroke="#2a8050" stroke-width="1.2" stroke-dasharray="1,5" d="M74.98,-570C78.07,-570 224.17,-570 300.98,-570"/>
<polygon fill="#2a8050" stroke="#2a8050" stroke-width="1.2" points="300.82,-572.1 306.82,-570 300.82,-567.9 300.82,-572.1"/>
</g>
</g>
</svg>
