<?xml version="1.0" encoding="UTF-8" standalone="no"?>
<!DOCTYPE svg PUBLIC "-//W3C//DTD SVG 1.1//EN"
 "http://www.w3.org/Graphics/SVG/1.1/DTD/svg11.dtd">
<!-- Generated by graphviz version 14.1.3 (20260303.0454)
 -->
<!-- Title: DocFinder Pages: 1 -->
<svg width="1762pt" height="872pt"
 viewBox="0.00 0.00 1762.00 872.00" xmlns="http://www.w3.org/2000/svg" xmlns:xlink="http://www.w3.org/1999/xlink">
<g id="graph0" class="graph" transform="scale(1 1) rotate(0) translate(50.4 821.15)">
<title>DocFinder</title>
<polygon fill="#ffffff" stroke="none" points="-50.4,50.4 -50.4,-821.15 1711.99,-821.15 1711.99,50.4 -50.4,50.4"/>
<text xml:space="preserve" text-anchor="middle" x="830.79" y="-749.65" font-family="Helvetica Neue,Helvetica,Arial,sans-serif" font-size="18.00" fill="#1a1a2e">Doc Finder — System Architecture</text>
<g id="clust1" class="cluster">
<title>cluster_ui</title>
<path fill="#eaf3fb" stroke="#3a7dc9" stroke-width="2.5" d="M20,-234C20,-234 427.8,-234 427.8,-234 433.8,-234 439.8,-240 439.8,-246 439.8,-246 439.8,-332 439.8,-332 439.8,-338 433.8,-344 427.8,-344 427.8,-344 20,-344 20,-344 14,-344 8,-338 8,-332 8,-332 8,-246 8,-246 8,-240 14,-234 20,-234"/>
<text xml:space="preserve" text-anchor="middle" x="223.9" y="-327.65" font-family="Helvetica Neue,Helvetica,Arial,sans-serif" font-size="13.00" fill="#1a3a5c">User Interface</text>
</g>
<g id="clust2" class="cluster">
<title>cluster_agent</title>
<path fill="#f3eef9" stroke="#7b5ea7" stroke-width="2.5" d="M608.05,-292C608.05,-292 780.05,-292 780.05,-292 786.05,-292 792.05,-298 792.05,-304 792.05,-304 792.05,-614 792.05,-614 792.05,-620 786.05,-626 780.05,-626 780.05,-626 608.05,-626 608.05,-626 602.05,-626 596.05,-620 596.05,-614 596.05,-614 596.05,-304 596.05,-304 596.05,-298 602.05,-292 608.05,-292"/>
<text xml:space="preserve" text-anchor="middle" x="694.05" y="-609.65" font-family="Helvetica Neue,Helvetica,Arial,sans-serif" font-size="13.00" fill="#3d1f6e">Search Agent &#160;(Databricks App)</text>
</g>
<g id="clust4" class="cluster">
<title>cluster_data</title>
<path fill="#fdf3eb" stroke="#d96a20" stroke-width="2.5" d="M962.39,-203C962.39,-203 1125.39,-203 1125.39,-203 1131.39,-203 1137.39,-209 1137.39,-215 1137.39,-215 1137.39,-515 1137.39,-515 1137.39,-521 1131.39,-527 1125.39,-527 1125.39,-527 962.39,-527 962.39,-527 956.39,-527 950.39,-521 950.39,-515 950.39,-515 950.39,-215 950.39,-215 950.39,-209 956.39,-203 962.39,-203"/>
<text xml:space="preserve" text-anchor="middle" x="1043.89" y="-510.65" font-family="Helvetica Neue,Helvetica,Arial,sans-serif" font-size="13.00" fill="#7a3a10">Data Sources &#160;(Unity Catalog)</text>
</g>
<g id="clust5" class="cluster">
<title>cluster_obs</title>
<path fill="#e8f5ee" stroke="#2a8050" stroke-width="2.5" d="M948.3,-628C948.3,-628 1138.48,-628 1138.48,-628 1144.48,-628 1150.48,-634 1150.48,-640 1150.48,-640 1150.48,-721 1150.48,-721 1150.48,-727 1144.48,-733 1138.48,-733 1138.48,-733 948.3,-733 948.3,-733 942.3,-733 936.3,-727 936.3,-721 936.3,-721 936.3,-640 936.3,-640 936.3,-634 942.3,-628 948.3,-628"/>
<text xml:space="preserve" text-anchor="middle" x="1043.39" y="-716.65" font-family="Helvetica Neue,Helvetica,Arial,sans-serif" font-size="13.00" fill="#1a5c35">Observability</text>
</g>
<g id="clust6" class="cluster">
<title>cluster_pipeline</title>
<path fill="#fdf7ed" stroke="#9a7030" stroke-width="2.5" d="M625.46,-8C625.46,-8 1641.59,-8 1641.59,-8 1647.59,-8 1653.59,-14 1653.59,-20 1653.59,-20 1653.59,-179 1653.59,-179 1653.59,-185 1647.59,-191 1641.59,-191 1641.59,-191 625.46,-191 625.46,-191 619.46,-191 613.46,-185 613.46,-179 613.46,-179 613.46,-20 613.46,-20 613.46,-14 619.46,-8 625.46,-8"/>
<text xml:space="preserve" text-anchor="middle" x="1133.52" y="-174.65" font-family="Helvetica Neue,Helvetica,Arial,sans-serif" font-size="13.00" fill="#6b4a10">Data Pipeline &#160;(DABs Job)</text>
</g>
<g id="clust7" class="cluster">
<title>cluster_legend</title>
<path fill="#f8f8f8" stroke="#aaaaaa" d="M77.57,-399C77.57,-399 386.17,-399 386.17,-399 392.17,-399 398.17,-405 398.17,-411 398.17,-411 398.17,-601 398.17,-601 398.17,-607 392.17,-613 386.17,-613 386.17,-613 77.57,-613 77.57,-613 71.57,-613 65.57,-607 65.57,-601 65.57,-601 65.57,-411 65.57,-411 65.57,-405 71.57,-399 77.57,-399"/>
<text xml:space="preserve" text-anchor="middle" x="231.87" y="-600.45" font-family="Helvetica Neue,Helvetica,Arial,sans-serif" font-size="9.00" fill="#555555">Legend</text>
</g>
<!-- USER -->
<g id="node1" class="node">
<title>USER</title>
<ellipse fill="#3a7dc9" stroke="#1e5b9a" cx="73.93" cy="-277" rx="57.93" ry="35.47"/>
<text xml:space="preserve" text-anchor="middle" x="73.93" y="-280.6" font-family="Helvetica Neue,Helvetica,Arial,sans-serif" font-size="12.00" fill="#ffffff">User</text>
<text xml:space="preserve" text-anchor="middle" x="73.93" y="-265.6" font-family="Helvetica Neue,Helvetica,Arial,sans-serif" font-size="12.00" fill="#ffffff">(Browser)</text>
</g>
<!-- FRONTEND -->
<g id="node2" class="node">
<title>FRONTEND</title>
<path fill="#ffffff" stroke="#3a7dc9" d="M419.8,-310.08C419.8,-310.08 276.37,-310.08 276.37,-310.08 270.37,-310.08 264.37,-304.08 264.37,-298.08 264.37,-298.08 264.37,-271.92 264.37,-271.92 264.37,-265.92 270.37,-259.92 276.37,-259.92 276.37,-259.92 419.8,-259.92 419.8,-259.92 425.8,-259.92 431.8,-265.92 431.8,-271.92 431.8,-271.92 431.8,-298.08 431.8,-298.08 431.8,-304.08 425.8,-310.08 419.8,-310.08"/>
<text xml:space="preserve" text-anchor="middle" x="348.08" y="-288.6" font-family="Helvetica Neue,Helvetica,Arial,sans-serif" font-size="12.00" fill="#1a3a5c">React Frontend</text>
<text xml:space="preserve" text-anchor="middle" x="348.08" y="-273.6" font-family="Helvetica Neue,Helvetica,Arial,sans-serif" font-size="12.00" fill="#1a3a5c">(CDN&#45;loaded, index.html)</text>
</g>
<!-- USER&#45;&gt;FRONTEND -->
<g id="edge6" class="edge">
<title>USER&#45;&gt;FRONTEND</title>
<path fill="none" stroke="#666688" stroke-width="1.6" d="M131.98,-278.68C167.11,-279.71 212.99,-281.06 253.35,-282.24"/>
<polygon fill="#666688" stroke="#666688" stroke-width="1.6" points="253.02,-285.21 261.6,-282.49 253.19,-279.26 253.02,-285.21"/>
<text xml:space="preserve" text-anchor="middle" x="198.12" y="-283.98" font-family="Helvetica Neue,Helvetica,Arial,sans-serif" font-size="10.00" fill="#333355">chat / view PDF</text>
</g>
<!-- FASTAPI -->
<g id="node4" class="node">
<title>FASTAPI</title>
<path fill="#ffffff" stroke="#7b5ea7" d="M764.51,-365.58C764.51,-365.58 622.58,-365.58 622.58,-365.58 616.58,-365.58 610.58,-359.58 610.58,-353.58 610.58,-353.58 610.58,-312.42 610.58,-312.42 610.58,-306.42 616.58,-300.42 622.58,-300.42 622.58,-300.42 764.51,-300.42 764.51,-300.42 770.51,-300.42 776.51,-306.42 776.51,-312.42 776.51,-312.42 776.51,-353.58 776.51,-353.58 776.51,-359.58 770.51,-365.58 764.51,-365.58"/>
<text xml:space="preserve" text-anchor="middle" x="693.55" y="-344.1" font-family="Helvetica Neue,Helvetica,Arial,sans-serif" font-size="12.00" fill="#3d1f6e">FastAPI Backend</text>
<text xml:space="preserve" text-anchor="middle" x="693.55" y="-329.1" font-family="Helvetica Neue,Helvetica,Arial,sans-serif" font-size="12.00" fill="#3d1f6e">POST /api/chat</text>
<text xml:space="preserve" text-anchor="middle" x="693.55" y="-314.1" font-family="Helvetica Neue,Helvetica,Arial,sans-serif" font-size="12.00" fill="#3d1f6e">GET /api/docs/{filename}</text>
</g>
<!-- FRONTEND&#45;&gt;FASTAPI -->
<g id="edge7" class="edge">
<title>FRONTEND&#45;&gt;FASTAPI</title>
<path fill="none" stroke="#666688" stroke-width="1.6" d="M442.86,-298.11C491.62,-304.92 551.02,-313.22 599.65,-320.02"/>
<polygon fill="#666688" stroke="#666688" stroke-width="1.6" points="443.45,-295.18 434.62,-296.95 442.63,-301.08 443.45,-295.18"/>
<polygon fill="#666688" stroke="#666688" stroke-width="1.6" points="598.94,-322.92 607.77,-321.15 599.76,-317.03 598.94,-322.92"/>
<text xml:space="preserve" text-anchor="middle" x="517.92" y="-330.6" font-family="Helvetica Neue,Helvetica,Arial,sans-serif" font-size="10.00" fill="#333355">POST /api/chat</text>
<text xml:space="preserve" text-anchor="middle" x="517.92" y="-318.6" font-family="Helvetica Neue,Helvetica,Arial,sans-serif" font-size="10.00" fill="#333355">GET /api/docs/{filename}</text>
</g>
<!-- HAIKU -->
<g id="node3" class="node">
<title>HAIKU</title>
<path fill="#ede0f8" stroke="#7b5ea7" d="M743.89,-594.08C743.89,-594.08 643.21,-594.08 643.21,-594.08 637.21,-594.08 631.21,-588.08 631.21,-582.08 631.21,-582.08 631.21,-555.92 631.21,-555.92 631.21,-549.92 637.21,-543.92 643.21,-543.92 643.21,-543.92 743.89,-543.92 743.89,-543.92 749.89,-543.92 755.89,-549.92 755.89,-555.92 755.89,-555.92 755.89,-582.08 755.89,-582.08 755.89,-588.08 749.89,-594.08 743.89,-594.08"/>
<text xml:space="preserve" text-anchor="middle" x="693.55" y="-572.6" font-family="Helvetica Neue,Helvetica,Arial,sans-serif" font-size="12.00" fill="#3d1f6e">Claude Haiku 4.5</text>
<text xml:space="preserve" text-anchor="middle" x="693.55" y="-557.6" font-family="Helvetica Neue,Helvetica,Arial,sans-serif" font-size="12.00" fill="#3d1f6e">(Query Classifier)</text>
</g>
<!-- HAIKU&#45;&gt;FASTAPI -->
<!-- VS -->
<g id="node6" class="node">
<title>VS</title>
<path fill="#ffffff" stroke="#d96a20" d="M1096.35,-495.58C1096.35,-495.58 990.42,-495.58 990.42,-495.58 984.42,-495.58 978.42,-489.58 978.42,-483.58 978.42,-483.58 978.42,-442.42 978.42,-442.42 978.42,-436.42 984.42,-430.42 990.42,-430.42 990.42,-430.42 1096.35,-430.42 1096.35,-430.42 1102.35,-430.42 1108.35,-436.42 1108.35,-442.42 1108.35,-442.42 1108.35,-483.58 1108.35,-483.58 1108.35,-489.58 1102.35,-495.58 1096.35,-495.58"/>
<text xml:space="preserve" text-anchor="middle" x="1043.39" y="-474.1" font-family="Helvetica Neue,Helvetica,Arial,sans-serif" font-size="12.00" fill="#7a3a10">Vector Search</text>
<text xml:space="preserve" text-anchor="middle" x="1043.39" y="-459.1" font-family="Helvetica Neue,Helvetica,Arial,sans-serif" font-size="12.00" fill="#7a3a10">Hybrid mode</text>
<text xml:space="preserve" text-anchor="middle" x="1043.39" y="-444.1" font-family="Helvetica Neue,Helvetica,Arial,sans-serif" font-size="12.00" fill="#7a3a10">(vector + keyword)</text>
</g>
<!-- HAIKU&#45;&gt;VS -->
<g id="edge9" class="edge">
<title>HAIKU&#45;&gt;VS</title>
<path fill="none" stroke="#666688" stroke-width="1.6" stroke-dasharray="5,2" d="M756.35,-555.16C821.04,-540.67 913.3,-520 913.3,-520 913.3,-520 939.55,-508.41 968.38,-495.68"/>
<polygon fill="#666688" stroke="#666688" stroke-width="1.6" points="969.43,-498.47 976,-492.31 967.03,-493.02 969.43,-498.47"/>
<text xml:space="preserve" text-anchor="middle" x="864.17" y="-556.07" font-family="Helvetica Neue,Helvetica,Arial,sans-serif" font-size="10.00" fill="#333355">semantic_query</text>
<text xml:space="preserve" text-anchor="middle" x="864.17" y="-544.07" font-family="Helvetica Neue,Helvetica,Arial,sans-serif" font-size="10.00" fill="#333355">+ keyword_terms</text>
</g>
<!-- SQLWH -->
<g id="node7" class="node">
<title>SQLWH</title>
<path fill="#ffffff" stroke="#d96a20" d="M1103.1,-387.58C1103.1,-387.58 983.67,-387.58 983.67,-387.58 977.67,-387.58 971.67,-381.58 971.67,-375.58 971.67,-375.58 971.67,-334.42 971.67,-334.42 971.67,-328.42 977.67,-322.42 983.67,-322.42 983.67,-322.42 1103.1,-322.42 1103.1,-322.42 1109.1,-322.42 1115.1,-328.42 1115.1,-334.42 1115.1,-334.42 1115.1,-375.58 1115.1,-375.58 1115.1,-381.58 1109.1,-387.58 1103.1,-387.58"/>
<text xml:space="preserve" text-anchor="middle" x="1043.39" y="-366.1" font-family="Helvetica Neue,Helvetica,Arial,sans-serif" font-size="12.00" fill="#7a3a10">SQL Warehouse</text>
<text xml:space="preserve" text-anchor="middle" x="1043.39" y="-351.1" font-family="Helvetica Neue,Helvetica,Arial,sans-serif" font-size="12.00" fill="#7a3a10">ILIKE full&#45;text search</text>
<text xml:space="preserve" text-anchor="middle" x="1043.39" y="-336.1" font-family="Helvetica Neue,Helvetica,Arial,sans-serif" font-size="12.00" fill="#7a3a10">(plain_text)</text>
</g>
<!-- HAIKU&#45;&gt;SQLWH -->
<g id="edge10" class="edge">
<title>HAIKU&#45;&gt;SQLWH</title>
<path fill="none" stroke="#666688" stroke-width="1.6" stroke-dasharray="5,2" d="M748.71,-543.44C771.16,-532.86 792.05,-523 792.05,-523 792.05,-523 815.05,-505 815.05,-505 815.05,-505 913.3,-460 913.3,-460 913.3,-460 936.3,-409 936.3,-409 936.3,-409 950.24,-401.9 968.02,-392.85"/>
<polygon fill="#666688" stroke="#666688" stroke-width="1.6" points="969.23,-395.57 975.46,-389.07 966.53,-390.27 969.23,-395.57"/>
<text xml:space="preserve" text-anchor="middle" x="864.17" y="-507.5" font-family="Helvetica Neue,Helvetica,Arial,sans-serif" font-size="10.00" fill="#333355">keyword_terms (ILIKE)</text>
</g>
<!-- MLFLOW -->
<g id="node9" class="node">
<title>MLFLOW</title>
<path fill="#ffffff" stroke="#2a8050" d="M1130.48,-701.58C1130.48,-701.58 956.3,-701.58 956.3,-701.58 950.3,-701.58 944.3,-695.58 944.3,-689.58 944.3,-689.58 944.3,-648.42 944.3,-648.42 944.3,-642.42 950.3,-636.42 956.3,-636.42 956.3,-636.42 1130.48,-636.42 1130.48,-636.42 1136.48,-636.42 1142.48,-642.42 1142.48,-648.42 1142.48,-648.42 1142.48,-689.58 1142.48,-689.58 1142.48,-695.58 1136.48,-701.58 1130.48,-701.58"/>
<text xml:space="preserve" text-anchor="middle" x="1043.39" y="-680.1" font-family="Helvetica Neue,Helvetica,Arial,sans-serif" font-size="12.00" fill="#1a5c35">MLflow Tracing</text>
<text xml:space="preserve" text-anchor="middle" x="1043.39" y="-665.1" font-family="Helvetica Neue,Helvetica,Arial,sans-serif" font-size="12.00" fill="#1a5c35">experiment: /Shared/doc&#45;finder</text>
<text xml:space="preserve" text-anchor="middle" x="1043.39" y="-650.1" font-family="Helvetica Neue,Helvetica,Arial,sans-serif" font-size="12.00" fill="#1a5c35">(all agent calls)</text>
</g>
<!-- HAIKU&#45;&gt;MLFLOW -->
<g id="edge16" class="edge">
<title>HAIKU&#45;&gt;MLFLOW</title>
<path fill="none" stroke="#2a8050" stroke-width="1.4" stroke-dasharray="1,5" d="M731.68,-594.58C767.09,-618.97 815.05,-652 815.05,-652 815.05,-652 875.12,-656.49 933.51,-660.86"/>
<polygon fill="#2a8050" stroke="#2a8050" stroke-width="1.4" points="933.18,-663.82 941.88,-661.48 933.63,-657.88 933.18,-663.82"/>
<text xml:space="preserve" text-anchor="middle" x="864.17" y="-661.48" font-family="Helvetica Neue,Helvetica,Arial,sans-serif" font-size="10.00" fill="#2a8050">trace</text>
</g>
<!-- FASTAPI&#45;&gt;HAIKU -->
<g id="edge8" class="edge">
<title>FASTAPI&#45;&gt;HAIKU</title>
<path fill="none" stroke="#666688" stroke-width="1.6" d="M640.3,-365.92C580.55,-402.85 491.88,-457.67 491.88,-457.67 491.88,-457.67 491.88,-494.33 491.88,-494.33 491.88,-494.33 562.86,-520.62 620.6,-541.99"/>
<polygon fill="#666688" stroke="#666688" stroke-width="1.6" points="619.57,-544.78 628.57,-544.94 621.63,-539.2 619.57,-544.78"/>
</g>
<!-- SONNET -->
<g id="node5" class="node">
<title>SONNET</title>
<path fill="#ede0f8" stroke="#7b5ea7" d="M755.89,-501.08C755.89,-501.08 631.21,-501.08 631.21,-501.08 625.21,-501.08 619.21,-495.08 619.21,-489.08 619.21,-489.08 619.21,-462.92 619.21,-462.92 619.21,-456.92 625.21,-450.92 631.21,-450.92 631.21,-450.92 755.89,-450.92 755.89,-450.92 761.89,-450.92 767.89,-456.92 767.89,-462.92 767.89,-462.92 767.89,-489.08 767.89,-489.08 767.89,-495.08 761.89,-501.08 755.89,-501.08"/>
<text xml:space="preserve" text-anchor="middle" x="693.55" y="-479.6" font-family="Helvetica Neue,Helvetica,Arial,sans-serif" font-size="12.00" fill="#3d1f6e">Claude Sonnet 4.6</text>
<text xml:space="preserve" text-anchor="middle" x="693.55" y="-464.6" font-family="Helvetica Neue,Helvetica,Arial,sans-serif" font-size="12.00" fill="#3d1f6e">(Response Generator)</text>
</g>
<!-- FASTAPI&#45;&gt;SONNET -->
<!-- UCVOL -->
<g id="node8" class="node">
<title>UCVOL</title>
<path fill="#ffffff" stroke="#d96a20" d="M1089.98,-273.21C1089.98,-276.67 1069.09,-279.49 1043.39,-279.49 1017.68,-279.49 996.8,-276.67 996.8,-273.21 996.8,-273.21 996.8,-216.78 996.8,-216.78 996.8,-213.33 1017.68,-210.51 1043.39,-210.51 1069.09,-210.51 1089.98,-213.33 1089.98,-216.78 1089.98,-216.78 1089.98,-273.21 1089.98,-273.21"/>
<path fill="none" stroke="#d96a20" d="M1089.98,-273.21C1089.98,-269.76 1069.09,-266.94 1043.39,-266.94 1017.68,-266.94 996.8,-269.76 996.8,-273.21"/>
<text xml:space="preserve" text-anchor="middle" x="1043.39" y="-248.6" font-family="Helvetica Neue,Helvetica,Arial,sans-serif" font-size="12.00" fill="#7a3a10">UC Volume</text>
<text xml:space="preserve" text-anchor="middle" x="1043.39" y="-233.6" font-family="Helvetica Neue,Helvetica,Arial,sans-serif" font-size="12.00" fill="#7a3a10">(PDF files)</text>
</g>
<!-- FASTAPI&#45;&gt;UCVOL -->
<g id="edge14" class="edge">
<title>FASTAPI&#45;&gt;UCVOL</title>
<path fill="none" stroke="#666688" stroke-width="1.6" d="M776.98,-312.15C841.53,-295.82 929.58,-273.54 986.22,-259.21"/>
<polygon fill="#666688" stroke="#666688" stroke-width="1.6" points="986.9,-262.11 994.41,-257.14 985.44,-256.34 986.9,-262.11"/>
<text xml:space="preserve" text-anchor="middle" x="864.17" y="-304.52" font-family="Helvetica Neue,Helvetica,Arial,sans-serif" font-size="10.00" fill="#333355">serve PDF</text>
</g>
<!-- SONNET&#45;&gt;FASTAPI -->
<g id="edge13" class="edge">
<title>SONNET&#45;&gt;FASTAPI</title>
<path fill="none" stroke="#666688" stroke-width="1.6" d="M693.55,-450.47C693.55,-429.97 693.55,-400.7 693.55,-376.51"/>
<polygon fill="#666688" stroke="#666688" stroke-width="1.6" points="696.52,-376.73 693.55,-368.23 690.57,-376.73 696.52,-376.73"/>
<text xml:space="preserve" text-anchor="middle" x="684.55" y="-404.75" font-family="Helvetica Neue,Helvetica,Arial,sans-serif" font-size="10.00" fill="#333355">answer + doc list</text>
</g>
<!-- SONNET&#45;&gt;MLFLOW -->
<g id="edge17" class="edge">
<title>SONNET&#45;&gt;MLFLOW</title>
<path fill="none" stroke="#2a8050" stroke-width="1.4" stroke-dasharray="1,5" d="M748.71,-501.56C771.16,-512.14 792.05,-522 792.05,-522 792.05,-522 815.05,-576 815.05,-576 815.05,-576 888.51,-606.05 951.92,-631.99"/>
<polygon fill="#2a8050" stroke="#2a8050" stroke-width="1.4" points="950.64,-634.68 959.63,-635.15 952.89,-629.18 950.64,-634.68"/>
<text xml:space="preserve" text-anchor="middle" x="864.17" y="-616.67" font-family="Helvetica Neue,Helvetica,Arial,sans-serif" font-size="10.00" fill="#2a8050">trace</text>
</g>
<!-- VS&#45;&gt;SONNET -->
<g id="edge11" class="edge">
<title>VS&#45;&gt;SONNET</title>
<path fill="none" stroke="#666688" stroke-width="1.6" d="M978.22,-454.05C945.82,-449.54 913.3,-445 913.3,-445 913.3,-445 815.05,-445 815.05,-445 815.05,-445 798.91,-449.15 778.45,-454.41"/>
<polygon fill="#666688" stroke="#666688" stroke-width="1.6" points="777.95,-451.47 770.46,-456.47 779.43,-457.23 777.95,-451.47"/>
<text xml:space="preserve" text-anchor="middle" x="864.17" y="-447.5" font-family="Helvetica Neue,Helvetica,Arial,sans-serif" font-size="10.00" fill="#333355">results</text>
</g>
<!-- SQLWH&#45;&gt;SONNET -->
<g id="edge12" class="edge">
<title>SQLWH&#45;&gt;SONNET</title>
<path fill="none" stroke="#666688" stroke-width="1.6" d="M971.39,-376.24C904.69,-396.19 815.05,-423 815.05,-423 815.05,-423 789.8,-434.11 762.42,-446.15"/>
<polygon fill="#666688" stroke="#666688" stroke-width="1.6" points="761.48,-443.31 754.9,-449.46 763.87,-448.76 761.48,-443.31"/>
<text xml:space="preserve" text-anchor="middle" x="864.17" y="-425.5" font-family="Helvetica Neue,Helvetica,Arial,sans-serif" font-size="10.00" fill="#333355">results</text>
</g>
<!-- UCVOL&#45;&gt;FRONTEND -->
<g id="edge15" class="edge">
<title>UCVOL&#45;&gt;FRONTEND</title>
<path fill="none" stroke="#666688" stroke-width="1.6" d="M996.3,-247.58C882.26,-253.97 596.05,-270 596.05,-270 596.05,-270 512.54,-275.07 442.65,-279.32"/>
<polygon fill="#666688" stroke="#666688" stroke-width="1.6" points="442.73,-276.33 434.42,-279.82 443.09,-282.27 442.73,-276.33"/>
<text xml:space="preserve" text-anchor="middle" x="693.55" y="-272.5" font-family="Helvetica Neue,Helvetica,Arial,sans-serif" font-size="10.00" fill="#333355">PDF bytes</text>
</g>
<!-- AIPARSE -->
<g id="node11" class="node">
<title>AIPARSE</title>
<path fill="#ffffff" stroke="#9a7030" d="M753.64,-66.08C753.64,-66.08 633.46,-66.08 633.46,-66.08 627.46,-66.08 621.46,-60.08 621.46,-54.08 621.46,-54.08 621.46,-27.92 621.46,-27.92 621.46,-21.92 627.46,-15.92 633.46,-15.92 633.46,-15.92 753.64,-15.92 753.64,-15.92 759.64,-15.92 765.64,-21.92 765.64,-27.92 765.64,-27.92 765.64,-54.08 765.64,-54.08 765.64,-60.08 759.64,-66.08 753.64,-66.08"/>
<text xml:space="preserve" text-anchor="middle" x="693.55" y="-44.6" font-family="Helvetica Neue,Helvetica,Arial,sans-serif" font-size="12.00" fill="#6b4a10">ai_parse_document()</text>
<text xml:space="preserve" text-anchor="middle" x="693.55" y="-29.6" font-family="Helvetica Neue,Helvetica,Arial,sans-serif" font-size="12.00" fill="#6b4a10">(SQL Warehouse)</text>
</g>
<!-- UCVOL&#45;&gt;AIPARSE -->
<g id="edge19" class="edge">
<title>UCVOL&#45;&gt;AIPARSE</title>
<path fill="none" stroke="#666688" stroke-width="1.6" d="M996.47,-225.96C967.8,-214.07 936.3,-201 936.3,-201 936.3,-201 913.3,-150 913.3,-150 913.3,-150 792.05,-87 792.05,-87 792.05,-87 776.9,-79.85 758.54,-71.19"/>
<polygon fill="#666688" stroke="#666688" stroke-width="1.6" points="759.86,-68.53 750.9,-67.59 757.32,-73.91 759.86,-68.53"/>
<text xml:space="preserve" text-anchor="middle" x="864.17" y="-152.5" font-family="Helvetica Neue,Helvetica,Arial,sans-serif" font-size="10.00" fill="#333355">parse PDF</text>
</g>
<!-- RAWDOCS -->
<g id="node10" class="node">
<title>RAWDOCS</title>
<polygon fill="#ffffff" stroke="#9a7030" points="743.14,-159.08 740.14,-163.08 719.14,-163.08 716.14,-159.08 643.96,-159.08 643.96,-108.92 743.14,-108.92 743.14,-159.08"/>
<text xml:space="preserve" text-anchor="middle" x="693.55" y="-137.6" font-family="Helvetica Neue,Helvetica,Arial,sans-serif" font-size="12.00" fill="#6b4a10">raw_docs/</text>
<text xml:space="preserve" text-anchor="middle" x="693.55" y="-122.6" font-family="Helvetica Neue,Helvetica,Arial,sans-serif" font-size="12.00" fill="#6b4a10">(PDF source)</text>
</g>
<!-- RAWDOCS&#45;&gt;UCVOL -->
<g id="edge18" class="edge">
<title>RAWDOCS&#45;&gt;UCVOL</title>
<path fill="none" stroke="#666688" stroke-width="1.6" d="M743.37,-148.95C807.84,-168.7 913.3,-201 913.3,-201 913.3,-201 951.49,-214.02 986.33,-225.89"/>
<polygon fill="#666688" stroke="#666688" stroke-width="1.6" points="985.21,-228.66 994.22,-228.58 987.13,-223.02 985.21,-228.66"/>
<text xml:space="preserve" text-anchor="middle" x="864.17" y="-203.5" font-family="Helvetica Neue,Helvetica,Arial,sans-serif" font-size="10.00" fill="#333355">upload to volume</text>
</g>
<!-- GEMINI -->
<g id="node12" class="node">
<title>GEMINI</title>
<path fill="#fff3d6" stroke="#9a7030" d="M1099.73,-106.58C1099.73,-106.58 987.05,-106.58 987.05,-106.58 981.05,-106.58 975.05,-100.58 975.05,-94.58 975.05,-94.58 975.05,-53.42 975.05,-53.42 975.05,-47.42 981.05,-41.42 987.05,-41.42 987.05,-41.42 1099.73,-41.42 1099.73,-41.42 1105.73,-41.42 1111.73,-47.42 1111.73,-53.42 1111.73,-53.42 1111.73,-94.58 1111.73,-94.58 1111.73,-100.58 1105.73,-106.58 1099.73,-106.58"/>
<text xml:space="preserve" text-anchor="middle" x="1043.39" y="-85.1" font-family="Helvetica Neue,Helvetica,Arial,sans-serif" font-size="12.00" fill="#6b4a10">Gemini 2.5 Pro</text>
<text xml:space="preserve" text-anchor="middle" x="1043.39" y="-70.1" font-family="Helvetica Neue,Helvetica,Arial,sans-serif" font-size="12.00" fill="#6b4a10">(Summarization)</text>
<text xml:space="preserve" text-anchor="middle" x="1043.39" y="-55.1" font-family="Helvetica Neue,Helvetica,Arial,sans-serif" font-size="12.00" fill="#6b4a10">via SQL Warehouse</text>
</g>
<!-- AIPARSE&#45;&gt;GEMINI -->
<g id="edge20" class="edge">
<title>AIPARSE&#45;&gt;GEMINI</title>
<path fill="none" stroke="#666688" stroke-width="1.6" d="M765.78,-47.76C823.41,-53.23 904.48,-60.92 963.95,-66.56"/>
<polygon fill="#666688" stroke="#666688" stroke-width="1.6" points="963.64,-69.52 972.39,-67.36 964.21,-63.59 963.64,-69.52"/>
<text xml:space="preserve" text-anchor="middle" x="864.17" y="-63.93" font-family="Helvetica Neue,Helvetica,Arial,sans-serif" font-size="10.00" fill="#333355">raw text</text>
</g>
<!-- DELTATABLE -->
<g id="node13" class="node">
<title>DELTATABLE</title>
<path fill="#ffffff" stroke="#9a7030" d="M1370.41,-132.22C1370.41,-135.67 1343.98,-138.49 1311.44,-138.49 1278.91,-138.49 1252.48,-135.67 1252.48,-132.22 1252.48,-132.22 1252.48,-75.78 1252.48,-75.78 1252.48,-72.33 1278.91,-69.52 1311.44,-69.52 1343.98,-69.52 1370.41,-72.33 1370.41,-75.78 1370.41,-75.78 1370.41,-132.22 1370.41,-132.22"/>
<path fill="none" stroke="#9a7030" d="M1370.41,-132.22C1370.41,-128.76 1343.98,-125.94 1311.44,-125.94 1278.91,-125.94 1252.48,-128.76 1252.48,-132.22"/>
<text xml:space="preserve" text-anchor="middle" x="1311.44" y="-107.6" font-family="Helvetica Neue,Helvetica,Arial,sans-serif" font-size="12.00" fill="#6b4a10">doc_summaries</text>
<text xml:space="preserve" text-anchor="middle" x="1311.44" y="-92.6" font-family="Helvetica Neue,Helvetica,Arial,sans-serif" font-size="12.00" fill="#6b4a10">(Delta Table)</text>
</g>
<!-- GEMINI&#45;&gt;DELTATABLE -->
<g id="edge21" class="edge">
<title>GEMINI&#45;&gt;DELTATABLE</title>
<path fill="none" stroke="#666688" stroke-width="1.6" d="M1112.21,-81.65C1151.84,-86.12 1201.72,-91.74 1241.54,-96.23"/>
<polygon fill="#666688" stroke="#666688" stroke-width="1.6" points="1241.03,-99.17 1249.81,-97.16 1241.7,-93.25 1241.03,-99.17"/>
<text xml:space="preserve" text-anchor="middle" x="1197.48" y="-95.94" font-family="Helvetica Neue,Helvetica,Arial,sans-serif" font-size="10.00" fill="#333355">summaries</text>
</g>
<!-- VSINDEX -->
<g id="node14" class="node">
<title>VSINDEX</title>
<path fill="#fff3d6" stroke="#9a7030" d="M1633.59,-157.58C1633.59,-157.58 1492.41,-157.58 1492.41,-157.58 1486.41,-157.58 1480.41,-151.58 1480.41,-145.58 1480.41,-145.58 1480.41,-104.42 1480.41,-104.42 1480.41,-98.42 1486.41,-92.42 1492.41,-92.42 1492.41,-92.42 1633.59,-92.42 1633.59,-92.42 1639.59,-92.42 1645.59,-98.42 1645.59,-104.42 1645.59,-104.42 1645.59,-145.58 1645.59,-145.58 1645.59,-151.58 1639.59,-157.58 1633.59,-157.58"/>
<text xml:space="preserve" text-anchor="middle" x="1563" y="-136.1" font-family="Helvetica Neue,Helvetica,Arial,sans-serif" font-size="12.00" fill="#6b4a10">Vector Search Index</text>
<text xml:space="preserve" text-anchor="middle" x="1563" y="-121.1" font-family="Helvetica Neue,Helvetica,Arial,sans-serif" font-size="12.00" fill="#6b4a10">Delta Sync</text>
<text xml:space="preserve" text-anchor="middle" x="1563" y="-106.1" font-family="Helvetica Neue,Helvetica,Arial,sans-serif" font-size="12.00" fill="#6b4a10">(databricks&#45;gte&#45;large&#45;en)</text>
</g>
<!-- DELTATABLE&#45;&gt;VSINDEX -->
<g id="edge22" class="edge">
<title>DELTATABLE&#45;&gt;VSINDEX</title>
<path fill="none" stroke="#666688" stroke-width="1.6" d="M1370.64,-108.9C1400.01,-111.37 1436.34,-114.43 1469.43,-117.21"/>
<polygon fill="#666688" stroke="#666688" stroke-width="1.6" points="1468.91,-120.15 1477.63,-117.9 1469.41,-114.22 1468.91,-120.15"/>
<text xml:space="preserve" text-anchor="middle" x="1425.41" y="-117.63" font-family="Helvetica Neue,Helvetica,Arial,sans-serif" font-size="10.00" fill="#333355">Delta Sync</text>
</g>
<!-- VSINDEX&#45;&gt;VS -->
<g id="edge23" class="edge">
<title>VSINDEX&#45;&gt;VS</title>
<path fill="none" stroke="#666688" stroke-width="1.6" d="M1514.39,-157.86C1406.06,-232.61 1150.48,-409 1150.48,-409 1150.48,-409 1136.4,-416.16 1118.5,-425.27"/>
<polygon fill="#666688" stroke="#666688" stroke-width="1.6" points="1117.24,-422.58 1111.01,-429.09 1119.93,-427.88 1117.24,-422.58"/>
<text xml:space="preserve" text-anchor="middle" x="1311.44" y="-349.87" font-family="Helvetica Neue,Helvetica,Arial,sans-serif" font-size="10.00" fill="#333355">serves index</text>
<text xml:space="preserve" text-anchor="middle" x="1311.44" y="-337.87" font-family="Helvetica Neue,Helvetica,Arial,sans-serif" font-size="10.00" fill="#333355">(live queries)</text>
</g>
<!-- L1a -->
<g id="node15" class="node">
<title>L1a</title>
<ellipse fill="#f8f8f8" stroke="#f8f8f8" cx="73.93" cy="-422" rx="0.36" ry="0.36"/>
</g>
<!-- L1b -->
<g id="node16" class="node">
<title>L1b</title>
<path fill="#f8f8f8" stroke="none" d="M370.95,-437.33C370.95,-437.33 325.21,-437.33 325.21,-437.33 320.1,-437.33 314.99,-432.22 314.99,-427.11 314.99,-427.11 314.99,-416.89 314.99,-416.89 314.99,-411.78 320.1,-406.67 325.21,-406.67 325.21,-406.67 370.95,-406.67 370.95,-406.67 376.06,-406.67 381.17,-411.78 381.17,-416.89 381.17,-416.89 381.17,-427.11 381.17,-427.11 381.17,-432.22 376.06,-437.33 370.95,-437.33"/>
<text xml:space="preserve" text-anchor="middle" x="348.08" y="-419.65" font-family="Helvetica Neue,Helvetica,Arial,sans-serif" font-size="8.00" fill="#555555">Data flow</text>
</g>
<!-- L1a&#45;&gt;L1b -->
<g id="edge3" class="edge">
<title>L1a&#45;&gt;L1b</title>
<path fill="none" stroke="#666688" stroke-width="1.2" d="M74.98,-422C78.16,-422 233.3,-422 307.87,-422"/>
<polygon fill="#666688" stroke="#666688" stroke-width="1.2" points="307.44,-424.1 313.44,-422 307.44,-419.9 307.44,-424.1"/>
</g>
<!-- L2a -->
<g id="node17" class="node">
<title>L2a</title>
<ellipse fill="#f8f8f8" stroke="#f8f8f8" cx="73.93" cy="-496" rx="0.36" ry="0.36"/>
</g>
<!-- L2b -->
<g id="node18" class="node">
<title>L2b</title>
<path fill="#f8f8f8" stroke="none" d="M379.95,-511.33C379.95,-511.33 316.21,-511.33 316.21,-511.33 311.1,-511.33 305.99,-506.22 305.99,-501.11 305.99,-501.11 305.99,-490.89 305.99,-490.89 305.99,-485.78 311.1,-480.67 316.21,-480.67 316.21,-480.67 379.95,-480.67 379.95,-480.67 385.06,-480.67 390.17,-485.78 390.17,-490.89 390.17,-490.89 390.17,-501.11 390.17,-501.11 390.17,-506.22 385.06,-511.33 379.95,-511.33"/>
<text xml:space="preserve" text-anchor="middle" x="348.08" y="-493.65" font-family="Helvetica Neue,Helvetica,Arial,sans-serif" font-size="8.00" fill="#555555">Parallel search</text>
</g>
<!-- L2a&#45;&gt;L2b -->
<g id="edge4" class="edge">
<title>L2a&#45;&gt;L2b</title>
<path fill="none" stroke="#666688" stroke-width="1.2" stroke-dasharray="5,2" d="M74.98,-496C78.03,-496 220.82,-496 298.29,-496"/>
<polygon fill="#666688" stroke="#666688" stroke-width="1.2" points="298.22,-498.1 304.22,-496 298.22,-493.9 298.22,-498.1"/>
</g>
<!-- L3a -->
<g id="node19" class="node">
<title>L3a</title>
<ellipse fill="#f8f8f8" stroke="#f8f8f8" cx="73.93" cy="-570" rx="0.36" ry="0.36"/>
</g>
<!-- L3b -->
<g id="node20" class="node">
<title>L3b</title>
<path fill="#f8f8f8" stroke="none" d="M377.33,-585.33C377.33,-585.33 318.84,-585.33 318.84,-585.33 313.73,-585.33 308.62,-580.22 308.62,-575.11 308.62,-575.11 308.62,-564.89 308.62,-564.89 308.62,-559.78 313.73,-554.67 318.84,-554.67 318.84,-554.67 377.33,-554.67 377.33,-554.67 382.44,-554.67 387.55,-559.78 387.55,-564.89 387.55,-564.89 387.55,-575.11 387.55,-575.11 387.55,-580.22 382.44,-585.33 377.33,-585.33"/>
<text xml:space="preserve" text-anchor="middle" x="348.08" y="-567.65" font-family="Helvetica Neue,Helvetica,Arial,sans-serif" font-size="8.00" fill="#555555">MLflow trace</text>
</g>
<!-- L3a&#45;&gt;L3b -->
<g id="edge5" class="edge">
<title>L3a&#45;&gt;L3b</title>
<path fill="none" stroke="#2a8050" stroke-width="1.2" stroke-dasharray="1,5" d="M74.98,-570C78.07,-570 224.17,-570 300.98,-570"/>
<polygon fill="#2a8050" stroke="#2a8050" stroke-width="1.2" points="300.82,-572.1 306.82,-570 300.82,-567.9 300.82,-572.1"/>
</g>
</g>
</svg>
