<?xml version="1.0" encoding="UTF-8" standalone="no"?>
<!DOCTYPE svg PUBLIC "-//W3C//DTD SVG 1.1//EN"
 "http://www.w3.org/Graphics/SVG/1.1/DTD/svg11.dtd">
<!-- Generated by graphviz version 14.1.3 (20260303.0454)
 -->
<!-- Title: DocFinder Pages: 1 -->
<svg width="1250pt" height="887pt"
 viewBox="0.00 0.00 1250.00 887.00" xmlns="http://www.w3.org/2000/svg" xmlns:xlink="http://www.w3.org/1999/xlink">
<g id="graph0" class="graph" transform="scale(1 1) rotate(0) translate(36 850.72)">
<title>DocFinder</title>
<polygon fill="#ffffff" stroke="none" points="-36,36 -36,-850.72 1214,-850.72 1214,36 -36,36"/>
<text xml:space="preserve" text-anchor="middle" x="589" y="-793.62" font-family="Helvetica Neue,Helvetica,Arial,sans-serif" font-size="18.00" fill="#1a1a2e">Doc Finder — System Architecture</text>
<g id="clust1" class="cluster">
<title>cluster_app</title>
<path fill="#f3eef9" stroke="#7b5ea7" stroke-width="2" d="M180,-328.35C180,-328.35 458,-328.35 458,-328.35 464,-328.35 470,-334.35 470,-340.35 470,-340.35 470,-662.1 470,-662.1 470,-668.1 464,-674.1 458,-674.1 458,-674.1 180,-674.1 180,-674.1 174,-674.1 168,-668.1 168,-662.1 168,-662.1 168,-340.35 168,-340.35 168,-334.35 174,-328.35 180,-328.35"/>
<text xml:space="preserve" text-anchor="middle" x="319" y="-658.7" font-family="Helvetica Neue,Helvetica,Arial,sans-serif" font-size="12.00" fill="#3d1f6e">Databricks App</text>
</g>
<g id="clust3" class="cluster">
<title>cluster_data</title>
<path fill="#fdf3eb" stroke="#d96a20" stroke-width="2" d="M502,-320.04C502,-320.04 886,-320.04 886,-320.04 892,-320.04 898,-326.04 898,-332.04 898,-332.04 898,-407.93 898,-407.93 898,-413.93 892,-419.93 886,-419.93 886,-419.93 502,-419.93 502,-419.93 496,-419.93 490,-413.93 490,-407.93 490,-407.93 490,-332.04 490,-332.04 490,-326.04 496,-320.04 502,-320.04"/>
<text xml:space="preserve" text-anchor="middle" x="694" y="-404.53" font-family="Helvetica Neue,Helvetica,Arial,sans-serif" font-size="12.00" fill="#7a3a10">Data Sources &#160;(Unity Catalog)</text>
</g>
<g id="clust4" class="cluster">
<title>cluster_obs</title>
<path fill="#e8f5ee" stroke="#2a8050" stroke-width="2" d="M20,-328.35C20,-328.35 136,-328.35 136,-328.35 142,-328.35 148,-334.35 148,-340.35 148,-340.35 148,-399.63 148,-399.63 148,-405.63 142,-411.63 136,-411.63 136,-411.63 20,-411.63 20,-411.63 14,-411.63 8,-405.63 8,-399.63 8,-399.63 8,-340.35 8,-340.35 8,-334.35 14,-328.35 20,-328.35"/>
<text xml:space="preserve" text-anchor="middle" x="78" y="-396.23" font-family="Helvetica Neue,Helvetica,Arial,sans-serif" font-size="12.00" fill="#1a5c35">Observability</text>
</g>
<g id="clust5" class="cluster">
<title>cluster_pipeline</title>
<path fill="#fdf7ed" stroke="#9a7030" stroke-width="2" d="M918,-76.38C918,-76.38 1158,-76.38 1158,-76.38 1164,-76.38 1170,-82.38 1170,-88.38 1170,-88.38 1170,-538.57 1170,-538.57 1170,-544.57 1164,-550.57 1158,-550.57 1158,-550.57 918,-550.57 918,-550.57 912,-550.57 906,-544.57 906,-538.57 906,-538.57 906,-88.38 906,-88.38 906,-82.38 912,-76.38 918,-76.38"/>
<text xml:space="preserve" text-anchor="middle" x="1038" y="-535.17" font-family="Helvetica Neue,Helvetica,Arial,sans-serif" font-size="12.00" fill="#6b4a10">Data Pipeline &#160;(DABs Job)</text>
</g>
<g id="clust6" class="cluster">
<title>cluster_legend</title>
<path fill="#f8f8f8" stroke="#aaaaaa" d="M85,-8C85,-8 197,-8 197,-8 203,-8 209,-14 209,-20 209,-20 209,-246.29 209,-246.29 209,-252.29 203,-258.29 197,-258.29 197,-258.29 85,-258.29 85,-258.29 79,-258.29 73,-252.29 73,-246.29 73,-246.29 73,-20 73,-20 73,-14 79,-8 85,-8"/>
<text xml:space="preserve" text-anchor="middle" x="141" y="-245.74" font-family="Helvetica Neue,Helvetica,Arial,sans-serif" font-size="9.00" fill="#555555">Legend</text>
</g>
<!-- USER -->
<g id="node1" class="node">
<title>USER</title>
<ellipse fill="#3a7dc9" stroke="#1e5b9a" cx="387" cy="-753.66" rx="53.25" ry="31.31"/>
<text xml:space="preserve" text-anchor="middle" x="387" y="-756.71" font-family="Helvetica Neue,Helvetica,Arial,sans-serif" font-size="11.00" fill="#ffffff">User</text>
<text xml:space="preserve" text-anchor="middle" x="387" y="-743.21" font-family="Helvetica Neue,Helvetica,Arial,sans-serif" font-size="11.00" fill="#ffffff">(Browser)</text>
</g>
<!-- FRONTEND -->
<g id="node2" class="node">
<title>FRONTEND</title>
<path fill="#ffffff" stroke="#3a7dc9" d="M427.65,-643.1C427.65,-643.1 346.35,-643.1 346.35,-643.1 340.35,-643.1 334.35,-637.1 334.35,-631.1 334.35,-631.1 334.35,-610.82 334.35,-610.82 334.35,-604.82 340.35,-598.82 346.35,-598.82 346.35,-598.82 427.65,-598.82 427.65,-598.82 433.65,-598.82 439.65,-604.82 439.65,-610.82 439.65,-610.82 439.65,-631.1 439.65,-631.1 439.65,-637.1 433.65,-643.1 427.65,-643.1"/>
<text xml:space="preserve" text-anchor="middle" x="387" y="-624.01" font-family="Helvetica Neue,Helvetica,Arial,sans-serif" font-size="11.00" fill="#1a3a5c">React Frontend</text>
<text xml:space="preserve" text-anchor="middle" x="387" y="-610.51" font-family="Helvetica Neue,Helvetica,Arial,sans-serif" font-size="11.00" fill="#1a3a5c">(CDN&#45;loaded)</text>
</g>
<!-- USER&#45;&gt;FRONTEND -->
<g id="edge8" class="edge">
<title>USER&#45;&gt;FRONTEND</title>
<path fill="none" stroke="#666688" stroke-width="1.4" d="M387,-712.59C387,-693.35 387,-670.67 387,-652.81"/>
<polygon fill="#666688" stroke="#666688" stroke-width="1.4" points="384.38,-712.4 387,-719.9 389.63,-712.4 384.38,-712.4"/>
<polygon fill="#666688" stroke="#666688" stroke-width="1.4" points="389.63,-653.05 387,-645.55 384.38,-653.05 389.63,-653.05"/>
<text xml:space="preserve" text-anchor="middle" x="418.12" y="-684.8" font-family="Helvetica Neue,Helvetica,Arial,sans-serif" font-size="9.00" fill="#333355">chat / view PDF</text>
</g>
<!-- FASTAPI -->
<g id="node3" class="node">
<title>FASTAPI</title>
<path fill="#ffffff" stroke="#7b5ea7" d="M430.52,-523.71C430.52,-523.71 381.48,-523.71 381.48,-523.71 375.48,-523.71 369.48,-517.71 369.48,-511.71 369.48,-511.71 369.48,-491.43 369.48,-491.43 369.48,-485.43 375.48,-479.43 381.48,-479.43 381.48,-479.43 430.52,-479.43 430.52,-479.43 436.52,-479.43 442.52,-485.43 442.52,-491.43 442.52,-491.43 442.52,-511.71 442.52,-511.71 442.52,-517.71 436.52,-523.71 430.52,-523.71"/>
<text xml:space="preserve" text-anchor="middle" x="406" y="-504.62" font-family="Helvetica Neue,Helvetica,Arial,sans-serif" font-size="11.00" fill="#3d1f6e">FastAPI</text>
<text xml:space="preserve" text-anchor="middle" x="406" y="-491.12" font-family="Helvetica Neue,Helvetica,Arial,sans-serif" font-size="11.00" fill="#3d1f6e">Backend</text>
</g>
<!-- FRONTEND&#45;&gt;FASTAPI -->
<!-- FRONTEND&#45;&gt;FASTAPI -->
<g id="edge9" class="edge">
<title>FRONTEND&#45;&gt;FASTAPI</title>
<path fill="none" stroke="#666688" stroke-width="1.4" d="M391.98,-589.18C394.78,-571.87 398.27,-550.33 401.06,-533.06"/>
<polygon fill="#666688" stroke="#666688" stroke-width="1.4" points="389.43,-588.51 390.82,-596.34 394.61,-589.35 389.43,-588.51"/>
<polygon fill="#666688" stroke="#666688" stroke-width="1.4" points="403.59,-533.88 402.2,-526.06 398.41,-533.04 403.59,-533.88"/>
<text xml:space="preserve" text-anchor="middle" x="413.75" y="-561.27" font-family="Helvetica Neue,Helvetica,Arial,sans-serif" font-size="9.00" fill="#333355">API calls</text>
</g>
<!-- HAIKU -->
<g id="node4" class="node">
<title>HAIKU</title>
<path fill="#ede0f8" stroke="#7b5ea7" d="M449.77,-380.63C449.77,-380.63 360.23,-380.63 360.23,-380.63 354.23,-380.63 348.23,-374.63 348.23,-368.63 348.23,-368.63 348.23,-348.35 348.23,-348.35 348.23,-342.35 354.23,-336.35 360.23,-336.35 360.23,-336.35 449.77,-336.35 449.77,-336.35 455.77,-336.35 461.77,-342.35 461.77,-348.35 461.77,-348.35 461.77,-368.63 461.77,-368.63 461.77,-374.63 455.77,-380.63 449.77,-380.63"/>
<text xml:space="preserve" text-anchor="middle" x="405" y="-361.54" font-family="Helvetica Neue,Helvetica,Arial,sans-serif" font-size="11.00" fill="#3d1f6e">Claude Haiku 4.5</text>
<text xml:space="preserve" text-anchor="middle" x="405" y="-348.04" font-family="Helvetica Neue,Helvetica,Arial,sans-serif" font-size="11.00" fill="#3d1f6e">(Query Classifier)</text>
</g>
<!-- FASTAPI&#45;&gt;HAIKU -->
<g id="edge10" class="edge">
<title>FASTAPI&#45;&gt;HAIKU</title>
<path fill="none" stroke="#666688" stroke-width="1.4" d="M405.78,-469.83C405.62,-446.37 405.39,-414.19 405.22,-390.63"/>
<polygon fill="#666688" stroke="#666688" stroke-width="1.4" points="403.15,-469.54 405.83,-477.02 408.4,-469.51 403.15,-469.54"/>
<polygon fill="#666688" stroke="#666688" stroke-width="1.4" points="407.85,-390.72 405.17,-383.24 402.6,-390.75 407.85,-390.72"/>
<text xml:space="preserve" text-anchor="middle" x="432.99" y="-436.25" font-family="Helvetica Neue,Helvetica,Arial,sans-serif" font-size="9.00" fill="#333355">classify query</text>
</g>
<!-- SONNET -->
<g id="node5" class="node">
<title>SONNET</title>
<path fill="#ede0f8" stroke="#7b5ea7" d="M300.02,-380.63C300.02,-380.63 187.97,-380.63 187.97,-380.63 181.97,-380.63 175.97,-374.63 175.97,-368.63 175.97,-368.63 175.97,-348.35 175.97,-348.35 175.97,-342.35 181.97,-336.35 187.97,-336.35 187.97,-336.35 300.02,-336.35 300.02,-336.35 306.02,-336.35 312.02,-342.35 312.02,-348.35 312.02,-348.35 312.02,-368.63 312.02,-368.63 312.02,-374.63 306.02,-380.63 300.02,-380.63"/>
<text xml:space="preserve" text-anchor="middle" x="244" y="-361.54" font-family="Helvetica Neue,Helvetica,Arial,sans-serif" font-size="11.00" fill="#3d1f6e">Claude Sonnet 4.6</text>
<text xml:space="preserve" text-anchor="middle" x="244" y="-348.04" font-family="Helvetica Neue,Helvetica,Arial,sans-serif" font-size="11.00" fill="#3d1f6e">(Response Generator)</text>
</g>
<!-- FASTAPI&#45;&gt;SONNET -->
<g id="edge13" class="edge">
<title>FASTAPI&#45;&gt;SONNET</title>
<path fill="none" stroke="#666688" stroke-width="1.4" d="M360.62,-480.4C345.11,-472.32 328.22,-462.14 314.5,-450.43 293.76,-432.73 275.09,-408.05 262.18,-388.87"/>
<polygon fill="#666688" stroke="#666688" stroke-width="1.4" points="359.31,-482.67 367.18,-483.71 361.67,-477.98 359.31,-482.67"/>
<polygon fill="#666688" stroke="#666688" stroke-width="1.4" points="264.5,-387.61 258.18,-382.79 260.11,-390.49 264.5,-387.61"/>
<text xml:space="preserve" text-anchor="middle" x="355.75" y="-441.88" font-family="Helvetica Neue,Helvetica,Arial,sans-serif" font-size="9.00" fill="#333355">results + query</text>
<text xml:space="preserve" text-anchor="middle" x="355.75" y="-430.63" font-family="Helvetica Neue,Helvetica,Arial,sans-serif" font-size="9.00" fill="#333355">→ answer + filename</text>
</g>
<!-- VS -->
<g id="node6" class="node">
<title>VS</title>
<path fill="#ffffff" stroke="#d96a20" d="M584.27,-380.63C584.27,-380.63 509.73,-380.63 509.73,-380.63 503.73,-380.63 497.73,-374.63 497.73,-368.63 497.73,-368.63 497.73,-348.35 497.73,-348.35 497.73,-342.35 503.73,-336.35 509.73,-336.35 509.73,-336.35 584.27,-336.35 584.27,-336.35 590.27,-336.35 596.27,-342.35 596.27,-348.35 596.27,-348.35 596.27,-368.63 596.27,-368.63 596.27,-374.63 590.27,-380.63 584.27,-380.63"/>
<text xml:space="preserve" text-anchor="middle" x="547" y="-361.54" font-family="Helvetica Neue,Helvetica,Arial,sans-serif" font-size="11.00" fill="#7a3a10">Vector Search</text>
<text xml:space="preserve" text-anchor="middle" x="547" y="-348.04" font-family="Helvetica Neue,Helvetica,Arial,sans-serif" font-size="11.00" fill="#7a3a10">Hybrid mode</text>
</g>
<!-- FASTAPI&#45;&gt;VS -->
<g id="edge11" class="edge">
<title>FASTAPI&#45;&gt;VS</title>
<path fill="none" stroke="#666688" stroke-width="1.4" stroke-dasharray="5,2" d="M442.82,-473.19C451.67,-466.09 460.9,-458.24 469,-450.43 489.23,-430.93 509.82,-406.69 524.77,-388.14"/>
<polygon fill="#666688" stroke="#666688" stroke-width="1.4" points="441.43,-470.94 437.17,-477.64 444.68,-475.06 441.43,-470.94"/>
<polygon fill="#666688" stroke="#666688" stroke-width="1.4" points="526.46,-390.24 529.09,-382.74 522.35,-386.96 526.46,-390.24"/>
<text xml:space="preserve" text-anchor="middle" x="519.97" y="-436.25" font-family="Helvetica Neue,Helvetica,Arial,sans-serif" font-size="9.00" fill="#333355">semantic query</text>
</g>
<!-- SQLWH -->
<g id="node7" class="node">
<title>SQLWH</title>
<path fill="#ffffff" stroke="#d96a20" d="M756.02,-380.63C756.02,-380.63 643.98,-380.63 643.98,-380.63 637.98,-380.63 631.98,-374.63 631.98,-368.63 631.98,-368.63 631.98,-348.35 631.98,-348.35 631.98,-342.35 637.98,-336.35 643.98,-336.35 643.98,-336.35 756.02,-336.35 756.02,-336.35 762.02,-336.35 768.02,-342.35 768.02,-348.35 768.02,-348.35 768.02,-368.63 768.02,-368.63 768.02,-374.63 762.02,-380.63 756.02,-380.63"/>
<text xml:space="preserve" text-anchor="middle" x="700" y="-361.54" font-family="Helvetica Neue,Helvetica,Arial,sans-serif" font-size="11.00" fill="#7a3a10">SQL Warehouse</text>
<text xml:space="preserve" text-anchor="middle" x="700" y="-348.04" font-family="Helvetica Neue,Helvetica,Arial,sans-serif" font-size="11.00" fill="#7a3a10">ILIKE keyword search</text>
</g>
<!-- FASTAPI&#45;&gt;SQLWH -->
<g id="edge12" class="edge">
<title>FASTAPI&#45;&gt;SQLWH</title>
<path fill="none" stroke="#666688" stroke-width="1.4" stroke-dasharray="5,2" d="M452.11,-487.95C482.92,-478.91 524.06,-465.68 559,-450.43 584.62,-439.25 590.31,-434.76 614,-419.93 630.6,-409.54 648.39,-397.24 663.46,-386.46"/>
<polygon fill="#666688" stroke="#666688" stroke-width="1.4" points="451.4,-485.42 444.93,-490.03 452.86,-490.46 451.4,-485.42"/>
<polygon fill="#666688" stroke="#666688" stroke-width="1.4" points="664.8,-388.73 669.35,-382.21 661.73,-384.47 664.8,-388.73"/>
<text xml:space="preserve" text-anchor="middle" x="629.82" y="-436.25" font-family="Helvetica Neue,Helvetica,Arial,sans-serif" font-size="9.00" fill="#333355">keyword terms</text>
</g>
<!-- UCVOL -->
<g id="node8" class="node">
<title>UCVOL</title>
<path fill="#ffffff" stroke="#d96a20" d="M889.52,-383.39C889.52,-386.45 870.46,-388.93 847,-388.93 823.54,-388.93 804.48,-386.45 804.48,-383.39 804.48,-383.39 804.48,-333.58 804.48,-333.58 804.48,-330.53 823.54,-328.04 847,-328.04 870.46,-328.04 889.52,-330.53 889.52,-333.58 889.52,-333.58 889.52,-383.39 889.52,-383.39"/>
<path fill="none" stroke="#d96a20" d="M889.52,-383.39C889.52,-380.34 870.46,-377.86 847,-377.86 823.54,-377.86 804.48,-380.34 804.48,-383.39"/>
<text xml:space="preserve" text-anchor="middle" x="847" y="-361.54" font-family="Helvetica Neue,Helvetica,Arial,sans-serif" font-size="11.00" fill="#7a3a10">UC Volume</text>
<text xml:space="preserve" text-anchor="middle" x="847" y="-348.04" font-family="Helvetica Neue,Helvetica,Arial,sans-serif" font-size="11.00" fill="#7a3a10">(PDF files)</text>
</g>
<!-- FASTAPI&#45;&gt;UCVOL -->
<g id="edge14" class="edge">
<title>FASTAPI&#45;&gt;UCVOL</title>
<path fill="none" stroke="#666688" stroke-width="1.4" d="M452.05,-499.65C526.86,-496.29 677.34,-481.69 786,-419.93 797.05,-413.65 807.51,-404.85 816.54,-395.9"/>
<polygon fill="#666688" stroke="#666688" stroke-width="1.4" points="452.38,-497.01 445,-499.93 452.6,-502.25 452.38,-497.01"/>
<polygon fill="#666688" stroke="#666688" stroke-width="1.4" points="818.35,-397.8 821.68,-390.59 814.58,-394.15 818.35,-397.8"/>
<text xml:space="preserve" text-anchor="middle" x="801.75" y="-436.25" font-family="Helvetica Neue,Helvetica,Arial,sans-serif" font-size="9.00" fill="#333355">fetch / serve PDF</text>
</g>
<!-- MLFLOW -->
<g id="node9" class="node">
<title>MLFLOW</title>
<path fill="#ffffff" stroke="#2a8050" d="M128.03,-380.63C128.03,-380.63 27.97,-380.63 27.97,-380.63 21.97,-380.63 15.98,-374.63 15.98,-368.63 15.98,-368.63 15.98,-348.35 15.98,-348.35 15.98,-342.35 21.98,-336.35 27.98,-336.35 27.98,-336.35 128.03,-336.35 128.03,-336.35 134.03,-336.35 140.03,-342.35 140.03,-348.35 140.03,-348.35 140.03,-368.63 140.03,-368.63 140.03,-374.63 134.03,-380.63 128.03,-380.63"/>
<text xml:space="preserve" text-anchor="middle" x="78" y="-361.54" font-family="Helvetica Neue,Helvetica,Arial,sans-serif" font-size="11.00" fill="#1a5c35">MLflow Tracing</text>
<text xml:space="preserve" text-anchor="middle" x="78" y="-348.04" font-family="Helvetica Neue,Helvetica,Arial,sans-serif" font-size="11.00" fill="#1a5c35">/Shared/doc&#45;finder</text>
</g>
<!-- FASTAPI&#45;&gt;MLFLOW -->
<g id="edge15" class="edge">
<title>FASTAPI&#45;&gt;MLFLOW</title>
<path fill="none" stroke="#2a8050" stroke-width="1.2" stroke-dasharray="1,5" d="M369.34,-493.48C319.36,-482.76 228.16,-459.38 159,-419.93 142.26,-410.38 124.97,-397.9 110.69,-386.75"/>
<polygon fill="#2a8050" stroke="#2a8050" stroke-width="1.2" points="112.44,-384.8 104.93,-382.2 109.18,-388.91 112.44,-384.8"/>
<text xml:space="preserve" text-anchor="middle" x="248.71" y="-436.25" font-family="Helvetica Neue,Helvetica,Arial,sans-serif" font-size="9.00" fill="#2a8050">trace all calls</text>
</g>
<!-- DELTATABLE -->
<g id="node13" class="node">
<title>DELTATABLE</title>
<path fill="#ffffff" stroke="#9a7030" d="M1020.4,-253.26C1020.4,-256.31 996.47,-258.8 967,-258.8 937.53,-258.8 913.6,-256.31 913.6,-253.26 913.6,-253.26 913.6,-203.44 913.6,-203.44 913.6,-200.39 937.53,-197.91 967,-197.91 996.47,-197.91 1020.4,-200.39 1020.4,-203.44 1020.4,-203.44 1020.4,-253.26 1020.4,-253.26"/>
<path fill="none" stroke="#9a7030" d="M1020.4,-253.26C1020.4,-250.21 996.47,-247.72 967,-247.72 937.53,-247.72 913.6,-250.21 913.6,-253.26"/>
<text xml:space="preserve" text-anchor="middle" x="967" y="-231.4" font-family="Helvetica Neue,Helvetica,Arial,sans-serif" font-size="11.00" fill="#6b4a10">doc_summaries</text>
<text xml:space="preserve" text-anchor="middle" x="967" y="-217.9" font-family="Helvetica Neue,Helvetica,Arial,sans-serif" font-size="11.00" fill="#6b4a10">(Delta Table)</text>
</g>
<!-- SQLWH&#45;&gt;DELTATABLE -->
<g id="edge16" class="edge">
<title>SQLWH&#45;&gt;DELTATABLE</title>
<path fill="none" stroke="#666688" stroke-width="1.4" d="M753.43,-331.85C797.12,-310.88 858.97,-281.2 904.87,-259.17"/>
<polygon fill="#666688" stroke="#666688" stroke-width="1.4" points="752.53,-329.37 746.9,-334.98 754.8,-334.1 752.53,-329.37"/>
<polygon fill="#666688" stroke="#666688" stroke-width="1.4" points="906,-261.54 911.63,-255.93 903.73,-256.8 906,-261.54"/>
<text xml:space="preserve" text-anchor="middle" x="856.13" y="-290.49" font-family="Helvetica Neue,Helvetica,Arial,sans-serif" font-size="9.00" fill="#333355">queries</text>
</g>
<!-- AIPARSE -->
<g id="node11" class="node">
<title>AIPARSE</title>
<path fill="#ffffff" stroke="#9a7030" d="M1149.78,-519.57C1149.78,-519.57 1042.22,-519.57 1042.22,-519.57 1036.22,-519.57 1030.22,-513.57 1030.22,-507.57 1030.22,-507.57 1030.22,-495.57 1030.22,-495.57 1030.22,-489.57 1036.22,-483.57 1042.22,-483.57 1042.22,-483.57 1149.78,-483.57 1149.78,-483.57 1155.78,-483.57 1161.78,-489.57 1161.78,-495.57 1161.78,-495.57 1161.78,-507.57 1161.78,-507.57 1161.78,-513.57 1155.78,-519.57 1149.78,-519.57"/>
<text xml:space="preserve" text-anchor="middle" x="1096" y="-497.87" font-family="Helvetica Neue,Helvetica,Arial,sans-serif" font-size="11.00" fill="#6b4a10">ai_parse_document()</text>
</g>
<!-- UCVOL&#45;&gt;AIPARSE -->
<g id="edge18" class="edge">
<title>UCVOL&#45;&gt;AIPARSE</title>
<path fill="none" stroke="#666688" stroke-width="1.4" d="M865.03,-389.38C873.36,-400.69 884.25,-412.59 897,-419.93 915.74,-430.72 924.38,-421.4 945,-427.93 985.31,-440.7 1028.51,-462.38 1058.34,-478.74"/>
<polygon fill="#666688" stroke="#666688" stroke-width="1.4" points="1056.7,-480.83 1064.53,-482.17 1059.25,-476.24 1056.7,-480.83"/>
<text xml:space="preserve" text-anchor="middle" x="1021.26" y="-436.25" font-family="Helvetica Neue,Helvetica,Arial,sans-serif" font-size="9.00" fill="#333355">read PDFs</text>
</g>
<!-- L1a -->
<g id="node15" class="node">
<title>L1a</title>
<ellipse fill="#f8f8f8" stroke="#f8f8f8" cx="78" cy="-228.35" rx="0.36" ry="0.36"/>
</g>
<!-- MLFLOW&#45;&gt;L1a -->
<!-- RAWDOCS -->
<g id="node10" class="node">
<title>RAWDOCS</title>
<polygon fill="#ffffff" stroke="#9a7030" points="993.9,-519.57 990.9,-523.57 969.9,-523.57 966.9,-519.57 914.1,-519.57 914.1,-483.57 993.9,-483.57 993.9,-519.57"/>
<text xml:space="preserve" text-anchor="middle" x="954" y="-497.87" font-family="Helvetica Neue,Helvetica,Arial,sans-serif" font-size="11.00" fill="#6b4a10">raw_docs/</text>
</g>
<!-- RAWDOCS&#45;&gt;UCVOL -->
<g id="edge17" class="edge">
<title>RAWDOCS&#45;&gt;UCVOL</title>
<path fill="none" stroke="#666688" stroke-width="1.4" d="M939,-483.19C930.91,-473.65 920.84,-461.54 912.25,-450.43 898.97,-433.26 884.85,-413.75 873.16,-397.22"/>
<polygon fill="#666688" stroke="#666688" stroke-width="1.4" points="875.31,-395.72 868.85,-391.1 871.02,-398.75 875.31,-395.72"/>
<text xml:space="preserve" text-anchor="middle" x="926.12" y="-436.25" font-family="Helvetica Neue,Helvetica,Arial,sans-serif" font-size="9.00" fill="#333355">upload</text>
</g>
<!-- GEMINI -->
<g id="node12" class="node">
<title>GEMINI</title>
<path fill="#fff3d6" stroke="#9a7030" d="M1090.53,-380.63C1090.53,-380.63 1005.48,-380.63 1005.48,-380.63 999.48,-380.63 993.48,-374.63 993.48,-368.63 993.48,-368.63 993.48,-348.35 993.48,-348.35 993.48,-342.35 999.48,-336.35 1005.48,-336.35 1005.48,-336.35 1090.53,-336.35 1090.53,-336.35 1096.53,-336.35 1102.53,-342.35 1102.53,-348.35 1102.53,-348.35 1102.53,-368.63 1102.53,-368.63 1102.53,-374.63 1096.53,-380.63 1090.53,-380.63"/>
<text xml:space="preserve" text-anchor="middle" x="1048" y="-361.54" font-family="Helvetica Neue,Helvetica,Arial,sans-serif" font-size="11.00" fill="#6b4a10">Gemini 2.5 Pro</text>
<text xml:space="preserve" text-anchor="middle" x="1048" y="-348.04" font-family="Helvetica Neue,Helvetica,Arial,sans-serif" font-size="11.00" fill="#6b4a10">(Summarization)</text>
</g>
<!-- AIPARSE&#45;&gt;GEMINI -->
<g id="edge19" class="edge">
<title>AIPARSE&#45;&gt;GEMINI</title>
<path fill="none" stroke="#666688" stroke-width="1.4" d="M1090.11,-483.27C1082.21,-460.03 1068.03,-418.36 1058.33,-389.85"/>
<polygon fill="#666688" stroke="#666688" stroke-width="1.4" points="1060.93,-389.35 1056.03,-383.09 1055.96,-391.04 1060.93,-389.35"/>
<text xml:space="preserve" text-anchor="middle" x="1099.84" y="-436.25" font-family="Helvetica Neue,Helvetica,Arial,sans-serif" font-size="9.00" fill="#333355">parsed text</text>
</g>
<!-- GEMINI&#45;&gt;DELTATABLE -->
<g id="edge20" class="edge">
<title>GEMINI&#45;&gt;DELTATABLE</title>
<path fill="none" stroke="#666688" stroke-width="1.4" d="M1034.44,-336.04C1022.57,-317.26 1005.04,-289.53 990.83,-267.05"/>
<polygon fill="#666688" stroke="#666688" stroke-width="1.4" points="993.12,-265.76 986.9,-260.83 988.69,-268.57 993.12,-265.76"/>
<text xml:space="preserve" text-anchor="middle" x="1031.68" y="-290.49" font-family="Helvetica Neue,Helvetica,Arial,sans-serif" font-size="9.00" fill="#333355">summaries</text>
</g>
<!-- VSINDEX -->
<g id="node14" class="node">
<title>VSINDEX</title>
<path fill="#fff3d6" stroke="#9a7030" d="M990.02,-128.66C990.02,-128.66 931.98,-128.66 931.98,-128.66 925.98,-128.66 919.98,-122.66 919.98,-116.66 919.98,-116.66 919.98,-96.38 919.98,-96.38 919.98,-90.38 925.98,-84.38 931.98,-84.38 931.98,-84.38 990.02,-84.38 990.02,-84.38 996.02,-84.38 1002.02,-90.38 1002.02,-96.38 1002.02,-96.38 1002.02,-116.66 1002.02,-116.66 1002.02,-122.66 996.02,-128.66 990.02,-128.66"/>
<text xml:space="preserve" text-anchor="middle" x="961" y="-109.57" font-family="Helvetica Neue,Helvetica,Arial,sans-serif" font-size="11.00" fill="#6b4a10">VS Index</text>
<text xml:space="preserve" text-anchor="middle" x="961" y="-96.07" font-family="Helvetica Neue,Helvetica,Arial,sans-serif" font-size="11.00" fill="#6b4a10">Delta Sync</text>
</g>
<!-- DELTATABLE&#45;&gt;VSINDEX -->
<g id="edge21" class="edge">
<title>DELTATABLE&#45;&gt;VSINDEX</title>
<path fill="none" stroke="#666688" stroke-width="1.4" d="M965.5,-197.42C964.6,-179.41 963.45,-156.52 962.54,-138.35"/>
<polygon fill="#666688" stroke="#666688" stroke-width="1.4" points="965.17,-138.27 962.17,-130.91 959.92,-138.53 965.17,-138.27"/>
<text xml:space="preserve" text-anchor="middle" x="985.38" y="-160.36" font-family="Helvetica Neue,Helvetica,Arial,sans-serif" font-size="9.00" fill="#333355">Delta Sync</text>
</g>
<!-- VSINDEX&#45;&gt;VS -->
<g id="edge22" class="edge">
<title>VSINDEX&#45;&gt;VS</title>
<path fill="none" stroke="#666688" stroke-width="1.4" d="M925.28,-129.09C849.57,-174.8 673.15,-281.32 590.8,-331.04"/>
<polygon fill="#666688" stroke="#666688" stroke-width="1.4" points="589.53,-328.74 584.47,-334.86 592.25,-333.23 589.53,-328.74"/>
<text xml:space="preserve" text-anchor="middle" x="833.37" y="-225.43" font-family="Helvetica Neue,Helvetica,Arial,sans-serif" font-size="9.00" fill="#333355">serves index</text>
</g>
<!-- L1b -->
<g id="node16" class="node">
<title>L1b</title>
<path fill="#f8f8f8" stroke="none" d="M183.23,-235.04C183.23,-235.04 154.77,-235.04 154.77,-235.04 152.54,-235.04 150.31,-232.81 150.31,-230.58 150.31,-230.58 150.31,-226.12 150.31,-226.12 150.31,-223.89 152.54,-221.66 154.77,-221.66 154.77,-221.66 183.23,-221.66 183.23,-221.66 185.46,-221.66 187.69,-223.89 187.69,-226.12 187.69,-226.12 187.69,-230.58 187.69,-230.58 187.69,-232.81 185.46,-235.04 183.23,-235.04"/>
<text xml:space="preserve" text-anchor="middle" x="169" y="-226" font-family="Helvetica Neue,Helvetica,Arial,sans-serif" font-size="8.00" fill="#555555">Data flow</text>
</g>
<!-- L1a&#45;&gt;L1b -->
<g id="edge2" class="edge">
<title>L1a&#45;&gt;L1b</title>
<path fill="none" stroke="#666688" stroke-width="1.2" d="M78.71,-228.35C100.45,-228.35 122.18,-228.35 143.91,-228.35"/>
<polygon fill="#666688" stroke="#666688" stroke-width="1.2" points="143.84,-230.1 148.84,-228.35 143.84,-226.6 143.84,-230.1"/>
</g>
<!-- L2a -->
<g id="node17" class="node">
<title>L2a</title>
<ellipse fill="#f8f8f8" stroke="#f8f8f8" cx="77" cy="-106.52" rx="0.36" ry="0.36"/>
</g>
<!-- L1a&#45;&gt;L2a -->
<!-- L2b -->
<g id="node18" class="node">
<title>L2b</title>
<path fill="#f8f8f8" stroke="none" d="M200.23,-113.21C200.23,-113.21 153.77,-113.21 153.77,-113.21 151.54,-113.21 149.31,-110.98 149.31,-108.75 149.31,-108.75 149.31,-104.29 149.31,-104.29 149.31,-102.06 151.54,-99.83 153.77,-99.83 153.77,-99.83 200.23,-99.83 200.23,-99.83 202.46,-99.83 204.69,-102.06 204.69,-104.29 204.69,-104.29 204.69,-108.75 204.69,-108.75 204.69,-110.98 202.46,-113.21 200.23,-113.21"/>
<text xml:space="preserve" text-anchor="middle" x="177" y="-104.17" font-family="Helvetica Neue,Helvetica,Arial,sans-serif" font-size="8.00" fill="#555555">Parallel search</text>
</g>
<!-- L2a&#45;&gt;L2b -->
<g id="edge3" class="edge">
<title>L2a&#45;&gt;L2b</title>
<path fill="none" stroke="#666688" stroke-width="1.2" stroke-dasharray="5,2" d="M77.78,-106.52C99.44,-106.52 121.1,-106.52 142.76,-106.52"/>
<polygon fill="#666688" stroke="#666688" stroke-width="1.2" points="142.67,-108.27 147.67,-106.52 142.67,-104.77 142.67,-108.27"/>
</g>
<!-- L3a -->
<g id="node19" class="node">
<title>L3a</title>
<ellipse fill="#f8f8f8" stroke="#f8f8f8" cx="78" cy="-18.69" rx="0.36" ry="0.36"/>
</g>
<!-- L2a&#45;&gt;L3a -->
<!-- L3b -->
<g id="node20" class="node">
<title>L3b</title>
<path fill="#f8f8f8" stroke="none" d="M195.6,-25.38C195.6,-25.38 154.4,-25.38 154.4,-25.38 152.16,-25.38 149.94,-23.15 149.94,-20.92 149.94,-20.92 149.94,-16.46 149.94,-16.46 149.94,-14.23 152.16,-12 154.4,-12 154.4,-12 195.6,-12 195.6,-12 197.84,-12 200.06,-14.23 200.06,-16.46 200.06,-16.46 200.06,-20.92 200.06,-20.92 200.06,-23.15 197.84,-25.38 195.6,-25.38"/>
<text xml:space="preserve" text-anchor="middle" x="175" y="-16.34" font-family="Helvetica Neue,Helvetica,Arial,sans-serif" font-size="8.00" fill="#555555">MLflow trace</text>
</g>
<!-- L3a&#45;&gt;L3b -->
<g id="edge4" class="edge">
<title>L3a&#45;&gt;L3b</title>
<path fill="none" stroke="#2a8050" stroke-width="1.2" stroke-dasharray="1,5" d="M78.76,-18.69C100.34,-18.69 121.91,-18.69 143.49,-18.69"/>
<polygon fill="#2a8050" stroke="#2a8050" stroke-width="1.2" points="143.37,-20.44 148.37,-18.69 143.37,-16.94 143.37,-20.44"/>
</g>
</g>
</svg>
