<?xml version="1.0" encoding="UTF-8" standalone="no"?>
<!DOCTYPE svg PUBLIC "-//W3C//DTD SVG 1.1//EN"
 "http://www.w3.org/Graphics/SVG/1.1/DTD/svg11.dtd">
<!-- Generated by graphviz version 14.1.3 (20260303.0454)
 -->
<!-- Title: DocFinder Pages: 1 -->
<svg width="1762pt" height="847pt"
 viewBox="0.00 0.00 1762.00 847.00" xmlns="http://www.w3.org/2000/svg" xmlns:xlink="http://www.w3.org/1999/xlink">
<g id="graph0" class="graph" transform="scale(1 1) rotate(0) translate(50.4 796.15)">
<title>DocFinder</title>
<polygon fill="#ffffff" stroke="none" points="-50.4,50.4 -50.4,-796.15 1711.99,-796.15 1711.99,50.4 -50.4,50.4"/>
<text xml:space="preserve" text-anchor="middle" x="830.79" y="-724.65" font-family="Helvetica Neue,Helvetica,Arial,sans-serif" font-size="18.00" fill="#1a1a2e">Doc Finder — System Architecture</text>
<g id="clust1" class="cluster">
<title>cluster_ui</title>
<path fill="#eaf3fb" stroke="#3a7dc9" stroke-width="2.5" d="M20,-259C20,-259 427.8,-259 427.8,-259 433.8,-259 439.8,-265 439.8,-271 439.8,-271 439.8,-357 439.8,-357 439.8,-363 433.8,-369 427.8,-369 427.8,-369 20,-369 20,-369 14,-369 8,-363 8,-357 8,-357 8,-271 8,-271 8,-265 14,-259 20,-259"/>
<text xml:space="preserve" text-anchor="middle" x="223.9" y="-352.65" font-family="Helvetica Neue,Helvetica,Arial,sans-serif" font-size="13.00" fill="#1a3a5c">User Interface</text>
</g>
<g id="clust2" class="cluster">
<title>cluster_agent</title>
<path fill="#f3eef9" stroke="#7b5ea7" stroke-width="2.5" d="M608.05,-269C608.05,-269 780.05,-269 780.05,-269 786.05,-269 792.05,-275 792.05,-281 792.05,-281 792.05,-591 792.05,-591 792.05,-597 786.05,-603 780.05,-603 780.05,-603 608.05,-603 608.05,-603 602.05,-603 596.05,-597 596.05,-591 596.05,-591 596.05,-281 596.05,-281 596.05,-275 602.05,-269 608.05,-269"/>
<text xml:space="preserve" text-anchor="middle" x="694.05" y="-586.65" font-family="Helvetica Neue,Helvetica,Arial,sans-serif" font-size="13.00" fill="#3d1f6e">Search Agent &#160;(Databricks App)</text>
</g>
<g id="clust4" class="cluster">
<title>cluster_data</title>
<path fill="#fdf3eb" stroke="#d96a20" stroke-width="2.5" d="M962.39,-210C962.39,-210 1125.39,-210 1125.39,-210 1131.39,-210 1137.39,-216 1137.39,-222 1137.39,-222 1137.39,-522 1137.39,-522 1137.39,-528 1131.39,-534 1125.39,-534 1125.39,-534 962.39,-534 962.39,-534 956.39,-534 950.39,-528 950.39,-522 950.39,-522 950.39,-222 950.39,-222 950.39,-216 956.39,-210 962.39,-210"/>
<text xml:space="preserve" text-anchor="middle" x="1043.89" y="-517.65" font-family="Helvetica Neue,Helvetica,Arial,sans-serif" font-size="13.00" fill="#7a3a10">Data Sources &#160;(Unity Catalog)</text>
</g>
<g id="clust5" class="cluster">
<title>cluster_obs</title>
<path fill="#e8f5ee" stroke="#2a8050" stroke-width="2.5" d="M948.3,-603C948.3,-603 1138.48,-603 1138.48,-603 1144.48,-603 1150.48,-609 1150.48,-615 1150.48,-615 1150.48,-696 1150.48,-696 1150.48,-702 1144.48,-708 1138.48,-708 1138.48,-708 948.3,-708 948.3,-708 942.3,-708 936.3,-702 936.3,-696 936.3,-696 936.3,-615 936.3,-615 936.3,-609 942.3,-603 948.3,-603"/>
<text xml:space="preserve" text-anchor="middle" x="1043.39" y="-691.65" font-family="Helvetica Neue,Helvetica,Arial,sans-serif" font-size="13.00" fill="#1a5c35">Observability</text>
</g>
<g id="clust6" class="cluster">
<title>cluster_pipeline</title>
<path fill="#fdf7ed" stroke="#9a7030" stroke-width="2.5" d="M625.46,-8C625.46,-8 1641.59,-8 1641.59,-8 1647.59,-8 1653.59,-14 1653.59,-20 1653.59,-20 1653.59,-179 1653.59,-179 1653.59,-185 1647.59,-191 1641.59,-191 1641.59,-191 625.46,-191 625.46,-191 619.46,-191 613.46,-185 613.46,-179 613.46,-179 613.46,-20 613.46,-20 613.46,-14 619.46,-8 625.46,-8"/>
<text xml:space="preserve" text-anchor="middle" x="1133.52" y="-174.65" font-family="Helvetica Neue,Helvetica,Arial,sans-serif" font-size="13.00" fill="#6b4a10">Data Pipeline &#160;(DABs Job)</text>
</g>
<g id="clust7" class="cluster">
<title>cluster_legend</title>
<path fill="#f8f8f8" stroke="#aaaaaa" d="M77.57,-424C77.57,-424 386.17,-424 386.17,-424 392.17,-424 398.17,-430 398.17,-436 398.17,-436 398.17,-626 398.17,-626 398.17,-632 392.17,-638 386.17,-638 386.17,-638 77.57,-638 77.57,-638 71.57,-638 65.57,-632 65.57,-626 65.57,-626 65.57,-436 65.57,-436 65.57,-430 71.57,-424 77.57,-424"/>
<text xml:space="preserve" text-anchor="middle" x="231.87" y="-625.45" font-family="Helvetica Neue,Helvetica,Arial,sans-serif" font-size="9.00" fill="#555555">Legend</text>
</g>
<!-- USER -->
<g id="node1" class="node">
<title>USER</title>
<ellipse fill="#3a7dc9" stroke="#1e5b9a" cx="73.93" cy="-302" rx="57.93" ry="35.47"/>
<text xml:space="preserve" text-anchor="middle" x="73.93" y="-305.6" font-family="Helvetica Neue,Helvetica,Arial,sans-serif" font-size="12.00" fill="#ffffff">User</text>
<text xml:space="preserve" text-anchor="middle" x="73.93" y="-290.6" font-family="Helvetica Neue,Helvetica,Arial,sans-serif" font-size="12.00" fill="#ffffff">(Browser)</text>
</g>
<!-- FRONTEND -->
<g id="node2" class="node">
<title>FRONTEND</title>
<path fill="#ffffff" stroke="#3a7dc9" d="M419.8,-335.08C419.8,-335.08 276.37,-335.08 276.37,-335.08 270.37,-335.08 264.37,-329.08 264.37,-323.08 264.37,-323.08 264.37,-296.92 264.37,-296.92 264.37,-290.92 270.37,-284.92 276.37,-284.92 276.37,-284.92 419.8,-284.92 419.8,-284.92 425.8,-284.92 431.8,-290.92 431.8,-296.92 431.8,-296.92 431.8,-323.08 431.8,-323.08 431.8,-329.08 425.8,-335.08 419.8,-335.08"/>
<text xml:space="preserve" text-anchor="middle" x="348.08" y="-313.6" font-family="Helvetica Neue,Helvetica,Arial,sans-serif" font-size="12.00" fill="#1a3a5c">React Frontend</text>
<text xml:space="preserve" text-anchor="middle" x="348.08" y="-298.6" font-family="Helvetica Neue,Helvetica,Arial,sans-serif" font-size="12.00" fill="#1a3a5c">(CDN&#45;loaded, index.html)</text>
</g>
<!-- USER&#45;&gt;FRONTEND -->
<g id="edge6" class="edge">
<title>USER&#45;&gt;FRONTEND</title>
<path fill="none" stroke="#666688" stroke-width="1.6" d="M131.98,-303.68C167.11,-304.71 212.99,-306.06 253.35,-307.24"/>
<polygon fill="#666688" stroke="#666688" stroke-width="1.6" points="253.02,-310.21 261.6,-307.49 253.19,-304.26 253.02,-310.21"/>
<text xml:space="preserve" text-anchor="middle" x="198.12" y="-308.98" font-family="Helvetica Neue,Helvetica,Arial,sans-serif" font-size="10.00" fill="#333355">chat / view PDF</text>
</g>
<!-- FASTAPI -->
<g id="node4" class="node">
<title>FASTAPI</title>
<path fill="#ffffff" stroke="#7b5ea7" d="M764.51,-342.58C764.51,-342.58 622.58,-342.58 622.58,-342.58 616.58,-342.58 610.58,-336.58 610.58,-330.58 610.58,-330.58 610.58,-289.42 610.58,-289.42 610.58,-283.42 616.58,-277.42 622.58,-277.42 622.58,-277.42 764.51,-277.42 764.51,-277.42 770.51,-277.42 776.51,-283.42 776.51,-289.42 776.51,-289.42 776.51,-330.58 776.51,-330.58 776.51,-336.58 770.51,-342.58 764.51,-342.58"/>
<text xml:space="preserve" text-anchor="middle" x="693.55" y="-321.1" font-family="Helvetica Neue,Helvetica,Arial,sans-serif" font-size="12.00" fill="#3d1f6e">FastAPI Backend</text>
<text xml:space="preserve" text-anchor="middle" x="693.55" y="-306.1" font-family="Helvetica Neue,Helvetica,Arial,sans-serif" font-size="12.00" fill="#3d1f6e">POST /api/chat</text>
<text xml:space="preserve" text-anchor="middle" x="693.55" y="-291.1" font-family="Helvetica Neue,Helvetica,Arial,sans-serif" font-size="12.00" fill="#3d1f6e">GET /api/docs/{filename}</text>
</g>
<!-- FRONTEND&#45;&gt;FASTAPI -->
<g id="edge7" class="edge">
<title>FRONTEND&#45;&gt;FASTAPI</title>
<path fill="none" stroke="#666688" stroke-width="1.6" d="M442.86,-310C491.51,-310 550.77,-310 599.34,-310"/>
<polygon fill="#666688" stroke="#666688" stroke-width="1.6" points="443.15,-307.03 434.65,-310 443.15,-312.98 443.15,-307.03"/>
<polygon fill="#666688" stroke="#666688" stroke-width="1.6" points="599.25,-312.98 607.75,-310 599.25,-307.03 599.25,-312.98"/>
<text xml:space="preserve" text-anchor="middle" x="517.92" y="-324.5" font-family="Helvetica Neue,Helvetica,Arial,sans-serif" font-size="10.00" fill="#333355">POST /api/chat</text>
<text xml:space="preserve" text-anchor="middle" x="517.92" y="-312.5" font-family="Helvetica Neue,Helvetica,Arial,sans-serif" font-size="10.00" fill="#333355">GET /api/docs/{filename}</text>
</g>
<!-- HAIKU -->
<g id="node3" class="node">
<title>HAIKU</title>
<path fill="#ede0f8" stroke="#7b5ea7" d="M743.89,-571.08C743.89,-571.08 643.21,-571.08 643.21,-571.08 637.21,-571.08 631.21,-565.08 631.21,-559.08 631.21,-559.08 631.21,-532.92 631.21,-532.92 631.21,-526.92 637.21,-520.92 643.21,-520.92 643.21,-520.92 743.89,-520.92 743.89,-520.92 749.89,-520.92 755.89,-526.92 755.89,-532.92 755.89,-532.92 755.89,-559.08 755.89,-559.08 755.89,-565.08 749.89,-571.08 743.89,-571.08"/>
<text xml:space="preserve" text-anchor="middle" x="693.55" y="-549.6" font-family="Helvetica Neue,Helvetica,Arial,sans-serif" font-size="12.00" fill="#3d1f6e">Claude Haiku 4.5</text>
<text xml:space="preserve" text-anchor="middle" x="693.55" y="-534.6" font-family="Helvetica Neue,Helvetica,Arial,sans-serif" font-size="12.00" fill="#3d1f6e">(Query Classifier)</text>
</g>
<!-- HAIKU&#45;&gt;FASTAPI -->
<!-- VS -->
<g id="node6" class="node">
<title>VS</title>
<path fill="#ffffff" stroke="#d96a20" d="M1096.35,-394.58C1096.35,-394.58 990.42,-394.58 990.42,-394.58 984.42,-394.58 978.42,-388.58 978.42,-382.58 978.42,-382.58 978.42,-341.42 978.42,-341.42 978.42,-335.42 984.42,-329.42 990.42,-329.42 990.42,-329.42 1096.35,-329.42 1096.35,-329.42 1102.35,-329.42 1108.35,-335.42 1108.35,-341.42 1108.35,-341.42 1108.35,-382.58 1108.35,-382.58 1108.35,-388.58 1102.35,-394.58 1096.35,-394.58"/>
<text xml:space="preserve" text-anchor="middle" x="1043.39" y="-373.1" font-family="Helvetica Neue,Helvetica,Arial,sans-serif" font-size="12.00" fill="#7a3a10">Vector Search</text>
<text xml:space="preserve" text-anchor="middle" x="1043.39" y="-358.1" font-family="Helvetica Neue,Helvetica,Arial,sans-serif" font-size="12.00" fill="#7a3a10">Hybrid mode</text>
<text xml:space="preserve" text-anchor="middle" x="1043.39" y="-343.1" font-family="Helvetica Neue,Helvetica,Arial,sans-serif" font-size="12.00" fill="#7a3a10">(vector + keyword)</text>
</g>
<!-- HAIKU&#45;&gt;VS -->
<g id="edge9" class="edge">
<title>HAIKU&#45;&gt;VS</title>
<path fill="none" stroke="#666688" stroke-width="1.6" stroke-dasharray="5,2" d="M748.71,-520.44C771.16,-509.86 792.05,-500 792.05,-500 792.05,-500 815.05,-425 815.05,-425 815.05,-425 901.43,-401.06 967.7,-382.7"/>
<polygon fill="#666688" stroke="#666688" stroke-width="1.6" points="968.42,-385.58 975.82,-380.45 966.83,-379.85 968.42,-385.58"/>
<text xml:space="preserve" text-anchor="middle" x="864.17" y="-439.5" font-family="Helvetica Neue,Helvetica,Arial,sans-serif" font-size="10.00" fill="#333355">semantic_query</text>
<text xml:space="preserve" text-anchor="middle" x="864.17" y="-427.5" font-family="Helvetica Neue,Helvetica,Arial,sans-serif" font-size="10.00" fill="#333355">+ keyword_terms</text>
</g>
<!-- SQLWH -->
<g id="node7" class="node">
<title>SQLWH</title>
<path fill="#ffffff" stroke="#d96a20" d="M1103.1,-502.58C1103.1,-502.58 983.67,-502.58 983.67,-502.58 977.67,-502.58 971.67,-496.58 971.67,-490.58 971.67,-490.58 971.67,-449.42 971.67,-449.42 971.67,-443.42 977.67,-437.42 983.67,-437.42 983.67,-437.42 1103.1,-437.42 1103.1,-437.42 1109.1,-437.42 1115.1,-443.42 1115.1,-449.42 1115.1,-449.42 1115.1,-490.58 1115.1,-490.58 1115.1,-496.58 1109.1,-502.58 1103.1,-502.58"/>
<text xml:space="preserve" text-anchor="middle" x="1043.39" y="-481.1" font-family="Helvetica Neue,Helvetica,Arial,sans-serif" font-size="12.00" fill="#7a3a10">SQL Warehouse</text>
<text xml:space="preserve" text-anchor="middle" x="1043.39" y="-466.1" font-family="Helvetica Neue,Helvetica,Arial,sans-serif" font-size="12.00" fill="#7a3a10">ILIKE full&#45;text search</text>
<text xml:space="preserve" text-anchor="middle" x="1043.39" y="-451.1" font-family="Helvetica Neue,Helvetica,Arial,sans-serif" font-size="12.00" fill="#7a3a10">(plain_text)</text>
</g>
<!-- HAIKU&#45;&gt;SQLWH -->
<g id="edge10" class="edge">
<title>HAIKU&#45;&gt;SQLWH</title>
<path fill="none" stroke="#666688" stroke-width="1.6" stroke-dasharray="5,2" d="M756.33,-532.5C813.27,-520.06 898.15,-501.52 960.67,-487.85"/>
<polygon fill="#666688" stroke="#666688" stroke-width="1.6" points="961.25,-490.77 968.92,-486.05 959.98,-484.96 961.25,-490.77"/>
<text xml:space="preserve" text-anchor="middle" x="864.17" y="-521.75" font-family="Helvetica Neue,Helvetica,Arial,sans-serif" font-size="10.00" fill="#333355">keyword_terms (ILIKE)</text>
</g>
<!-- MLFLOW -->
<g id="node9" class="node">
<title>MLFLOW</title>
<path fill="#ffffff" stroke="#2a8050" d="M1130.48,-676.58C1130.48,-676.58 956.3,-676.58 956.3,-676.58 950.3,-676.58 944.3,-670.58 944.3,-664.58 944.3,-664.58 944.3,-623.42 944.3,-623.42 944.3,-617.42 950.3,-611.42 956.3,-611.42 956.3,-611.42 1130.48,-611.42 1130.48,-611.42 1136.48,-611.42 1142.48,-617.42 1142.48,-623.42 1142.48,-623.42 1142.48,-664.58 1142.48,-664.58 1142.48,-670.58 1136.48,-676.58 1130.48,-676.58"/>
<text xml:space="preserve" text-anchor="middle" x="1043.39" y="-655.1" font-family="Helvetica Neue,Helvetica,Arial,sans-serif" font-size="12.00" fill="#1a5c35">MLflow Tracing</text>
<text xml:space="preserve" text-anchor="middle" x="1043.39" y="-640.1" font-family="Helvetica Neue,Helvetica,Arial,sans-serif" font-size="12.00" fill="#1a5c35">experiment: /Shared/doc&#45;finder</text>
<text xml:space="preserve" text-anchor="middle" x="1043.39" y="-625.1" font-family="Helvetica Neue,Helvetica,Arial,sans-serif" font-size="12.00" fill="#1a5c35">(all agent calls)</text>
</g>
<!-- HAIKU&#45;&gt;MLFLOW -->
<g id="edge16" class="edge">
<title>HAIKU&#45;&gt;MLFLOW</title>
<path fill="none" stroke="#2a8050" stroke-width="1.4" stroke-dasharray="1,5" d="M732.34,-571.41C767.68,-595.16 815.05,-627 815.05,-627 815.05,-627 875.12,-631.49 933.51,-635.86"/>
<polygon fill="#2a8050" stroke="#2a8050" stroke-width="1.4" points="933.18,-638.82 941.88,-636.48 933.63,-632.88 933.18,-638.82"/>
<text xml:space="preserve" text-anchor="middle" x="864.17" y="-636.48" font-family="Helvetica Neue,Helvetica,Arial,sans-serif" font-size="10.00" fill="#2a8050">trace</text>
</g>
<!-- FASTAPI&#45;&gt;HAIKU -->
<g id="edge8" class="edge">
<title>FASTAPI&#45;&gt;HAIKU</title>
<path fill="none" stroke="#666688" stroke-width="1.6" d="M640.3,-342.92C580.55,-379.85 491.88,-434.67 491.88,-434.67 491.88,-434.67 491.88,-471.33 491.88,-471.33 491.88,-471.33 562.86,-497.62 620.6,-518.99"/>
<polygon fill="#666688" stroke="#666688" stroke-width="1.6" points="619.57,-521.78 628.57,-521.94 621.63,-516.2 619.57,-521.78"/>
</g>
<!-- SONNET -->
<g id="node5" class="node">
<title>SONNET</title>
<path fill="#ede0f8" stroke="#7b5ea7" d="M755.89,-478.08C755.89,-478.08 631.21,-478.08 631.21,-478.08 625.21,-478.08 619.21,-472.08 619.21,-466.08 619.21,-466.08 619.21,-439.92 619.21,-439.92 619.21,-433.92 625.21,-427.92 631.21,-427.92 631.21,-427.92 755.89,-427.92 755.89,-427.92 761.89,-427.92 767.89,-433.92 767.89,-439.92 767.89,-439.92 767.89,-466.08 767.89,-466.08 767.89,-472.08 761.89,-478.08 755.89,-478.08"/>
<text xml:space="preserve" text-anchor="middle" x="693.55" y="-456.6" font-family="Helvetica Neue,Helvetica,Arial,sans-serif" font-size="12.00" fill="#3d1f6e">Claude Sonnet 4.6</text>
<text xml:space="preserve" text-anchor="middle" x="693.55" y="-441.6" font-family="Helvetica Neue,Helvetica,Arial,sans-serif" font-size="12.00" fill="#3d1f6e">(Response Generator)</text>
</g>
<!-- FASTAPI&#45;&gt;SONNET -->
<!-- UCVOL -->
<g id="node8" class="node">
<title>UCVOL</title>
<path fill="#ffffff" stroke="#d96a20" d="M1089.98,-280.21C1089.98,-283.67 1069.09,-286.49 1043.39,-286.49 1017.68,-286.49 996.8,-283.67 996.8,-280.21 996.8,-280.21 996.8,-223.78 996.8,-223.78 996.8,-220.33 1017.68,-217.51 1043.39,-217.51 1069.09,-217.51 1089.98,-220.33 1089.98,-223.78 1089.98,-223.78 1089.98,-280.21 1089.98,-280.21"/>
<path fill="none" stroke="#d96a20" d="M1089.98,-280.21C1089.98,-276.76 1069.09,-273.94 1043.39,-273.94 1017.68,-273.94 996.8,-276.76 996.8,-280.21"/>
<text xml:space="preserve" text-anchor="middle" x="1043.39" y="-255.6" font-family="Helvetica Neue,Helvetica,Arial,sans-serif" font-size="12.00" fill="#7a3a10">UC Volume</text>
<text xml:space="preserve" text-anchor="middle" x="1043.39" y="-240.6" font-family="Helvetica Neue,Helvetica,Arial,sans-serif" font-size="12.00" fill="#7a3a10">(PDF files)</text>
</g>
<!-- FASTAPI&#45;&gt;UCVOL -->
<g id="edge14" class="edge">
<title>FASTAPI&#45;&gt;UCVOL</title>
<path fill="none" stroke="#666688" stroke-width="1.6" d="M751.27,-277.05C782.52,-258.89 815.05,-240 815.05,-240 815.05,-240 913.3,-240 913.3,-240 913.3,-240 951.17,-243.52 985.88,-246.75"/>
<polygon fill="#666688" stroke="#666688" stroke-width="1.6" points="985.36,-249.69 994.1,-247.51 985.91,-243.76 985.36,-249.69"/>
<text xml:space="preserve" text-anchor="middle" x="864.17" y="-242.5" font-family="Helvetica Neue,Helvetica,Arial,sans-serif" font-size="10.00" fill="#333355">serve PDF</text>
</g>
<!-- SONNET&#45;&gt;FASTAPI -->
<g id="edge13" class="edge">
<title>SONNET&#45;&gt;FASTAPI</title>
<path fill="none" stroke="#666688" stroke-width="1.6" d="M693.55,-427.47C693.55,-406.97 693.55,-377.7 693.55,-353.51"/>
<polygon fill="#666688" stroke="#666688" stroke-width="1.6" points="696.52,-353.73 693.55,-345.23 690.57,-353.73 696.52,-353.73"/>
<text xml:space="preserve" text-anchor="middle" x="684.55" y="-381.75" font-family="Helvetica Neue,Helvetica,Arial,sans-serif" font-size="10.00" fill="#333355">answer + doc list</text>
</g>
<!-- SONNET&#45;&gt;MLFLOW -->
<g id="edge17" class="edge">
<title>SONNET&#45;&gt;MLFLOW</title>
<path fill="none" stroke="#2a8050" stroke-width="1.4" stroke-dasharray="1,5" d="M748.71,-478.56C771.16,-489.14 792.05,-499 792.05,-499 792.05,-499 815.05,-541 815.05,-541 815.05,-541 894.97,-577.21 960.04,-606.69"/>
<polygon fill="#2a8050" stroke="#2a8050" stroke-width="1.4" points="958.62,-609.31 967.59,-610.11 961.07,-603.89 958.62,-609.31"/>
<text xml:space="preserve" text-anchor="middle" x="864.17" y="-585.77" font-family="Helvetica Neue,Helvetica,Arial,sans-serif" font-size="10.00" fill="#2a8050">trace</text>
</g>
<!-- VS&#45;&gt;SONNET -->
<g id="edge11" class="edge">
<title>VS&#45;&gt;SONNET</title>
<path fill="none" stroke="#666688" stroke-width="1.6" d="M978.22,-361.01C945.82,-360.5 913.3,-360 913.3,-360 913.3,-360 815.05,-360 815.05,-360 815.05,-360 770.94,-394.04 736.1,-420.93"/>
<polygon fill="#666688" stroke="#666688" stroke-width="1.6" points="734.3,-418.56 729.39,-426.11 737.94,-423.27 734.3,-418.56"/>
<text xml:space="preserve" text-anchor="middle" x="864.17" y="-362.5" font-family="Helvetica Neue,Helvetica,Arial,sans-serif" font-size="10.00" fill="#333355">results</text>
</g>
<!-- SQLWH&#45;&gt;SONNET -->
<g id="edge12" class="edge">
<title>SQLWH&#45;&gt;SONNET</title>
<path fill="none" stroke="#666688" stroke-width="1.6" d="M971.4,-466.53C915.7,-463.81 838,-460.01 779.09,-457.13"/>
<polygon fill="#666688" stroke="#666688" stroke-width="1.6" points="779.37,-454.17 770.73,-456.72 779.08,-460.11 779.37,-454.17"/>
<text xml:space="preserve" text-anchor="middle" x="864.17" y="-466.02" font-family="Helvetica Neue,Helvetica,Arial,sans-serif" font-size="10.00" fill="#333355">results</text>
</g>
<!-- UCVOL&#45;&gt;FASTAPI -->
<g id="edge15" class="edge">
<title>UCVOL&#45;&gt;FASTAPI</title>
<path fill="none" stroke="#666688" stroke-width="1.6" d="M996.76,-259.61C943.86,-268.43 855.27,-283.2 787.64,-294.48"/>
<polygon fill="#666688" stroke="#666688" stroke-width="1.6" points="787.26,-291.52 779.37,-295.86 788.24,-297.39 787.26,-291.52"/>
<text xml:space="preserve" text-anchor="middle" x="864.17" y="-292.08" font-family="Helvetica Neue,Helvetica,Arial,sans-serif" font-size="10.00" fill="#333355">PDF bytes</text>
</g>
<!-- AIPARSE -->
<g id="node11" class="node">
<title>AIPARSE</title>
<path fill="#ffffff" stroke="#9a7030" d="M753.64,-66.08C753.64,-66.08 633.46,-66.08 633.46,-66.08 627.46,-66.08 621.46,-60.08 621.46,-54.08 621.46,-54.08 621.46,-27.92 621.46,-27.92 621.46,-21.92 627.46,-15.92 633.46,-15.92 633.46,-15.92 753.64,-15.92 753.64,-15.92 759.64,-15.92 765.64,-21.92 765.64,-27.92 765.64,-27.92 765.64,-54.08 765.64,-54.08 765.64,-60.08 759.64,-66.08 753.64,-66.08"/>
<text xml:space="preserve" text-anchor="middle" x="693.55" y="-44.6" font-family="Helvetica Neue,Helvetica,Arial,sans-serif" font-size="12.00" fill="#6b4a10">ai_parse_document()</text>
<text xml:space="preserve" text-anchor="middle" x="693.55" y="-29.6" font-family="Helvetica Neue,Helvetica,Arial,sans-serif" font-size="12.00" fill="#6b4a10">(SQL Warehouse)</text>
</g>
<!-- UCVOL&#45;&gt;AIPARSE -->
<g id="edge19" class="edge">
<title>UCVOL&#45;&gt;AIPARSE</title>
<path fill="none" stroke="#666688" stroke-width="1.6" d="M996.47,-229.93C967.8,-216.14 936.3,-201 936.3,-201 936.3,-201 913.3,-154 913.3,-154 913.3,-154 792.05,-87 792.05,-87 792.05,-87 776.9,-79.85 758.54,-71.19"/>
<polygon fill="#666688" stroke="#666688" stroke-width="1.6" points="759.86,-68.53 750.9,-67.59 757.32,-73.91 759.86,-68.53"/>
<text xml:space="preserve" text-anchor="middle" x="864.17" y="-156.5" font-family="Helvetica Neue,Helvetica,Arial,sans-serif" font-size="10.00" fill="#333355">parse PDF</text>
</g>
<!-- RAWDOCS -->
<g id="node10" class="node">
<title>RAWDOCS</title>
<polygon fill="#ffffff" stroke="#9a7030" points="743.14,-159.08 740.14,-163.08 719.14,-163.08 716.14,-159.08 643.96,-159.08 643.96,-108.92 743.14,-108.92 743.14,-159.08"/>
<text xml:space="preserve" text-anchor="middle" x="693.55" y="-137.6" font-family="Helvetica Neue,Helvetica,Arial,sans-serif" font-size="12.00" fill="#6b4a10">raw_docs/</text>
<text xml:space="preserve" text-anchor="middle" x="693.55" y="-122.6" font-family="Helvetica Neue,Helvetica,Arial,sans-serif" font-size="12.00" fill="#6b4a10">(PDF source)</text>
</g>
<!-- RAWDOCS&#45;&gt;UCVOL -->
<g id="edge18" class="edge">
<title>RAWDOCS&#45;&gt;UCVOL</title>
<path fill="none" stroke="#666688" stroke-width="1.6" d="M743.28,-150.53C807.21,-172.22 919.16,-210.2 986.48,-233.03"/>
<polygon fill="#666688" stroke="#666688" stroke-width="1.6" points="985.18,-235.73 994.18,-235.65 987.09,-230.1 985.18,-235.73"/>
<text xml:space="preserve" text-anchor="middle" x="864.17" y="-209.54" font-family="Helvetica Neue,Helvetica,Arial,sans-serif" font-size="10.00" fill="#333355">upload to volume</text>
</g>
<!-- GEMINI -->
<g id="node12" class="node">
<title>GEMINI</title>
<path fill="#fff3d6" stroke="#9a7030" d="M1099.73,-91.58C1099.73,-91.58 987.05,-91.58 987.05,-91.58 981.05,-91.58 975.05,-85.58 975.05,-79.58 975.05,-79.58 975.05,-38.42 975.05,-38.42 975.05,-32.42 981.05,-26.42 987.05,-26.42 987.05,-26.42 1099.73,-26.42 1099.73,-26.42 1105.73,-26.42 1111.73,-32.42 1111.73,-38.42 1111.73,-38.42 1111.73,-79.58 1111.73,-79.58 1111.73,-85.58 1105.73,-91.58 1099.73,-91.58"/>
<text xml:space="preserve" text-anchor="middle" x="1043.39" y="-70.1" font-family="Helvetica Neue,Helvetica,Arial,sans-serif" font-size="12.00" fill="#6b4a10">Gemini 2.5 Pro</text>
<text xml:space="preserve" text-anchor="middle" x="1043.39" y="-55.1" font-family="Helvetica Neue,Helvetica,Arial,sans-serif" font-size="12.00" fill="#6b4a10">(Summarization)</text>
<text xml:space="preserve" text-anchor="middle" x="1043.39" y="-40.1" font-family="Helvetica Neue,Helvetica,Arial,sans-serif" font-size="12.00" fill="#6b4a10">via SQL Warehouse</text>
</g>
<!-- AIPARSE&#45;&gt;GEMINI -->
<g id="edge20" class="edge">
<title>AIPARSE&#45;&gt;GEMINI</title>
<path fill="none" stroke="#666688" stroke-width="1.6" d="M765.78,-44.69C823.41,-47.67 904.48,-51.86 963.95,-54.94"/>
<polygon fill="#666688" stroke="#666688" stroke-width="1.6" points="963.74,-57.91 972.38,-55.38 964.04,-51.97 963.74,-57.91"/>
<text xml:space="preserve" text-anchor="middle" x="864.17" y="-54.64" font-family="Helvetica Neue,Helvetica,Arial,sans-serif" font-size="10.00" fill="#333355">raw text</text>
</g>
<!-- DELTATABLE -->
<g id="node13" class="node">
<title>DELTATABLE</title>
<path fill="#ffffff" stroke="#9a7030" d="M1370.41,-104.22C1370.41,-107.67 1343.98,-110.48 1311.44,-110.48 1278.91,-110.48 1252.48,-107.67 1252.48,-104.22 1252.48,-104.22 1252.48,-47.78 1252.48,-47.78 1252.48,-44.33 1278.91,-41.52 1311.44,-41.52 1343.98,-41.52 1370.41,-44.33 1370.41,-47.78 1370.41,-47.78 1370.41,-104.22 1370.41,-104.22"/>
<path fill="none" stroke="#9a7030" d="M1370.41,-104.22C1370.41,-100.76 1343.98,-97.95 1311.44,-97.95 1278.91,-97.95 1252.48,-100.76 1252.48,-104.22"/>
<text xml:space="preserve" text-anchor="middle" x="1311.44" y="-79.6" font-family="Helvetica Neue,Helvetica,Arial,sans-serif" font-size="12.00" fill="#6b4a10">doc_summaries</text>
<text xml:space="preserve" text-anchor="middle" x="1311.44" y="-64.6" font-family="Helvetica Neue,Helvetica,Arial,sans-serif" font-size="12.00" fill="#6b4a10">(Delta Table)</text>
</g>
<!-- GEMINI&#45;&gt;DELTATABLE -->
<g id="edge21" class="edge">
<title>GEMINI&#45;&gt;DELTATABLE</title>
<path fill="none" stroke="#666688" stroke-width="1.6" d="M1112.21,-63.33C1151.84,-65.87 1201.72,-69.05 1241.54,-71.6"/>
<polygon fill="#666688" stroke="#666688" stroke-width="1.6" points="1241.13,-74.55 1249.8,-72.13 1241.51,-68.61 1241.13,-74.55"/>
<text xml:space="preserve" text-anchor="middle" x="1197.48" y="-72.52" font-family="Helvetica Neue,Helvetica,Arial,sans-serif" font-size="10.00" fill="#333355">summaries</text>
</g>
<!-- VSINDEX -->
<g id="node14" class="node">
<title>VSINDEX</title>
<path fill="#fff3d6" stroke="#9a7030" d="M1633.59,-142.58C1633.59,-142.58 1492.41,-142.58 1492.41,-142.58 1486.41,-142.58 1480.41,-136.58 1480.41,-130.58 1480.41,-130.58 1480.41,-89.42 1480.41,-89.42 1480.41,-83.42 1486.41,-77.42 1492.41,-77.42 1492.41,-77.42 1633.59,-77.42 1633.59,-77.42 1639.59,-77.42 1645.59,-83.42 1645.59,-89.42 1645.59,-89.42 1645.59,-130.58 1645.59,-130.58 1645.59,-136.58 1639.59,-142.58 1633.59,-142.58"/>
<text xml:space="preserve" text-anchor="middle" x="1563" y="-121.1" font-family="Helvetica Neue,Helvetica,Arial,sans-serif" font-size="12.00" fill="#6b4a10">Vector Search Index</text>
<text xml:space="preserve" text-anchor="middle" x="1563" y="-106.1" font-family="Helvetica Neue,Helvetica,Arial,sans-serif" font-size="12.00" fill="#6b4a10">Delta Sync</text>
<text xml:space="preserve" text-anchor="middle" x="1563" y="-91.1" font-family="Helvetica Neue,Helvetica,Arial,sans-serif" font-size="12.00" fill="#6b4a10">(databricks&#45;gte&#45;large&#45;en)</text>
</g>
<!-- DELTATABLE&#45;&gt;VSINDEX -->
<g id="edge22" class="edge">
<title>DELTATABLE&#45;&gt;VSINDEX</title>
<path fill="none" stroke="#666688" stroke-width="1.6" d="M1370.64,-83.93C1400.01,-87.93 1436.34,-92.88 1469.43,-97.39"/>
<polygon fill="#666688" stroke="#666688" stroke-width="1.6" points="1468.82,-100.31 1477.64,-98.51 1469.62,-94.41 1468.82,-100.31"/>
<text xml:space="preserve" text-anchor="middle" x="1425.41" y="-96.52" font-family="Helvetica Neue,Helvetica,Arial,sans-serif" font-size="10.00" fill="#333355">Delta Sync</text>
</g>
<!-- VSINDEX&#45;&gt;VS -->
<g id="edge23" class="edge">
<title>VSINDEX&#45;&gt;VS</title>
<path fill="none" stroke="#666688" stroke-width="1.6" d="M1494.13,-143.04C1396.96,-190.35 1218.87,-277.05 1118.41,-325.96"/>
<polygon fill="#666688" stroke="#666688" stroke-width="1.6" points="1117.15,-323.26 1110.81,-329.66 1119.76,-328.61 1117.15,-323.26"/>
<text xml:space="preserve" text-anchor="middle" x="1311.44" y="-271.41" font-family="Helvetica Neue,Helvetica,Arial,sans-serif" font-size="10.00" fill="#333355">serves index</text>
<text xml:space="preserve" text-anchor="middle" x="1311.44" y="-259.41" font-family="Helvetica Neue,Helvetica,Arial,sans-serif" font-size="10.00" fill="#333355">(live queries)</text>
</g>
<!-- L1a -->
<g id="node15" class="node">
<title>L1a</title>
<ellipse fill="#f8f8f8" stroke="#f8f8f8" cx="73.93" cy="-447" rx="0.36" ry="0.36"/>
</g>
<!-- L1b -->
<g id="node16" class="node">
<title>L1b</title>
<path fill="#f8f8f8" stroke="none" d="M370.95,-462.33C370.95,-462.33 325.21,-462.33 325.21,-462.33 320.1,-462.33 314.99,-457.22 314.99,-452.11 314.99,-452.11 314.99,-441.89 314.99,-441.89 314.99,-436.78 320.1,-431.67 325.21,-431.67 325.21,-431.67 370.95,-431.67 370.95,-431.67 376.06,-431.67 381.17,-436.78 381.17,-441.89 381.17,-441.89 381.17,-452.11 381.17,-452.11 381.17,-457.22 376.06,-462.33 370.95,-462.33"/>
<text xml:space="preserve" text-anchor="middle" x="348.08" y="-444.65" font-family="Helvetica Neue,Helvetica,Arial,sans-serif" font-size="8.00" fill="#555555">Data flow</text>
</g>
<!-- L1a&#45;&gt;L1b -->
<g id="edge3" class="edge">
<title>L1a&#45;&gt;L1b</title>
<path fill="none" stroke="#666688" stroke-width="1.2" d="M74.98,-447C78.16,-447 233.3,-447 307.87,-447"/>
<polygon fill="#666688" stroke="#666688" stroke-width="1.2" points="307.44,-449.1 313.44,-447 307.44,-444.9 307.44,-449.1"/>
</g>
<!-- L2a -->
<g id="node17" class="node">
<title>L2a</title>
<ellipse fill="#f8f8f8" stroke="#f8f8f8" cx="73.93" cy="-521" rx="0.36" ry="0.36"/>
</g>
<!-- L2b -->
<g id="node18" class="node">
<title>L2b</title>
<path fill="#f8f8f8" stroke="none" d="M379.95,-536.33C379.95,-536.33 316.21,-536.33 316.21,-536.33 311.1,-536.33 305.99,-531.22 305.99,-526.11 305.99,-526.11 305.99,-515.89 305.99,-515.89 305.99,-510.78 311.1,-505.67 316.21,-505.67 316.21,-505.67 379.95,-505.67 379.95,-505.67 385.06,-505.67 390.17,-510.78 390.17,-515.89 390.17,-515.89 390.17,-526.11 390.17,-526.11 390.17,-531.22 385.06,-536.33 379.95,-536.33"/>
<text xml:space="preserve" text-anchor="middle" x="348.08" y="-518.65" font-family="Helvetica Neue,Helvetica,Arial,sans-serif" font-size="8.00" fill="#555555">Parallel search</text>
</g>
<!-- L2a&#45;&gt;L2b -->
<g id="edge4" class="edge">
<title>L2a&#45;&gt;L2b</title>
<path fill="none" stroke="#666688" stroke-width="1.2" stroke-dasharray="5,2" d="M74.98,-521C78.03,-521 220.82,-521 298.29,-521"/>
<polygon fill="#666688" stroke="#666688" stroke-width="1.2" points="298.22,-523.1 304.22,-521 298.22,-518.9 298.22,-523.1"/>
</g>
<!-- L3a -->
<g id="node19" class="node">
<title>L3a</title>
<ellipse fill="#f8f8f8" stroke="#f8f8f8" cx="73.93" cy="-595" rx="0.36" ry="0.36"/>
</g>
<!-- L3b -->
<g id="node20" class="node">
<title>L3b</title>
<path fill="#f8f8f8" stroke="none" d="M377.33,-610.33C377.33,-610.33 318.84,-610.33 318.84,-610.33 313.73,-610.33 308.62,-605.22 308.62,-600.11 308.62,-600.11 308.62,-589.89 308.62,-589.89 308.62,-584.78 313.73,-579.67 318.84,-579.67 318.84,-579.67 377.33,-579.67 377.33,-579.67 382.44,-579.67 387.55,-584.78 387.55,-589.89 387.55,-589.89 387.55,-600.11 387.55,-600.11 387.55,-605.22 382.44,-610.33 377.33,-610.33"/>
<text xml:space="preserve" text-anchor="middle" x="348.08" y="-592.65" font-family="Helvetica Neue,Helvetica,Arial,sans-serif" font-size="8.00" fill="#555555">MLflow trace</text>
</g>
<!-- L3a&#45;&gt;L3b -->
<g id="edge5" class="edge">
<title>L3a&#45;&gt;L3b</title>
<path fill="none" stroke="#2a8050" stroke-width="1.2" stroke-dasharray="1,5" d="M74.98,-595C78.07,-595 224.17,-595 300.98,-595"/>
<polygon fill="#2a8050" stroke="#2a8050" stroke-width="1.2" points="300.82,-597.1 306.82,-595 300.82,-592.9 300.82,-597.1"/>
</g>
</g>
</svg>
