<?xml version="1.0" encoding="UTF-8" standalone="no"?>
<!DOCTYPE svg PUBLIC "-//W3C//DTD SVG 1.1//EN"
 "http://www.w3.org/Graphics/SVG/1.1/DTD/svg11.dtd">
<!-- Generated by graphviz version 14.1.3 (20260303.0454)
 -->
<!-- Title: DocFinder Pages: 1 -->
<svg width="1256pt" height="922pt"
 viewBox="0.00 0.00 1256.00 922.00" xmlns="http://www.w3.org/2000/svg" xmlns:xlink="http://www.w3.org/1999/xlink">
<g id="graph0" class="graph" transform="scale(1 1) rotate(0) translate(36 886.34)">
<title>DocFinder</title>
<polygon fill="#ffffff" stroke="none" points="-36,36 -36,-886.34 1220,-886.34 1220,36 -36,36"/>
<text xml:space="preserve" text-anchor="middle" x="592" y="-829.24" font-family="Helvetica Neue,Helvetica,Arial,sans-serif" font-size="18.00" fill="#1a1a2e">Doc Finder — System Architecture</text>
<g id="clust1" class="cluster">
<title>cluster_app</title>
<path fill="#f3eef9" stroke="#7b5ea7" stroke-width="2" d="M20,-284.67C20,-284.67 298,-284.67 298,-284.67 304,-284.67 310,-290.67 310,-296.67 310,-296.67 310,-676.17 310,-676.17 310,-682.17 304,-688.17 298,-688.17 298,-688.17 20,-688.17 20,-688.17 14,-688.17 8,-682.17 8,-676.17 8,-676.17 8,-296.67 8,-296.67 8,-290.67 14,-284.67 20,-284.67"/>
<text xml:space="preserve" text-anchor="middle" x="159" y="-672.77" font-family="Helvetica Neue,Helvetica,Arial,sans-serif" font-size="12.00" fill="#3d1f6e">Databricks App</text>
</g>
<g id="clust3" class="cluster">
<title>cluster_data</title>
<path fill="#fdf3eb" stroke="#d96a20" stroke-width="2" d="M432,-276.36C432,-276.36 816,-276.36 816,-276.36 822,-276.36 828,-282.36 828,-288.36 828,-288.36 828,-387.25 828,-387.25 828,-393.25 822,-399.25 816,-399.25 816,-399.25 432,-399.25 432,-399.25 426,-399.25 420,-393.25 420,-387.25 420,-387.25 420,-288.36 420,-288.36 420,-282.36 426,-276.36 432,-276.36"/>
<text xml:space="preserve" text-anchor="middle" x="624" y="-383.85" font-family="Helvetica Neue,Helvetica,Arial,sans-serif" font-size="12.00" fill="#7a3a10">Data Sources &#160;(Unity Catalog)</text>
</g>
<g id="clust4" class="cluster">
<title>cluster_obs</title>
<path fill="#e8f5ee" stroke="#2a8050" stroke-width="2" d="M94,-129.83C94,-129.83 210,-129.83 210,-129.83 216,-129.83 222,-135.83 222,-141.83 222,-141.83 222,-224.11 222,-224.11 222,-230.11 216,-236.11 210,-236.11 210,-236.11 94,-236.11 94,-236.11 88,-236.11 82,-230.11 82,-224.11 82,-224.11 82,-141.83 82,-141.83 82,-135.83 88,-129.83 94,-129.83"/>
<text xml:space="preserve" text-anchor="middle" x="152" y="-220.71" font-family="Helvetica Neue,Helvetica,Arial,sans-serif" font-size="12.00" fill="#1a5c35">Observability</text>
</g>
<g id="clust5" class="cluster">
<title>cluster_pipeline</title>
<path fill="#fdf7ed" stroke="#9a7030" stroke-width="2" d="M848,-8C848,-8 1088,-8 1088,-8 1094,-8 1100,-14 1100,-20 1100,-20 1100,-529.64 1100,-529.64 1100,-535.64 1094,-541.64 1088,-541.64 1088,-541.64 848,-541.64 848,-541.64 842,-541.64 836,-535.64 836,-529.64 836,-529.64 836,-20 836,-20 836,-14 842,-8 848,-8"/>
<text xml:space="preserve" text-anchor="middle" x="968" y="-526.24" font-family="Helvetica Neue,Helvetica,Arial,sans-serif" font-size="12.00" fill="#6b4a10">Data Pipeline &#160;(DABs Job)</text>
</g>
<g id="clust6" class="cluster">
<title>cluster_legend</title>
<path fill="#f8f8f8" stroke="#aaaaaa" d="M1120,-25.45C1120,-25.45 1164,-25.45 1164,-25.45 1170,-25.45 1176,-31.45 1176,-37.45 1176,-37.45 1176,-800.59 1176,-800.59 1176,-806.59 1170,-812.59 1164,-812.59 1164,-812.59 1120,-812.59 1120,-812.59 1114,-812.59 1108,-806.59 1108,-800.59 1108,-800.59 1108,-37.45 1108,-37.45 1108,-31.45 1114,-25.45 1120,-25.45"/>
<text xml:space="preserve" text-anchor="middle" x="1142" y="-800.04" font-family="Helvetica Neue,Helvetica,Arial,sans-serif" font-size="9.00" fill="#555555">Legend</text>
</g>
<!-- USER -->
<g id="node1" class="node">
<title>USER</title>
<ellipse fill="#3a7dc9" stroke="#1e5b9a" cx="170" cy="-767.73" rx="53.25" ry="31.31"/>
<text xml:space="preserve" text-anchor="middle" x="170" y="-770.78" font-family="Helvetica Neue,Helvetica,Arial,sans-serif" font-size="11.00" fill="#ffffff">User</text>
<text xml:space="preserve" text-anchor="middle" x="170" y="-757.28" font-family="Helvetica Neue,Helvetica,Arial,sans-serif" font-size="11.00" fill="#ffffff">(Browser)</text>
</g>
<!-- FRONTEND -->
<g id="node2" class="node">
<title>FRONTEND</title>
<path fill="#ffffff" stroke="#3a7dc9" d="M210.65,-634.17C210.65,-634.17 129.35,-634.17 129.35,-634.17 123.35,-634.17 117.35,-628.17 117.35,-622.17 117.35,-622.17 117.35,-601.89 117.35,-601.89 117.35,-595.89 123.35,-589.89 129.35,-589.89 129.35,-589.89 210.65,-589.89 210.65,-589.89 216.65,-589.89 222.65,-595.89 222.65,-601.89 222.65,-601.89 222.65,-622.17 222.65,-622.17 222.65,-628.17 216.65,-634.17 210.65,-634.17"/>
<text xml:space="preserve" text-anchor="middle" x="170" y="-615.08" font-family="Helvetica Neue,Helvetica,Arial,sans-serif" font-size="11.00" fill="#1a3a5c">React Frontend</text>
<text xml:space="preserve" text-anchor="middle" x="170" y="-601.58" font-family="Helvetica Neue,Helvetica,Arial,sans-serif" font-size="11.00" fill="#1a3a5c">(CDN&#45;loaded)</text>
</g>
<!-- USER&#45;&gt;FRONTEND -->
<g id="edge9" class="edge">
<title>USER&#45;&gt;FRONTEND</title>
<path fill="none" stroke="#666688" stroke-width="1.4" d="M170,-726.38C170,-700.57 170,-667.6 170,-643.87"/>
<polygon fill="#666688" stroke="#666688" stroke-width="1.4" points="167.38,-726.37 170,-733.88 172.63,-726.38 167.38,-726.37"/>
<polygon fill="#666688" stroke="#666688" stroke-width="1.4" points="172.63,-643.94 170,-636.44 167.38,-643.94 172.63,-643.94"/>
<text xml:space="preserve" text-anchor="middle" x="201.12" y="-698.87" font-family="Helvetica Neue,Helvetica,Arial,sans-serif" font-size="9.00" fill="#333355">chat / view PDF</text>
</g>
<!-- FASTAPI -->
<g id="node3" class="node">
<title>FASTAPI</title>
<path fill="#ffffff" stroke="#7b5ea7" d="M195.53,-491.78C195.53,-491.78 146.47,-491.78 146.47,-491.78 140.47,-491.78 134.47,-485.78 134.47,-479.78 134.47,-479.78 134.47,-459.5 134.47,-459.5 134.47,-453.5 140.47,-447.5 146.47,-447.5 146.47,-447.5 195.53,-447.5 195.53,-447.5 201.53,-447.5 207.53,-453.5 207.53,-459.5 207.53,-459.5 207.53,-479.78 207.53,-479.78 207.53,-485.78 201.53,-491.78 195.53,-491.78"/>
<text xml:space="preserve" text-anchor="middle" x="171" y="-472.69" font-family="Helvetica Neue,Helvetica,Arial,sans-serif" font-size="11.00" fill="#3d1f6e">FastAPI</text>
<text xml:space="preserve" text-anchor="middle" x="171" y="-459.19" font-family="Helvetica Neue,Helvetica,Arial,sans-serif" font-size="11.00" fill="#3d1f6e">Backend</text>
</g>
<!-- FRONTEND&#45;&gt;FASTAPI -->
<!-- FRONTEND&#45;&gt;FASTAPI -->
<g id="edge10" class="edge">
<title>FRONTEND&#45;&gt;FASTAPI</title>
<path fill="none" stroke="#666688" stroke-width="1.4" d="M150.48,-581.15C147.18,-574.71 144.26,-567.76 142.5,-560.89 137.24,-540.37 144.51,-517.63 153.01,-500.11"/>
<polygon fill="#666688" stroke="#666688" stroke-width="1.4" points="148.19,-582.42 154.11,-587.71 152.78,-579.88 148.19,-582.42"/>
<polygon fill="#666688" stroke="#666688" stroke-width="1.4" points="155.14,-501.71 156.27,-493.84 150.48,-499.29 155.14,-501.71"/>
<text xml:space="preserve" text-anchor="middle" x="159.75" y="-552.34" font-family="Helvetica Neue,Helvetica,Arial,sans-serif" font-size="9.00" fill="#333355">API calls</text>
</g>
<!-- HAIKU -->
<g id="node4" class="node">
<title>HAIKU</title>
<path fill="#ede0f8" stroke="#7b5ea7" d="M289.77,-336.94C289.77,-336.94 200.22,-336.94 200.22,-336.94 194.22,-336.94 188.22,-330.94 188.22,-324.94 188.22,-324.94 188.22,-304.67 188.22,-304.67 188.22,-298.67 194.22,-292.67 200.22,-292.67 200.22,-292.67 289.77,-292.67 289.77,-292.67 295.77,-292.67 301.77,-298.67 301.77,-304.67 301.77,-304.67 301.77,-324.94 301.77,-324.94 301.77,-330.94 295.77,-336.94 289.77,-336.94"/>
<text xml:space="preserve" text-anchor="middle" x="245" y="-317.86" font-family="Helvetica Neue,Helvetica,Arial,sans-serif" font-size="11.00" fill="#3d1f6e">Claude Haiku 4.5</text>
<text xml:space="preserve" text-anchor="middle" x="245" y="-304.36" font-family="Helvetica Neue,Helvetica,Arial,sans-serif" font-size="11.00" fill="#3d1f6e">(Query Classifier)</text>
</g>
<!-- FASTAPI&#45;&gt;HAIKU -->
<!-- FASTAPI&#45;&gt;HAIKU -->
<g id="edge11" class="edge">
<title>FASTAPI&#45;&gt;HAIKU</title>
<path fill="none" stroke="#666688" stroke-width="1.4" d="M165.94,-447.28C164.06,-435.19 163.35,-419.98 168,-407.25 176.98,-382.63 195.83,-360.06 212.63,-343.5"/>
<polygon fill="#666688" stroke="#666688" stroke-width="1.4" points="214.05,-345.78 217.65,-338.69 210.42,-341.98 214.05,-345.78"/>
<text xml:space="preserve" text-anchor="middle" x="189" y="-409.95" font-family="Helvetica Neue,Helvetica,Arial,sans-serif" font-size="9.00" fill="#333355">user query</text>
</g>
<!-- SONNET -->
<g id="node5" class="node">
<title>SONNET</title>
<path fill="#ede0f8" stroke="#7b5ea7" d="M140.03,-336.94C140.03,-336.94 27.97,-336.94 27.97,-336.94 21.97,-336.94 15.97,-330.94 15.97,-324.94 15.97,-324.94 15.97,-304.67 15.97,-304.67 15.97,-298.67 21.97,-292.67 27.97,-292.67 27.97,-292.67 140.03,-292.67 140.03,-292.67 146.03,-292.67 152.03,-298.67 152.03,-304.67 152.03,-304.67 152.03,-324.94 152.03,-324.94 152.03,-330.94 146.03,-336.94 140.03,-336.94"/>
<text xml:space="preserve" text-anchor="middle" x="84" y="-317.86" font-family="Helvetica Neue,Helvetica,Arial,sans-serif" font-size="11.00" fill="#3d1f6e">Claude Sonnet 4.6</text>
<text xml:space="preserve" text-anchor="middle" x="84" y="-304.36" font-family="Helvetica Neue,Helvetica,Arial,sans-serif" font-size="11.00" fill="#3d1f6e">(Response Generator)</text>
</g>
<!-- FASTAPI&#45;&gt;SONNET -->
<!-- UCVOL -->
<g id="node8" class="node">
<title>UCVOL</title>
<path fill="#ffffff" stroke="#d96a20" d="M819.52,-339.71C819.52,-342.77 800.46,-345.25 777,-345.25 753.54,-345.25 734.48,-342.77 734.48,-339.71 734.48,-339.71 734.48,-289.9 734.48,-289.9 734.48,-286.84 753.54,-284.36 777,-284.36 800.46,-284.36 819.52,-286.84 819.52,-289.9 819.52,-289.9 819.52,-339.71 819.52,-339.71"/>
<path fill="none" stroke="#d96a20" d="M819.52,-339.71C819.52,-336.66 800.46,-334.18 777,-334.18 753.54,-334.18 734.48,-336.66 734.48,-339.71"/>
<text xml:space="preserve" text-anchor="middle" x="777" y="-317.86" font-family="Helvetica Neue,Helvetica,Arial,sans-serif" font-size="11.00" fill="#7a3a10">UC Volume</text>
<text xml:space="preserve" text-anchor="middle" x="777" y="-304.36" font-family="Helvetica Neue,Helvetica,Arial,sans-serif" font-size="11.00" fill="#7a3a10">(PDF files)</text>
</g>
<!-- FASTAPI&#45;&gt;UCVOL -->
<g id="edge17" class="edge">
<title>FASTAPI&#45;&gt;UCVOL</title>
<path fill="none" stroke="#666688" stroke-width="1.4" d="M216.64,-448.79C252.59,-434.24 304.36,-415.61 351.75,-407.25 371.68,-403.73 698.05,-408.61 716,-399.25 734.87,-389.41 749.35,-370.78 759.45,-353.61"/>
<polygon fill="#666688" stroke="#666688" stroke-width="1.4" points="215.76,-446.32 209.82,-451.59 217.75,-451.17 215.76,-446.32"/>
<polygon fill="#666688" stroke="#666688" stroke-width="1.4" points="761.67,-355.03 763.03,-347.2 757.08,-352.47 761.67,-355.03"/>
<text xml:space="preserve" text-anchor="middle" x="385.88" y="-409.95" font-family="Helvetica Neue,Helvetica,Arial,sans-serif" font-size="9.00" fill="#333355">fetch / serve PDF</text>
</g>
<!-- VS -->
<g id="node6" class="node">
<title>VS</title>
<path fill="#ffffff" stroke="#d96a20" d="M514.27,-336.94C514.27,-336.94 439.73,-336.94 439.73,-336.94 433.73,-336.94 427.73,-330.94 427.73,-324.94 427.73,-324.94 427.73,-304.67 427.73,-304.67 427.73,-298.67 433.73,-292.67 439.73,-292.67 439.73,-292.67 514.27,-292.67 514.27,-292.67 520.27,-292.67 526.27,-298.67 526.27,-304.67 526.27,-304.67 526.27,-324.94 526.27,-324.94 526.27,-330.94 520.27,-336.94 514.27,-336.94"/>
<text xml:space="preserve" text-anchor="middle" x="477" y="-317.86" font-family="Helvetica Neue,Helvetica,Arial,sans-serif" font-size="11.00" fill="#7a3a10">Vector Search</text>
<text xml:space="preserve" text-anchor="middle" x="477" y="-304.36" font-family="Helvetica Neue,Helvetica,Arial,sans-serif" font-size="11.00" fill="#7a3a10">Hybrid mode</text>
</g>
<!-- HAIKU&#45;&gt;VS -->
<g id="edge12" class="edge">
<title>HAIKU&#45;&gt;VS</title>
<path fill="none" stroke="#666688" stroke-width="1.4" stroke-dasharray="5,2" d="M302.05,-314.81C337.27,-314.81 382.38,-314.81 417.96,-314.81"/>
<polygon fill="#666688" stroke="#666688" stroke-width="1.4" points="417.64,-317.43 425.14,-314.81 417.64,-312.18 417.64,-317.43"/>
<text xml:space="preserve" text-anchor="middle" x="364.75" y="-320.5" font-family="Helvetica Neue,Helvetica,Arial,sans-serif" font-size="9.00" fill="#333355">semantic query</text>
</g>
<!-- SQLWH -->
<g id="node7" class="node">
<title>SQLWH</title>
<path fill="#ffffff" stroke="#d96a20" d="M686.02,-336.94C686.02,-336.94 573.98,-336.94 573.98,-336.94 567.98,-336.94 561.98,-330.94 561.98,-324.94 561.98,-324.94 561.98,-304.67 561.98,-304.67 561.98,-298.67 567.98,-292.67 573.98,-292.67 573.98,-292.67 686.02,-292.67 686.02,-292.67 692.02,-292.67 698.02,-298.67 698.02,-304.67 698.02,-304.67 698.02,-324.94 698.02,-324.94 698.02,-330.94 692.02,-336.94 686.02,-336.94"/>
<text xml:space="preserve" text-anchor="middle" x="630" y="-317.86" font-family="Helvetica Neue,Helvetica,Arial,sans-serif" font-size="11.00" fill="#7a3a10">SQL Warehouse</text>
<text xml:space="preserve" text-anchor="middle" x="630" y="-304.36" font-family="Helvetica Neue,Helvetica,Arial,sans-serif" font-size="11.00" fill="#7a3a10">ILIKE keyword search</text>
</g>
<!-- HAIKU&#45;&gt;SQLWH -->
<g id="edge13" class="edge">
<title>HAIKU&#45;&gt;SQLWH</title>
<path fill="none" stroke="#666688" stroke-width="1.4" stroke-dasharray="5,2" d="M279.88,-337.28C312.35,-356.77 362.84,-383.53 411,-394.49 468.64,-407.6 488.97,-416.06 544,-394.49 569.76,-384.39 592.42,-362.54 608,-344.27"/>
<polygon fill="#666688" stroke="#666688" stroke-width="1.4" points="609.72,-346.31 612.47,-338.86 605.67,-342.97 609.72,-346.31"/>
<text xml:space="preserve" text-anchor="middle" x="497" y="-409.95" font-family="Helvetica Neue,Helvetica,Arial,sans-serif" font-size="9.00" fill="#333355">keyword terms</text>
</g>
<!-- MLFLOW -->
<g id="node9" class="node">
<title>MLFLOW</title>
<path fill="#ffffff" stroke="#2a8050" d="M202.03,-182.11C202.03,-182.11 101.97,-182.11 101.97,-182.11 95.97,-182.11 89.97,-176.11 89.97,-170.11 89.97,-170.11 89.97,-149.83 89.97,-149.83 89.97,-143.83 95.97,-137.83 101.97,-137.83 101.97,-137.83 202.03,-137.83 202.03,-137.83 208.03,-137.83 214.03,-143.83 214.03,-149.83 214.03,-149.83 214.03,-170.11 214.03,-170.11 214.03,-176.11 208.03,-182.11 202.03,-182.11"/>
<text xml:space="preserve" text-anchor="middle" x="152" y="-163.02" font-family="Helvetica Neue,Helvetica,Arial,sans-serif" font-size="11.00" fill="#1a5c35">MLflow Tracing</text>
<text xml:space="preserve" text-anchor="middle" x="152" y="-149.52" font-family="Helvetica Neue,Helvetica,Arial,sans-serif" font-size="11.00" fill="#1a5c35">/Shared/doc&#45;finder</text>
</g>
<!-- HAIKU&#45;&gt;MLFLOW -->
<g id="edge18" class="edge">
<title>HAIKU&#45;&gt;MLFLOW</title>
<path fill="none" stroke="#2a8050" stroke-width="1.2" stroke-dasharray="1,5" d="M231.87,-292.23C215.6,-265.49 187.81,-219.82 169.68,-190.02"/>
<polygon fill="#2a8050" stroke="#2a8050" stroke-width="1.2" points="172.15,-189.03 166,-183.99 167.66,-191.76 172.15,-189.03"/>
<text xml:space="preserve" text-anchor="middle" x="216.58" y="-246.81" font-family="Helvetica Neue,Helvetica,Arial,sans-serif" font-size="9.00" fill="#2a8050">trace</text>
</g>
<!-- SONNET&#45;&gt;FASTAPI -->
<g id="edge16" class="edge">
<title>SONNET&#45;&gt;FASTAPI</title>
<path fill="none" stroke="#666688" stroke-width="1.4" d="M78.37,-337.07C73.8,-359.03 70.25,-393.52 84.75,-418.5 93.77,-434.05 109.65,-445.23 125.35,-453.03"/>
<polygon fill="#666688" stroke="#666688" stroke-width="1.4" points="124.17,-455.38 132.08,-456.13 126.37,-450.61 124.17,-455.38"/>
<text xml:space="preserve" text-anchor="middle" x="120.38" y="-409.95" font-family="Helvetica Neue,Helvetica,Arial,sans-serif" font-size="9.00" fill="#333355">answer + filename</text>
</g>
<!-- SONNET&#45;&gt;MLFLOW -->
<g id="edge19" class="edge">
<title>SONNET&#45;&gt;MLFLOW</title>
<path fill="none" stroke="#2a8050" stroke-width="1.2" stroke-dasharray="1,5" d="M93.6,-292.23C105.39,-265.72 125.47,-220.6 138.74,-190.78"/>
<polygon fill="#2a8050" stroke="#2a8050" stroke-width="1.2" points="141.06,-192.01 141.71,-184.1 136.26,-189.88 141.06,-192.01"/>
<text xml:space="preserve" text-anchor="middle" x="123.68" y="-246.81" font-family="Helvetica Neue,Helvetica,Arial,sans-serif" font-size="9.00" fill="#2a8050">trace</text>
</g>
<!-- VS&#45;&gt;SONNET -->
<g id="edge14" class="edge">
<title>VS&#45;&gt;SONNET</title>
<path fill="none" stroke="#666688" stroke-width="1.4" d="M443.96,-337.27C413.16,-356.75 365.18,-383.5 319,-394.49 254.58,-409.81 231.65,-418.66 170,-394.49 144.24,-384.39 121.58,-362.54 106,-344.27"/>
<polygon fill="#666688" stroke="#666688" stroke-width="1.4" points="108.33,-342.97 101.53,-338.86 104.28,-346.31 108.33,-342.97"/>
<text xml:space="preserve" text-anchor="middle" x="232" y="-409.95" font-family="Helvetica Neue,Helvetica,Arial,sans-serif" font-size="9.00" fill="#333355">results</text>
</g>
<!-- SQLWH&#45;&gt;SONNET -->
<g id="edge15" class="edge">
<title>SQLWH&#45;&gt;SONNET</title>
<path fill="none" stroke="#666688" stroke-width="1.4" d="M613.82,-337.22C598.38,-356.53 573.18,-383.05 544,-394.49 466.62,-424.82 247.38,-424.82 170,-394.49 144.24,-384.39 121.58,-362.54 106,-344.27"/>
<polygon fill="#666688" stroke="#666688" stroke-width="1.4" points="108.33,-342.97 101.53,-338.86 104.28,-346.31 108.33,-342.97"/>
<text xml:space="preserve" text-anchor="middle" x="264" y="-409.95" font-family="Helvetica Neue,Helvetica,Arial,sans-serif" font-size="9.00" fill="#333355">results</text>
</g>
<!-- AIPARSE -->
<g id="node11" class="node">
<title>AIPARSE</title>
<path fill="#ffffff" stroke="#9a7030" d="M1079.78,-487.64C1079.78,-487.64 972.23,-487.64 972.23,-487.64 966.23,-487.64 960.23,-481.64 960.23,-475.64 960.23,-475.64 960.23,-463.64 960.23,-463.64 960.23,-457.64 966.23,-451.64 972.23,-451.64 972.23,-451.64 1079.78,-451.64 1079.78,-451.64 1085.78,-451.64 1091.78,-457.64 1091.78,-463.64 1091.78,-463.64 1091.78,-475.64 1091.78,-475.64 1091.78,-481.64 1085.78,-487.64 1079.78,-487.64"/>
<text xml:space="preserve" text-anchor="middle" x="1026" y="-465.94" font-family="Helvetica Neue,Helvetica,Arial,sans-serif" font-size="11.00" fill="#6b4a10">ai_parse_document()</text>
</g>
<!-- UCVOL&#45;&gt;AIPARSE -->
<g id="edge21" class="edge">
<title>UCVOL&#45;&gt;AIPARSE</title>
<path fill="none" stroke="#666688" stroke-width="1.4" d="M788.66,-345.67C796.96,-363.43 809.71,-385.17 827,-399.25 846.76,-415.33 903.92,-434.45 951.94,-448.55"/>
<polygon fill="#666688" stroke="#666688" stroke-width="1.4" points="951.12,-451.04 959.06,-450.62 952.59,-446 951.12,-451.04"/>
<text xml:space="preserve" text-anchor="middle" x="882.27" y="-409.95" font-family="Helvetica Neue,Helvetica,Arial,sans-serif" font-size="9.00" fill="#333355">read PDFs</text>
</g>
<!-- RAWDOCS -->
<g id="node10" class="node">
<title>RAWDOCS</title>
<polygon fill="#ffffff" stroke="#9a7030" points="923.9,-487.64 920.9,-491.64 899.9,-491.64 896.9,-487.64 844.1,-487.64 844.1,-451.64 923.9,-451.64 923.9,-487.64"/>
<text xml:space="preserve" text-anchor="middle" x="884" y="-465.94" font-family="Helvetica Neue,Helvetica,Arial,sans-serif" font-size="11.00" fill="#6b4a10">raw_docs/</text>
</g>
<!-- RAWDOCS&#45;&gt;UCVOL -->
<g id="edge20" class="edge">
<title>RAWDOCS&#45;&gt;UCVOL</title>
<path fill="none" stroke="#666688" stroke-width="1.4" d="M843.97,-467.2C738.39,-462.99 458.58,-449.02 431.25,-418.5 427.91,-414.77 427.76,-410.83 431.25,-407.25 442.28,-395.9 701.99,-406.61 716,-399.25 734.7,-389.42 749.1,-370.98 759.21,-353.93"/>
<polygon fill="#666688" stroke="#666688" stroke-width="1.4" points="761.4,-355.39 762.78,-347.57 756.82,-352.82 761.4,-355.39"/>
<text xml:space="preserve" text-anchor="middle" x="445.12" y="-409.95" font-family="Helvetica Neue,Helvetica,Arial,sans-serif" font-size="9.00" fill="#333355">upload</text>
</g>
<!-- GEMINI -->
<g id="node12" class="node">
<title>GEMINI</title>
<path fill="#fff3d6" stroke="#9a7030" d="M1009.52,-336.94C1009.52,-336.94 924.48,-336.94 924.48,-336.94 918.48,-336.94 912.48,-330.94 912.48,-324.94 912.48,-324.94 912.48,-304.67 912.48,-304.67 912.48,-298.67 918.48,-292.67 924.48,-292.67 924.48,-292.67 1009.52,-292.67 1009.52,-292.67 1015.52,-292.67 1021.52,-298.67 1021.52,-304.67 1021.52,-304.67 1021.52,-324.94 1021.52,-324.94 1021.52,-330.94 1015.52,-336.94 1009.52,-336.94"/>
<text xml:space="preserve" text-anchor="middle" x="967" y="-317.86" font-family="Helvetica Neue,Helvetica,Arial,sans-serif" font-size="11.00" fill="#6b4a10">Gemini 2.5 Pro</text>
<text xml:space="preserve" text-anchor="middle" x="967" y="-304.36" font-family="Helvetica Neue,Helvetica,Arial,sans-serif" font-size="11.00" fill="#6b4a10">(Summarization)</text>
</g>
<!-- AIPARSE&#45;&gt;GEMINI -->
<g id="edge22" class="edge">
<title>AIPARSE&#45;&gt;GEMINI</title>
<path fill="none" stroke="#666688" stroke-width="1.4" d="M1019.35,-451.4C1009.5,-425.9 990.9,-377.72 978.73,-346.2"/>
<polygon fill="#666688" stroke="#666688" stroke-width="1.4" points="981.24,-345.41 976.09,-339.36 976.35,-347.31 981.24,-345.41"/>
<text xml:space="preserve" text-anchor="middle" x="1027.36" y="-409.95" font-family="Helvetica Neue,Helvetica,Arial,sans-serif" font-size="9.00" fill="#333355">parsed text</text>
</g>
<!-- DELTATABLE -->
<g id="node13" class="node">
<title>DELTATABLE</title>
<path fill="#ffffff" stroke="#9a7030" d="M985.4,-184.88C985.4,-187.93 961.47,-190.41 932,-190.41 902.53,-190.41 878.6,-187.93 878.6,-184.88 878.6,-184.88 878.6,-135.06 878.6,-135.06 878.6,-132.01 902.53,-129.53 932,-129.53 961.47,-129.53 985.4,-132.01 985.4,-135.06 985.4,-135.06 985.4,-184.88 985.4,-184.88"/>
<path fill="none" stroke="#9a7030" d="M985.4,-184.88C985.4,-181.83 961.47,-179.34 932,-179.34 902.53,-179.34 878.6,-181.83 878.6,-184.88"/>
<text xml:space="preserve" text-anchor="middle" x="932" y="-163.02" font-family="Helvetica Neue,Helvetica,Arial,sans-serif" font-size="11.00" fill="#6b4a10">doc_summaries</text>
<text xml:space="preserve" text-anchor="middle" x="932" y="-149.52" font-family="Helvetica Neue,Helvetica,Arial,sans-serif" font-size="11.00" fill="#6b4a10">(Delta Table)</text>
</g>
<!-- GEMINI&#45;&gt;DELTATABLE -->
<g id="edge23" class="edge">
<title>GEMINI&#45;&gt;DELTATABLE</title>
<path fill="none" stroke="#666688" stroke-width="1.4" d="M962.06,-292.23C956.58,-268.32 947.64,-229.28 940.93,-199.98"/>
<polygon fill="#666688" stroke="#666688" stroke-width="1.4" points="943.55,-199.63 939.31,-192.9 938.43,-200.8 943.55,-199.63"/>
<text xml:space="preserve" text-anchor="middle" x="974.38" y="-246.81" font-family="Helvetica Neue,Helvetica,Arial,sans-serif" font-size="9.00" fill="#333355">summaries</text>
</g>
<!-- VSINDEX -->
<g id="node14" class="node">
<title>VSINDEX</title>
<path fill="#fff3d6" stroke="#9a7030" d="M937.02,-60.28C937.02,-60.28 878.98,-60.28 878.98,-60.28 872.98,-60.28 866.98,-54.28 866.98,-48.28 866.98,-48.28 866.98,-28 866.98,-28 866.98,-22 872.98,-16 878.98,-16 878.98,-16 937.02,-16 937.02,-16 943.02,-16 949.02,-22 949.02,-28 949.02,-28 949.02,-48.28 949.02,-48.28 949.02,-54.28 943.02,-60.28 937.02,-60.28"/>
<text xml:space="preserve" text-anchor="middle" x="908" y="-41.19" font-family="Helvetica Neue,Helvetica,Arial,sans-serif" font-size="11.00" fill="#6b4a10">VS Index</text>
<text xml:space="preserve" text-anchor="middle" x="908" y="-27.69" font-family="Helvetica Neue,Helvetica,Arial,sans-serif" font-size="11.00" fill="#6b4a10">Delta Sync</text>
</g>
<!-- DELTATABLE&#45;&gt;VSINDEX -->
<g id="edge24" class="edge">
<title>DELTATABLE&#45;&gt;VSINDEX</title>
<path fill="none" stroke="#666688" stroke-width="1.4" d="M926.01,-129.04C922.38,-110.94 917.77,-87.93 914.12,-69.71"/>
<polygon fill="#666688" stroke="#666688" stroke-width="1.4" points="916.72,-69.33 912.68,-62.49 911.58,-70.36 916.72,-69.33"/>
<text xml:space="preserve" text-anchor="middle" x="941.38" y="-91.98" font-family="Helvetica Neue,Helvetica,Arial,sans-serif" font-size="9.00" fill="#333355">Delta Sync</text>
</g>
<!-- VSINDEX&#45;&gt;VS -->
<g id="edge25" class="edge">
<title>VSINDEX&#45;&gt;VS</title>
<path fill="none" stroke="#666688" stroke-width="1.4" d="M874.34,-60.59C796.44,-110.23 603.93,-232.92 518.72,-287.22"/>
<polygon fill="#666688" stroke="#666688" stroke-width="1.4" points="517.52,-284.87 512.61,-291.11 520.34,-289.3 517.52,-284.87"/>
<text xml:space="preserve" text-anchor="middle" x="787.9" y="-157.05" font-family="Helvetica Neue,Helvetica,Arial,sans-serif" font-size="9.00" fill="#333355">serves index</text>
</g>
<!-- L1a -->
<g id="node15" class="node">
<title>L1a</title>
<ellipse fill="#f8f8f8" stroke="#f8f8f8" cx="1142" cy="-767.73" rx="0.36" ry="0.36"/>
</g>
<!-- L1b -->
<g id="node16" class="node">
<title>L1b</title>
<path fill="#f8f8f8" stroke="none" d="M1156.23,-618.72C1156.23,-618.72 1127.77,-618.72 1127.77,-618.72 1125.54,-618.72 1123.31,-616.49 1123.31,-614.26 1123.31,-614.26 1123.31,-609.8 1123.31,-609.8 1123.31,-607.57 1125.54,-605.34 1127.77,-605.34 1127.77,-605.34 1156.23,-605.34 1156.23,-605.34 1158.46,-605.34 1160.69,-607.57 1160.69,-609.8 1160.69,-609.8 1160.69,-614.26 1160.69,-614.26 1160.69,-616.49 1158.46,-618.72 1156.23,-618.72"/>
<text xml:space="preserve" text-anchor="middle" x="1142" y="-609.68" font-family="Helvetica Neue,Helvetica,Arial,sans-serif" font-size="8.00" fill="#555555">Data flow</text>
</g>
<!-- L1a&#45;&gt;L1b -->
<g id="edge4" class="edge">
<title>L1a&#45;&gt;L1b</title>
<path fill="none" stroke="#666688" stroke-width="1.2" d="M1142,-766.62C1142,-762.78 1142,-660.94 1142,-625.24"/>
<polygon fill="#666688" stroke="#666688" stroke-width="1.2" points="1143.75,-625.51 1142,-620.51 1140.25,-625.51 1143.75,-625.51"/>
</g>
<!-- L2a -->
<g id="node17" class="node">
<title>L2a</title>
<ellipse fill="#f8f8f8" stroke="#f8f8f8" cx="1142" cy="-469.64" rx="0.36" ry="0.36"/>
</g>
<!-- L1b&#45;&gt;L2a -->
<!-- L2b -->
<g id="node18" class="node">
<title>L2b</title>
<path fill="#f8f8f8" stroke="none" d="M1165.23,-321.5C1165.23,-321.5 1118.77,-321.5 1118.77,-321.5 1116.54,-321.5 1114.31,-319.26 1114.31,-317.04 1114.31,-317.04 1114.31,-312.57 1114.31,-312.57 1114.31,-310.35 1116.54,-308.12 1118.77,-308.12 1118.77,-308.12 1165.23,-308.12 1165.23,-308.12 1167.46,-308.12 1169.69,-310.35 1169.69,-312.57 1169.69,-312.57 1169.69,-317.04 1169.69,-317.04 1169.69,-319.26 1167.46,-321.5 1165.23,-321.5"/>
<text xml:space="preserve" text-anchor="middle" x="1142" y="-312.45" font-family="Helvetica Neue,Helvetica,Arial,sans-serif" font-size="8.00" fill="#555555">Parallel search</text>
</g>
<!-- L2a&#45;&gt;L2b -->
<g id="edge5" class="edge">
<title>L2a&#45;&gt;L2b</title>
<path fill="none" stroke="#666688" stroke-width="1.2" stroke-dasharray="5,2" d="M1142,-468.53C1142,-464.71 1142,-363.44 1142,-327.95"/>
<polygon fill="#666688" stroke="#666688" stroke-width="1.2" points="1143.75,-328.25 1142,-323.25 1140.25,-328.25 1143.75,-328.25"/>
</g>
<!-- L3a -->
<g id="node19" class="node">
<title>L3a</title>
<ellipse fill="#f8f8f8" stroke="#f8f8f8" cx="1142" cy="-159.97" rx="0.36" ry="0.36"/>
</g>
<!-- L2b&#45;&gt;L3a -->
<!-- L3b -->
<g id="node20" class="node">
<title>L3b</title>
<path fill="#f8f8f8" stroke="none" d="M1162.61,-44.83C1162.61,-44.83 1121.39,-44.83 1121.39,-44.83 1119.16,-44.83 1116.93,-42.6 1116.93,-40.37 1116.93,-40.37 1116.93,-35.91 1116.93,-35.91 1116.93,-33.68 1119.16,-31.45 1121.39,-31.45 1121.39,-31.45 1162.61,-31.45 1162.61,-31.45 1164.84,-31.45 1167.07,-33.68 1167.07,-35.91 1167.07,-35.91 1167.07,-40.37 1167.07,-40.37 1167.07,-42.6 1164.84,-44.83 1162.61,-44.83"/>
<text xml:space="preserve" text-anchor="middle" x="1142" y="-35.79" font-family="Helvetica Neue,Helvetica,Arial,sans-serif" font-size="8.00" fill="#555555">MLflow trace</text>
</g>
<!-- L3a&#45;&gt;L3b -->
<g id="edge6" class="edge">
<title>L3a&#45;&gt;L3b</title>
<path fill="none" stroke="#2a8050" stroke-width="1.2" stroke-dasharray="1,5" d="M1142,-158.89C1142,-155.98 1142,-81.19 1142,-51.31"/>
<polygon fill="#2a8050" stroke="#2a8050" stroke-width="1.2" points="1143.75,-51.57 1142,-46.57 1140.25,-51.57 1143.75,-51.57"/>
</g>
</g>
</svg>
