<?xml version="1.0" encoding="UTF-8" standalone="no"?>
<!DOCTYPE svg PUBLIC "-//W3C//DTD SVG 1.1//EN"
 "http://www.w3.org/Graphics/SVG/1.1/DTD/svg11.dtd">
<!-- Generated by graphviz version 14.1.3 (20260303.0454)
 -->
<!-- Title: DocFinder Pages: 1 -->
<svg width="1326pt" height="821pt"
 viewBox="0.00 0.00 1326.00 821.00" xmlns="http://www.w3.org/2000/svg" xmlns:xlink="http://www.w3.org/1999/xlink">
<g id="graph0" class="graph" transform="scale(1 1) rotate(0) translate(36 784.64)">
<title>DocFinder</title>
<polygon fill="#ffffff" stroke="none" points="-36,36 -36,-784.64 1290,-784.64 1290,36 -36,36"/>
<text xml:space="preserve" text-anchor="middle" x="627" y="-727.54" font-family="Helvetica Neue,Helvetica,Arial,sans-serif" font-size="18.00" fill="#1a1a2e">Doc Finder — System Architecture</text>
<g id="clust1" class="cluster">
<title>cluster_app</title>
<path fill="#f3eef9" stroke="#7b5ea7" stroke-width="2" d="M180,-259.97C180,-259.97 458,-259.97 458,-259.97 464,-259.97 470,-265.97 470,-271.97 470,-271.97 470,-593.72 470,-593.72 470,-599.72 464,-605.72 458,-605.72 458,-605.72 180,-605.72 180,-605.72 174,-605.72 168,-599.72 168,-593.72 168,-593.72 168,-271.97 168,-271.97 168,-265.97 174,-259.97 180,-259.97"/>
<text xml:space="preserve" text-anchor="middle" x="319" y="-590.32" font-family="Helvetica Neue,Helvetica,Arial,sans-serif" font-size="12.00" fill="#3d1f6e">Databricks App</text>
</g>
<g id="clust3" class="cluster">
<title>cluster_data</title>
<path fill="#fdf3eb" stroke="#d96a20" stroke-width="2" d="M502,-251.66C502,-251.66 886,-251.66 886,-251.66 892,-251.66 898,-257.66 898,-263.66 898,-263.66 898,-339.55 898,-339.55 898,-345.55 892,-351.55 886,-351.55 886,-351.55 502,-351.55 502,-351.55 496,-351.55 490,-345.55 490,-339.55 490,-339.55 490,-263.66 490,-263.66 490,-257.66 496,-251.66 502,-251.66"/>
<text xml:space="preserve" text-anchor="middle" x="694" y="-336.15" font-family="Helvetica Neue,Helvetica,Arial,sans-serif" font-size="12.00" fill="#7a3a10">Data Sources &#160;(Unity Catalog)</text>
</g>
<g id="clust4" class="cluster">
<title>cluster_obs</title>
<path fill="#e8f5ee" stroke="#2a8050" stroke-width="2" d="M20,-259.97C20,-259.97 136,-259.97 136,-259.97 142,-259.97 148,-265.97 148,-271.97 148,-271.97 148,-331.25 148,-331.25 148,-337.25 142,-343.25 136,-343.25 136,-343.25 20,-343.25 20,-343.25 14,-343.25 8,-337.25 8,-331.25 8,-331.25 8,-271.97 8,-271.97 8,-265.97 14,-259.97 20,-259.97"/>
<text xml:space="preserve" text-anchor="middle" x="78" y="-327.85" font-family="Helvetica Neue,Helvetica,Arial,sans-serif" font-size="12.00" fill="#1a5c35">Observability</text>
</g>
<g id="clust5" class="cluster">
<title>cluster_pipeline</title>
<path fill="#fdf7ed" stroke="#9a7030" stroke-width="2" d="M918,-8C918,-8 1158,-8 1158,-8 1164,-8 1170,-14 1170,-20 1170,-20 1170,-470.19 1170,-470.19 1170,-476.19 1164,-482.19 1158,-482.19 1158,-482.19 918,-482.19 918,-482.19 912,-482.19 906,-476.19 906,-470.19 906,-470.19 906,-20 906,-20 906,-14 912,-8 918,-8"/>
<text xml:space="preserve" text-anchor="middle" x="1038" y="-466.79" font-family="Helvetica Neue,Helvetica,Arial,sans-serif" font-size="12.00" fill="#6b4a10">Data Pipeline &#160;(DABs Job)</text>
</g>
<g id="clust6" class="cluster">
<title>cluster_legend</title>
<path fill="#f8f8f8" stroke="#aaaaaa" d="M1190,-25.45C1190,-25.45 1234,-25.45 1234,-25.45 1240,-25.45 1246,-31.45 1246,-37.45 1246,-37.45 1246,-698.89 1246,-698.89 1246,-704.89 1240,-710.89 1234,-710.89 1234,-710.89 1190,-710.89 1190,-710.89 1184,-710.89 1178,-704.89 1178,-698.89 1178,-698.89 1178,-37.45 1178,-37.45 1178,-31.45 1184,-25.45 1190,-25.45"/>
<text xml:space="preserve" text-anchor="middle" x="1212" y="-698.34" font-family="Helvetica Neue,Helvetica,Arial,sans-serif" font-size="9.00" fill="#555555">Legend</text>
</g>
<!-- USER -->
<g id="node1" class="node">
<title>USER</title>
<ellipse fill="#3a7dc9" stroke="#1e5b9a" cx="395" cy="-685.28" rx="53.25" ry="31.31"/>
<text xml:space="preserve" text-anchor="middle" x="395" y="-688.33" font-family="Helvetica Neue,Helvetica,Arial,sans-serif" font-size="11.00" fill="#ffffff">User</text>
<text xml:space="preserve" text-anchor="middle" x="395" y="-674.83" font-family="Helvetica Neue,Helvetica,Arial,sans-serif" font-size="11.00" fill="#ffffff">(Browser)</text>
</g>
<!-- FRONTEND -->
<g id="node2" class="node">
<title>FRONTEND</title>
<path fill="#ffffff" stroke="#3a7dc9" d="M435.65,-574.72C435.65,-574.72 354.35,-574.72 354.35,-574.72 348.35,-574.72 342.35,-568.72 342.35,-562.72 342.35,-562.72 342.35,-542.44 342.35,-542.44 342.35,-536.44 348.35,-530.44 354.35,-530.44 354.35,-530.44 435.65,-530.44 435.65,-530.44 441.65,-530.44 447.65,-536.44 447.65,-542.44 447.65,-542.44 447.65,-562.72 447.65,-562.72 447.65,-568.72 441.65,-574.72 435.65,-574.72"/>
<text xml:space="preserve" text-anchor="middle" x="395" y="-555.63" font-family="Helvetica Neue,Helvetica,Arial,sans-serif" font-size="11.00" fill="#1a3a5c">React Frontend</text>
<text xml:space="preserve" text-anchor="middle" x="395" y="-542.13" font-family="Helvetica Neue,Helvetica,Arial,sans-serif" font-size="11.00" fill="#1a3a5c">(CDN&#45;loaded)</text>
</g>
<!-- USER&#45;&gt;FRONTEND -->
<g id="edge7" class="edge">
<title>USER&#45;&gt;FRONTEND</title>
<path fill="none" stroke="#666688" stroke-width="1.4" d="M395,-644.21C395,-624.97 395,-602.29 395,-584.43"/>
<polygon fill="#666688" stroke="#666688" stroke-width="1.4" points="392.38,-644.02 395,-651.52 397.63,-644.02 392.38,-644.02"/>
<polygon fill="#666688" stroke="#666688" stroke-width="1.4" points="397.63,-584.67 395,-577.17 392.38,-584.67 397.63,-584.67"/>
<text xml:space="preserve" text-anchor="middle" x="426.12" y="-616.42" font-family="Helvetica Neue,Helvetica,Arial,sans-serif" font-size="9.00" fill="#333355">chat / view PDF</text>
</g>
<!-- FASTAPI -->
<g id="node3" class="node">
<title>FASTAPI</title>
<path fill="#ffffff" stroke="#7b5ea7" d="M426.52,-455.33C426.52,-455.33 377.48,-455.33 377.48,-455.33 371.48,-455.33 365.48,-449.33 365.48,-443.33 365.48,-443.33 365.48,-423.05 365.48,-423.05 365.48,-417.05 371.48,-411.05 377.48,-411.05 377.48,-411.05 426.52,-411.05 426.52,-411.05 432.52,-411.05 438.52,-417.05 438.52,-423.05 438.52,-423.05 438.52,-443.33 438.52,-443.33 438.52,-449.33 432.52,-455.33 426.52,-455.33"/>
<text xml:space="preserve" text-anchor="middle" x="402" y="-436.24" font-family="Helvetica Neue,Helvetica,Arial,sans-serif" font-size="11.00" fill="#3d1f6e">FastAPI</text>
<text xml:space="preserve" text-anchor="middle" x="402" y="-422.74" font-family="Helvetica Neue,Helvetica,Arial,sans-serif" font-size="11.00" fill="#3d1f6e">Backend</text>
</g>
<!-- FRONTEND&#45;&gt;FASTAPI -->
<!-- FRONTEND&#45;&gt;FASTAPI -->
<g id="edge8" class="edge">
<title>FRONTEND&#45;&gt;FASTAPI</title>
<path fill="none" stroke="#666688" stroke-width="1.4" d="M372.36,-521.74C367.44,-511.92 364.5,-500.79 367.5,-490.19 370.11,-480.96 374.73,-471.76 379.75,-463.56"/>
<polygon fill="#666688" stroke="#666688" stroke-width="1.4" points="370.03,-522.96 376.04,-528.16 374.59,-520.35 370.03,-522.96"/>
<polygon fill="#666688" stroke="#666688" stroke-width="1.4" points="381.79,-465.23 383.69,-457.51 377.39,-462.36 381.79,-465.23"/>
<text xml:space="preserve" text-anchor="middle" x="384.75" y="-492.89" font-family="Helvetica Neue,Helvetica,Arial,sans-serif" font-size="9.00" fill="#333355">API calls</text>
</g>
<!-- HAIKU -->
<g id="node4" class="node">
<title>HAIKU</title>
<path fill="#ede0f8" stroke="#7b5ea7" d="M277.77,-312.25C277.77,-312.25 188.22,-312.25 188.22,-312.25 182.22,-312.25 176.22,-306.25 176.22,-300.25 176.22,-300.25 176.22,-279.97 176.22,-279.97 176.22,-273.97 182.22,-267.97 188.22,-267.97 188.22,-267.97 277.77,-267.97 277.77,-267.97 283.77,-267.97 289.77,-273.97 289.77,-279.97 289.77,-279.97 289.77,-300.25 289.77,-300.25 289.77,-306.25 283.77,-312.25 277.77,-312.25"/>
<text xml:space="preserve" text-anchor="middle" x="233" y="-293.16" font-family="Helvetica Neue,Helvetica,Arial,sans-serif" font-size="11.00" fill="#3d1f6e">Claude Haiku 4.5</text>
<text xml:space="preserve" text-anchor="middle" x="233" y="-279.66" font-family="Helvetica Neue,Helvetica,Arial,sans-serif" font-size="11.00" fill="#3d1f6e">(Query Classifier)</text>
</g>
<!-- FASTAPI&#45;&gt;HAIKU -->
<g id="edge9" class="edge">
<title>FASTAPI&#45;&gt;HAIKU</title>
<path fill="none" stroke="#666688" stroke-width="1.4" d="M359.82,-405.27C349.26,-398.06 338.13,-390.04 328.25,-382.05 303.86,-362.34 278.26,-337.65 259.75,-318.96"/>
<polygon fill="#666688" stroke="#666688" stroke-width="1.4" points="358.31,-407.41 365.99,-409.43 361.24,-403.06 358.31,-407.41"/>
<polygon fill="#666688" stroke="#666688" stroke-width="1.4" points="261.89,-317.39 254.76,-313.89 258.15,-321.07 261.89,-317.39"/>
<text xml:space="preserve" text-anchor="middle" x="355.62" y="-367.87" font-family="Helvetica Neue,Helvetica,Arial,sans-serif" font-size="9.00" fill="#333355">classify query</text>
</g>
<!-- SONNET -->
<g id="node5" class="node">
<title>SONNET</title>
<path fill="#ede0f8" stroke="#7b5ea7" d="M450.02,-312.25C450.02,-312.25 337.98,-312.25 337.98,-312.25 331.98,-312.25 325.98,-306.25 325.98,-300.25 325.98,-300.25 325.98,-279.97 325.98,-279.97 325.98,-273.97 331.98,-267.97 337.98,-267.97 337.98,-267.97 450.02,-267.97 450.02,-267.97 456.02,-267.97 462.02,-273.97 462.02,-279.97 462.02,-279.97 462.02,-300.25 462.02,-300.25 462.02,-306.25 456.02,-312.25 450.02,-312.25"/>
<text xml:space="preserve" text-anchor="middle" x="394" y="-293.16" font-family="Helvetica Neue,Helvetica,Arial,sans-serif" font-size="11.00" fill="#3d1f6e">Claude Sonnet 4.6</text>
<text xml:space="preserve" text-anchor="middle" x="394" y="-279.66" font-family="Helvetica Neue,Helvetica,Arial,sans-serif" font-size="11.00" fill="#3d1f6e">(Response Generator)</text>
</g>
<!-- FASTAPI&#45;&gt;SONNET -->
<g id="edge12" class="edge">
<title>FASTAPI&#45;&gt;SONNET</title>
<path fill="none" stroke="#666688" stroke-width="1.4" d="M395.99,-401.69C394.95,-395.23 394.04,-388.43 393.5,-382.05 391.81,-362 391.93,-339.39 392.47,-321.72"/>
<polygon fill="#666688" stroke="#666688" stroke-width="1.4" points="393.34,-401.79 397.2,-408.73 398.52,-400.89 393.34,-401.79"/>
<polygon fill="#666688" stroke="#666688" stroke-width="1.4" points="395.08,-322.17 392.73,-314.58 389.83,-321.98 395.08,-322.17"/>
<text xml:space="preserve" text-anchor="middle" x="434.75" y="-373.5" font-family="Helvetica Neue,Helvetica,Arial,sans-serif" font-size="9.00" fill="#333355">results + query</text>
<text xml:space="preserve" text-anchor="middle" x="434.75" y="-362.25" font-family="Helvetica Neue,Helvetica,Arial,sans-serif" font-size="9.00" fill="#333355">→ answer + filename</text>
</g>
<!-- VS -->
<g id="node6" class="node">
<title>VS</title>
<path fill="#ffffff" stroke="#d96a20" d="M584.27,-312.25C584.27,-312.25 509.73,-312.25 509.73,-312.25 503.73,-312.25 497.73,-306.25 497.73,-300.25 497.73,-300.25 497.73,-279.97 497.73,-279.97 497.73,-273.97 503.73,-267.97 509.73,-267.97 509.73,-267.97 584.27,-267.97 584.27,-267.97 590.27,-267.97 596.27,-273.97 596.27,-279.97 596.27,-279.97 596.27,-300.25 596.27,-300.25 596.27,-306.25 590.27,-312.25 584.27,-312.25"/>
<text xml:space="preserve" text-anchor="middle" x="547" y="-293.16" font-family="Helvetica Neue,Helvetica,Arial,sans-serif" font-size="11.00" fill="#7a3a10">Vector Search</text>
<text xml:space="preserve" text-anchor="middle" x="547" y="-279.66" font-family="Helvetica Neue,Helvetica,Arial,sans-serif" font-size="11.00" fill="#7a3a10">Hybrid mode</text>
</g>
<!-- FASTAPI&#45;&gt;VS -->
<g id="edge10" class="edge">
<title>FASTAPI&#45;&gt;VS</title>
<path fill="none" stroke="#666688" stroke-width="1.4" stroke-dasharray="5,2" d="M446.72,-407.91C458.53,-400.44 470.8,-391.63 481,-382.05 500.2,-364.01 517.5,-339.7 529.57,-320.76"/>
<polygon fill="#666688" stroke="#666688" stroke-width="1.4" points="445.48,-405.59 440.46,-411.76 448.23,-410.07 445.48,-405.59"/>
<polygon fill="#666688" stroke="#666688" stroke-width="1.4" points="531.71,-322.29 533.46,-314.53 527.26,-319.51 531.71,-322.29"/>
<text xml:space="preserve" text-anchor="middle" x="530.24" y="-367.87" font-family="Helvetica Neue,Helvetica,Arial,sans-serif" font-size="9.00" fill="#333355">semantic query</text>
</g>
<!-- SQLWH -->
<g id="node7" class="node">
<title>SQLWH</title>
<path fill="#ffffff" stroke="#d96a20" d="M756.02,-312.25C756.02,-312.25 643.98,-312.25 643.98,-312.25 637.98,-312.25 631.98,-306.25 631.98,-300.25 631.98,-300.25 631.98,-279.97 631.98,-279.97 631.98,-273.97 637.98,-267.97 643.98,-267.97 643.98,-267.97 756.02,-267.97 756.02,-267.97 762.02,-267.97 768.02,-273.97 768.02,-279.97 768.02,-279.97 768.02,-300.25 768.02,-300.25 768.02,-306.25 762.02,-312.25 756.02,-312.25"/>
<text xml:space="preserve" text-anchor="middle" x="700" y="-293.16" font-family="Helvetica Neue,Helvetica,Arial,sans-serif" font-size="11.00" fill="#7a3a10">SQL Warehouse</text>
<text xml:space="preserve" text-anchor="middle" x="700" y="-279.66" font-family="Helvetica Neue,Helvetica,Arial,sans-serif" font-size="11.00" fill="#7a3a10">ILIKE keyword search</text>
</g>
<!-- FASTAPI&#45;&gt;SQLWH -->
<g id="edge11" class="edge">
<title>FASTAPI&#45;&gt;SQLWH</title>
<path fill="none" stroke="#666688" stroke-width="1.4" stroke-dasharray="5,2" d="M447.89,-422.64C482.5,-414.47 530.59,-400.99 570,-382.05 591.45,-371.74 594.49,-365.17 614,-351.55 629.67,-340.61 646.92,-328.5 661.82,-318.02"/>
<polygon fill="#666688" stroke="#666688" stroke-width="1.4" points="447.73,-419.99 441.02,-424.23 448.91,-425.1 447.73,-419.99"/>
<polygon fill="#666688" stroke="#666688" stroke-width="1.4" points="663.03,-320.38 667.65,-313.92 660.01,-316.09 663.03,-320.38"/>
<text xml:space="preserve" text-anchor="middle" x="632.39" y="-367.87" font-family="Helvetica Neue,Helvetica,Arial,sans-serif" font-size="9.00" fill="#333355">keyword terms</text>
</g>
<!-- UCVOL -->
<g id="node8" class="node">
<title>UCVOL</title>
<path fill="#ffffff" stroke="#d96a20" d="M889.52,-315.01C889.52,-318.07 870.46,-320.55 847,-320.55 823.54,-320.55 804.48,-318.07 804.48,-315.01 804.48,-315.01 804.48,-265.2 804.48,-265.2 804.48,-262.15 823.54,-259.66 847,-259.66 870.46,-259.66 889.52,-262.15 889.52,-265.2 889.52,-265.2 889.52,-315.01 889.52,-315.01"/>
<path fill="none" stroke="#d96a20" d="M889.52,-315.01C889.52,-311.96 870.46,-309.48 847,-309.48 823.54,-309.48 804.48,-311.96 804.48,-315.01"/>
<text xml:space="preserve" text-anchor="middle" x="847" y="-293.16" font-family="Helvetica Neue,Helvetica,Arial,sans-serif" font-size="11.00" fill="#7a3a10">UC Volume</text>
<text xml:space="preserve" text-anchor="middle" x="847" y="-279.66" font-family="Helvetica Neue,Helvetica,Arial,sans-serif" font-size="11.00" fill="#7a3a10">(PDF files)</text>
</g>
<!-- FASTAPI&#45;&gt;UCVOL -->
<g id="edge13" class="edge">
<title>FASTAPI&#45;&gt;UCVOL</title>
<path fill="none" stroke="#666688" stroke-width="1.4" d="M448.01,-431.51C523.48,-428.52 676.16,-414.44 786,-351.55 796.93,-345.29 807.29,-336.58 816.26,-327.72"/>
<polygon fill="#666688" stroke="#666688" stroke-width="1.4" points="448.28,-428.88 440.87,-431.76 448.46,-434.12 448.28,-428.88"/>
<polygon fill="#666688" stroke="#666688" stroke-width="1.4" points="818.02,-329.68 821.36,-322.47 814.25,-326.02 818.02,-329.68"/>
<text xml:space="preserve" text-anchor="middle" x="801.59" y="-367.87" font-family="Helvetica Neue,Helvetica,Arial,sans-serif" font-size="9.00" fill="#333355">fetch / serve PDF</text>
</g>
<!-- MLFLOW -->
<g id="node9" class="node">
<title>MLFLOW</title>
<path fill="#ffffff" stroke="#2a8050" d="M128.03,-312.25C128.03,-312.25 27.97,-312.25 27.97,-312.25 21.97,-312.25 15.98,-306.25 15.98,-300.25 15.98,-300.25 15.98,-279.97 15.98,-279.97 15.98,-273.97 21.98,-267.97 27.98,-267.97 27.98,-267.97 128.03,-267.97 128.03,-267.97 134.03,-267.97 140.03,-273.97 140.03,-279.97 140.03,-279.97 140.03,-300.25 140.03,-300.25 140.03,-306.25 134.03,-312.25 128.03,-312.25"/>
<text xml:space="preserve" text-anchor="middle" x="78" y="-293.16" font-family="Helvetica Neue,Helvetica,Arial,sans-serif" font-size="11.00" fill="#1a5c35">MLflow Tracing</text>
<text xml:space="preserve" text-anchor="middle" x="78" y="-279.66" font-family="Helvetica Neue,Helvetica,Arial,sans-serif" font-size="11.00" fill="#1a5c35">/Shared/doc&#45;finder</text>
</g>
<!-- FASTAPI&#45;&gt;MLFLOW -->
<g id="edge14" class="edge">
<title>FASTAPI&#45;&gt;MLFLOW</title>
<path fill="none" stroke="#2a8050" stroke-width="1.2" stroke-dasharray="1,5" d="M365,-424.13C315.92,-412.52 227.53,-388.35 159,-351.55 141.76,-342.29 124.16,-329.62 109.79,-318.28"/>
<polygon fill="#2a8050" stroke="#2a8050" stroke-width="1.2" points="111.5,-316.28 104.01,-313.63 108.21,-320.37 111.5,-316.28"/>
<text xml:space="preserve" text-anchor="middle" x="248.27" y="-367.87" font-family="Helvetica Neue,Helvetica,Arial,sans-serif" font-size="9.00" fill="#2a8050">trace all calls</text>
</g>
<!-- DELTATABLE -->
<g id="node13" class="node">
<title>DELTATABLE</title>
<path fill="#ffffff" stroke="#9a7030" d="M1020.4,-184.88C1020.4,-187.93 996.47,-190.41 967,-190.41 937.53,-190.41 913.6,-187.93 913.6,-184.88 913.6,-184.88 913.6,-135.06 913.6,-135.06 913.6,-132.01 937.53,-129.53 967,-129.53 996.47,-129.53 1020.4,-132.01 1020.4,-135.06 1020.4,-135.06 1020.4,-184.88 1020.4,-184.88"/>
<path fill="none" stroke="#9a7030" d="M1020.4,-184.88C1020.4,-181.83 996.47,-179.34 967,-179.34 937.53,-179.34 913.6,-181.83 913.6,-184.88"/>
<text xml:space="preserve" text-anchor="middle" x="967" y="-163.02" font-family="Helvetica Neue,Helvetica,Arial,sans-serif" font-size="11.00" fill="#6b4a10">doc_summaries</text>
<text xml:space="preserve" text-anchor="middle" x="967" y="-149.52" font-family="Helvetica Neue,Helvetica,Arial,sans-serif" font-size="11.00" fill="#6b4a10">(Delta Table)</text>
</g>
<!-- SQLWH&#45;&gt;DELTATABLE -->
<g id="edge15" class="edge">
<title>SQLWH&#45;&gt;DELTATABLE</title>
<path fill="none" stroke="#666688" stroke-width="1.4" d="M753.43,-263.47C797.12,-242.5 858.97,-212.82 904.87,-190.79"/>
<polygon fill="#666688" stroke="#666688" stroke-width="1.4" points="752.53,-260.99 746.9,-266.6 754.8,-265.72 752.53,-260.99"/>
<polygon fill="#666688" stroke="#666688" stroke-width="1.4" points="906,-193.16 911.63,-187.55 903.73,-188.42 906,-193.16"/>
<text xml:space="preserve" text-anchor="middle" x="856.13" y="-222.11" font-family="Helvetica Neue,Helvetica,Arial,sans-serif" font-size="9.00" fill="#333355">queries</text>
</g>
<!-- AIPARSE -->
<g id="node11" class="node">
<title>AIPARSE</title>
<path fill="#ffffff" stroke="#9a7030" d="M1149.78,-451.19C1149.78,-451.19 1042.22,-451.19 1042.22,-451.19 1036.22,-451.19 1030.22,-445.19 1030.22,-439.19 1030.22,-439.19 1030.22,-427.19 1030.22,-427.19 1030.22,-421.19 1036.22,-415.19 1042.22,-415.19 1042.22,-415.19 1149.78,-415.19 1149.78,-415.19 1155.78,-415.19 1161.78,-421.19 1161.78,-427.19 1161.78,-427.19 1161.78,-439.19 1161.78,-439.19 1161.78,-445.19 1155.78,-451.19 1149.78,-451.19"/>
<text xml:space="preserve" text-anchor="middle" x="1096" y="-429.49" font-family="Helvetica Neue,Helvetica,Arial,sans-serif" font-size="11.00" fill="#6b4a10">ai_parse_document()</text>
</g>
<!-- UCVOL&#45;&gt;AIPARSE -->
<g id="edge17" class="edge">
<title>UCVOL&#45;&gt;AIPARSE</title>
<path fill="none" stroke="#666688" stroke-width="1.4" d="M866.87,-320.88C875.18,-331.63 885.58,-343.18 897,-351.55 903.26,-356.14 985.64,-388.9 1042.42,-411.23"/>
<polygon fill="#666688" stroke="#666688" stroke-width="1.4" points="1041.39,-413.64 1049.33,-413.94 1043.31,-408.76 1041.39,-413.64"/>
<text xml:space="preserve" text-anchor="middle" x="986.21" y="-367.87" font-family="Helvetica Neue,Helvetica,Arial,sans-serif" font-size="9.00" fill="#333355">read PDFs</text>
</g>
<!-- RAWDOCS -->
<g id="node10" class="node">
<title>RAWDOCS</title>
<polygon fill="#ffffff" stroke="#9a7030" points="993.9,-451.19 990.9,-455.19 969.9,-455.19 966.9,-451.19 914.1,-451.19 914.1,-415.19 993.9,-415.19 993.9,-451.19"/>
<text xml:space="preserve" text-anchor="middle" x="954" y="-429.49" font-family="Helvetica Neue,Helvetica,Arial,sans-serif" font-size="11.00" fill="#6b4a10">raw_docs/</text>
</g>
<!-- RAWDOCS&#45;&gt;UCVOL -->
<g id="edge16" class="edge">
<title>RAWDOCS&#45;&gt;UCVOL</title>
<path fill="none" stroke="#666688" stroke-width="1.4" d="M919.24,-414.75C905.54,-406.43 890.63,-395.36 880.25,-382.05 868.48,-366.95 860.6,-347.28 855.48,-330.1"/>
<polygon fill="#666688" stroke="#666688" stroke-width="1.4" points="858.02,-329.42 853.48,-322.9 852.96,-330.83 858.02,-329.42"/>
<text xml:space="preserve" text-anchor="middle" x="894.12" y="-367.87" font-family="Helvetica Neue,Helvetica,Arial,sans-serif" font-size="9.00" fill="#333355">upload</text>
</g>
<!-- GEMINI -->
<g id="node12" class="node">
<title>GEMINI</title>
<path fill="#fff3d6" stroke="#9a7030" d="M1080.53,-312.25C1080.53,-312.25 995.48,-312.25 995.48,-312.25 989.48,-312.25 983.48,-306.25 983.48,-300.25 983.48,-300.25 983.48,-279.97 983.48,-279.97 983.48,-273.97 989.48,-267.97 995.48,-267.97 995.48,-267.97 1080.53,-267.97 1080.53,-267.97 1086.53,-267.97 1092.53,-273.97 1092.53,-279.97 1092.53,-279.97 1092.53,-300.25 1092.53,-300.25 1092.53,-306.25 1086.53,-312.25 1080.53,-312.25"/>
<text xml:space="preserve" text-anchor="middle" x="1038" y="-293.16" font-family="Helvetica Neue,Helvetica,Arial,sans-serif" font-size="11.00" fill="#6b4a10">Gemini 2.5 Pro</text>
<text xml:space="preserve" text-anchor="middle" x="1038" y="-279.66" font-family="Helvetica Neue,Helvetica,Arial,sans-serif" font-size="11.00" fill="#6b4a10">(Summarization)</text>
</g>
<!-- AIPARSE&#45;&gt;GEMINI -->
<g id="edge18" class="edge">
<title>AIPARSE&#45;&gt;GEMINI</title>
<path fill="none" stroke="#666688" stroke-width="1.4" d="M1088.89,-414.89C1079.33,-391.65 1062.2,-349.98 1050.48,-321.47"/>
<polygon fill="#666688" stroke="#666688" stroke-width="1.4" points="1052.97,-320.61 1047.69,-314.67 1048.11,-322.6 1052.97,-320.61"/>
<text xml:space="preserve" text-anchor="middle" x="1096.03" y="-367.87" font-family="Helvetica Neue,Helvetica,Arial,sans-serif" font-size="9.00" fill="#333355">parsed text</text>
</g>
<!-- GEMINI&#45;&gt;DELTATABLE -->
<g id="edge19" class="edge">
<title>GEMINI&#45;&gt;DELTATABLE</title>
<path fill="none" stroke="#666688" stroke-width="1.4" d="M1026.12,-267.66C1015.75,-248.96 1000.48,-221.4 988.05,-198.97"/>
<polygon fill="#666688" stroke="#666688" stroke-width="1.4" points="990.41,-197.8 984.47,-192.51 985.81,-200.34 990.41,-197.8"/>
<text xml:space="preserve" text-anchor="middle" x="1026.38" y="-222.11" font-family="Helvetica Neue,Helvetica,Arial,sans-serif" font-size="9.00" fill="#333355">summaries</text>
</g>
<!-- VSINDEX -->
<g id="node14" class="node">
<title>VSINDEX</title>
<path fill="#fff3d6" stroke="#9a7030" d="M990.02,-60.28C990.02,-60.28 931.98,-60.28 931.98,-60.28 925.98,-60.28 919.98,-54.28 919.98,-48.28 919.98,-48.28 919.98,-28 919.98,-28 919.98,-22 925.98,-16 931.98,-16 931.98,-16 990.02,-16 990.02,-16 996.02,-16 1002.02,-22 1002.02,-28 1002.02,-28 1002.02,-48.28 1002.02,-48.28 1002.02,-54.28 996.02,-60.28 990.02,-60.28"/>
<text xml:space="preserve" text-anchor="middle" x="961" y="-41.19" font-family="Helvetica Neue,Helvetica,Arial,sans-serif" font-size="11.00" fill="#6b4a10">VS Index</text>
<text xml:space="preserve" text-anchor="middle" x="961" y="-27.69" font-family="Helvetica Neue,Helvetica,Arial,sans-serif" font-size="11.00" fill="#6b4a10">Delta Sync</text>
</g>
<!-- DELTATABLE&#45;&gt;VSINDEX -->
<g id="edge20" class="edge">
<title>DELTATABLE&#45;&gt;VSINDEX</title>
<path fill="none" stroke="#666688" stroke-width="1.4" d="M965.5,-129.04C964.6,-111.03 963.45,-88.14 962.54,-69.97"/>
<polygon fill="#666688" stroke="#666688" stroke-width="1.4" points="965.17,-69.89 962.17,-62.53 959.92,-70.15 965.17,-69.89"/>
<text xml:space="preserve" text-anchor="middle" x="985.38" y="-91.98" font-family="Helvetica Neue,Helvetica,Arial,sans-serif" font-size="9.00" fill="#333355">Delta Sync</text>
</g>
<!-- VSINDEX&#45;&gt;VS -->
<g id="edge21" class="edge">
<title>VSINDEX&#45;&gt;VS</title>
<path fill="none" stroke="#666688" stroke-width="1.4" d="M925.28,-60.71C849.57,-106.42 673.15,-212.94 590.8,-262.66"/>
<polygon fill="#666688" stroke="#666688" stroke-width="1.4" points="589.53,-260.36 584.47,-266.48 592.25,-264.85 589.53,-260.36"/>
<text xml:space="preserve" text-anchor="middle" x="833.37" y="-157.05" font-family="Helvetica Neue,Helvetica,Arial,sans-serif" font-size="9.00" fill="#333355">serves index</text>
</g>
<!-- L1a -->
<g id="node15" class="node">
<title>L1a</title>
<ellipse fill="#f8f8f8" stroke="#f8f8f8" cx="1212" cy="-685.28" rx="0.36" ry="0.36"/>
</g>
<!-- L1b -->
<g id="node16" class="node">
<title>L1b</title>
<path fill="#f8f8f8" stroke="none" d="M1226.23,-559.27C1226.23,-559.27 1197.77,-559.27 1197.77,-559.27 1195.54,-559.27 1193.31,-557.04 1193.31,-554.81 1193.31,-554.81 1193.31,-550.35 1193.31,-550.35 1193.31,-548.12 1195.54,-545.89 1197.77,-545.89 1197.77,-545.89 1226.23,-545.89 1226.23,-545.89 1228.46,-545.89 1230.69,-548.12 1230.69,-550.35 1230.69,-550.35 1230.69,-554.81 1230.69,-554.81 1230.69,-557.04 1228.46,-559.27 1226.23,-559.27"/>
<text xml:space="preserve" text-anchor="middle" x="1212" y="-550.23" font-family="Helvetica Neue,Helvetica,Arial,sans-serif" font-size="8.00" fill="#555555">Data flow</text>
</g>
<!-- L1a&#45;&gt;L1b -->
<g id="edge2" class="edge">
<title>L1a&#45;&gt;L1b</title>
<path fill="none" stroke="#666688" stroke-width="1.2" d="M1212,-684.19C1212,-680.98 1212,-597.27 1212,-565.58"/>
<polygon fill="#666688" stroke="#666688" stroke-width="1.2" points="1213.75,-565.85 1212,-560.85 1210.25,-565.85 1213.75,-565.85"/>
</g>
<!-- L2a -->
<g id="node17" class="node">
<title>L2a</title>
<ellipse fill="#f8f8f8" stroke="#f8f8f8" cx="1212" cy="-433.19" rx="0.36" ry="0.36"/>
</g>
<!-- L1b&#45;&gt;L2a -->
<!-- L2b -->
<g id="node18" class="node">
<title>L2b</title>
<path fill="#f8f8f8" stroke="none" d="M1235.23,-296.8C1235.23,-296.8 1188.77,-296.8 1188.77,-296.8 1186.54,-296.8 1184.31,-294.57 1184.31,-292.34 1184.31,-292.34 1184.31,-287.88 1184.31,-287.88 1184.31,-285.65 1186.54,-283.42 1188.77,-283.42 1188.77,-283.42 1235.23,-283.42 1235.23,-283.42 1237.46,-283.42 1239.69,-285.65 1239.69,-287.88 1239.69,-287.88 1239.69,-292.34 1239.69,-292.34 1239.69,-294.57 1237.46,-296.8 1235.23,-296.8"/>
<text xml:space="preserve" text-anchor="middle" x="1212" y="-287.76" font-family="Helvetica Neue,Helvetica,Arial,sans-serif" font-size="8.00" fill="#555555">Parallel search</text>
</g>
<!-- L2a&#45;&gt;L2b -->
<g id="edge3" class="edge">
<title>L2a&#45;&gt;L2b</title>
<path fill="none" stroke="#666688" stroke-width="1.2" stroke-dasharray="5,2" d="M1212,-432.09C1212,-428.6 1212,-336.68 1212,-303.18"/>
<polygon fill="#666688" stroke="#666688" stroke-width="1.2" points="1213.75,-303.46 1212,-298.46 1210.25,-303.46 1213.75,-303.46"/>
</g>
<!-- L3a -->
<g id="node19" class="node">
<title>L3a</title>
<ellipse fill="#f8f8f8" stroke="#f8f8f8" cx="1212" cy="-159.97" rx="0.36" ry="0.36"/>
</g>
<!-- L2b&#45;&gt;L3a -->
<!-- L3b -->
<g id="node20" class="node">
<title>L3b</title>
<path fill="#f8f8f8" stroke="none" d="M1232.61,-44.83C1232.61,-44.83 1191.39,-44.83 1191.39,-44.83 1189.16,-44.83 1186.93,-42.6 1186.93,-40.37 1186.93,-40.37 1186.93,-35.91 1186.93,-35.91 1186.93,-33.68 1189.16,-31.45 1191.39,-31.45 1191.39,-31.45 1232.61,-31.45 1232.61,-31.45 1234.84,-31.45 1237.07,-33.68 1237.07,-35.91 1237.07,-35.91 1237.07,-40.37 1237.07,-40.37 1237.07,-42.6 1234.84,-44.83 1232.61,-44.83"/>
<text xml:space="preserve" text-anchor="middle" x="1212" y="-35.79" font-family="Helvetica Neue,Helvetica,Arial,sans-serif" font-size="8.00" fill="#555555">MLflow trace</text>
</g>
<!-- L3a&#45;&gt;L3b -->
<g id="edge4" class="edge">
<title>L3a&#45;&gt;L3b</title>
<path fill="none" stroke="#2a8050" stroke-width="1.2" stroke-dasharray="1,5" d="M1212,-158.89C1212,-155.98 1212,-81.19 1212,-51.31"/>
<polygon fill="#2a8050" stroke="#2a8050" stroke-width="1.2" points="1213.75,-51.57 1212,-46.57 1210.25,-51.57 1213.75,-51.57"/>
</g>
</g>
</svg>
